CoelacanthHairline.sfdir
StartChar: exclam
Encoding: 33 33 352
Width: 266
Flags: HW
LayerCount: 2
Fore
SplineSet
121 208 m 1
 121 338.401234568 121 436.703703704 121 533 c 0
 121 579.223 121 602.826 121 652 c 1
 145 652 l 1
 145 618.530745763 145 625.93457206 145 533 c 0
 145 408 145 342 145 208 c 1
 121 208 l 1
EndSplineSet
Refer: 659 46 N 1 0 0 1 23 0 2
Position2: "cpsp-1" dx=0 dy=0 dh=50 dv=100
Substitution2: "pcap-1" exclam.pcap
Substitution2: "smcp-1" exclam.smcp
EndChar
StartChar: dollar
Encoding: 36 36 290
Width: 463
UnlinkRmOvrlpSave: 1
Flags: HW
LayerCount: 2
Fore
SplineSet
380 364 m 1
 359.615453259 333.666958513 347.52554216 312 327 286 c 1
 308 299 l 1
 325.333333333 320.533898305 343 351.322803561 343 359 c 3
 343 365.462706368 301.903099798 393 258 393 c 3
 187.999979221 393 124 356.640897157 124 306 c 3
 124 269.998653017 190.861142646 252.123366713 252 230 c 0
 337.621557203 199.017459754 396 172.136282257 396 111 c 3
 396 43.2158203125 318.341796875 -8 230 -8 c 3
 158.830078125 -8 95.2880859375 34.1015625 68 83 c 1
 87.0430297852 106.848144531 114.058959961 133.51993815 136 161 c 1
 155 145 l 1
 121.107597157 112.8472259 106 84.091796875 106 82 c 3
 106 59.3344029018 166.839370888 16 233 16 c 3
 317.73156622 16 372 66.8050161802 372 111 c 3
 372 158.833508003 324.406454415 177.19910061 250 204 c 0
 169.214322025 233.098669525 100 253.036272321 100 306 c 3
 100 370.165039062 174.412109375 417 258 417 c 3
 310.523191437 417 354.925119956 388.329782885 380 364 c 1
EndSplineSet
Refer: 781 58113 N 0.0181668 0.693762 -0.968418 0.0253589 236.417 -147.881 2
Substitution2: "case-1" dollar.alt
Substitution2: "lnum-1" dollar.alt
EndChar
StartChar: asterisk
Encoding: 42 42 212
Width: 362
Flags: HW
LayerCount: 2
Fore
SplineSet
187.995183915 518.485299444 m 1
 163.965087297 478.12937399 148.949705885 454.551010783 117.235017439 402.735463464 c 1
 96.7583782659 415.253733625 l 1
 128.136573522 466.641212813 141.760084156 487.893199826 167.90214956 531.701034584 c 1
 120.246889807 543.456600447 92.4880012019 551.054346655 35.8578694336 566.418678163 c 1
 42.0977275361 589.59327754 l 1
 99.2319679878 574.326989875 128.546168706 566.461696381 173.21131494 555.204472054 c 1
 168.889145936 608.735308986 165.818906068 637.818365985 161.540109745 690.019681127 c 1
 185.455932415 692.027462942 l 1
 190.027241183 638.834051823 192.986605419 611.967820224 197.232425817 556.872369998 c 1
 248.980794414 578.139526085 269.788025067 587.154873816 323.81821159 610.049020648 c 1
 333.202344782 587.959712252 l 1
 284.222827792 567.098066127 256.825221337 555.025252898 206.137704962 534.480921836 c 1
 239.889018653 493.305036394 258.377664994 471.648632828 294.030920336 430.902055294 c 1
 276.031088176 415.027633934 l 1
 239.722718085 455.874550286 221.342486895 477.237899984 187.995183915 518.485299444 c 1
EndSplineSet
EndChar
StartChar: comma
Encoding: 44 44 268
Width: 200
Flags: HW
LayerCount: 2
Fore
SplineSet
69 -98 m 1
 51 -82 l 1
 85 -46 97.3005971621 -1.84396615825 92 8 c 0
 85 21 72.4698776253 29.9611790971 58 38 c 0
 55 39.6666666667 55 43.8333333333 55 48 c 3
 55 51.8571428571 54.8856660237 55.9428330119 57 57 c 0
 73 65 86.5354518709 72.5571500644 92 91 c 0
 92.8888888889 94 96.4444444444 95 100 95 c 3
 104 95 106.810011862 94.1109863287 108 92 c 0
 118.710526316 73 128.430829951 62.5230566831 145 57 c 0
 148 56 148 52 148 48 c 1
 148 39 105 -62 69 -98 c 1
EndSplineSet
Position2: "Extra space for context kern-1" dx=78 dy=0 dh=156 dv=0
EndChar
StartChar: five
Encoding: 53 53 366
Width: 362
Flags: HW
LayerCount: 2
Fore
SplineSet
97 394 m 1
 157 396 236 396 250 398 c 0
 282 402 299 428 313 448 c 1
 313 448 329 437 333 434 c 1
 311 398 275 373 256 372 c 0
 228 371 179 370 122 370 c 1
 122 370 114 285 108 218 c 1
 188 223 302 171 302 48 c 3
 302 -95 153 -204 50 -213 c 1
 50 -213 50 -193 49 -188 c 1
 144 -179 278 -79 278 48 c 3
 278 117 227 206 79 193 c 1
 86 239 94 321 97 394 c 1
EndSplineSet
Substitution2: "dnom-1" five.denom
Substitution2: "numr-1" five.numerator
Substitution2: "tnum-1" five.tabulartext
Substitution2: "lnum-1" five.proportionallining
EndChar
StartChar: eight
Encoding: 56 56 321
Width: 468
UnlinkRmOvrlpSave: 1
Flags: HW
LayerCount: 2
Fore
SplineSet
222 613 m 3
 150 613 110 542 110 484 c 3
 110 351 405 322 405 155 c 3
 405 52 321 -13 215 -13 c 3
 122 -13 55 48 55 133 c 3
 55 354 346 329 346 497 c 3
 346 548 310 613 222 613 c 3
222 637 m 3
 308 637 370 578 370 497 c 3
 370 308 79 338 79 133 c 3
 79 73 122 11 215 11 c 3
 347 11 381 106 381 147 c 3
 381 237 314 267 229 321 c 0
 161 364 86 407 86 484 c 3
 86 568 145 637 222 637 c 3
EndSplineSet
Substitution2: "dnom-1" eight.denom
Substitution2: "numr-1" eight.numerator
Substitution2: "lnum-1" eight.proportionallining
Substitution2: "tnum-1" eight.tabulartext
EndChar
StartChar: question
Encoding: 63 63 681
Width: 378
Flags: HW
LayerCount: 2
Fore
SplineSet
38 621.200195312 m 1
 38.1081984255 627.762728233 38.1591796875 633.972002314 38.1591796875 639.849609375 c 0
 38.1591796875 655.598163308 26.533203125 678.105768051 26.533203125 682.963867188 c 0
 26.533203125 685.79512718 31.0000394605 696.15090633 50 702 c 1
 60.9634782609 655.119148936 68.5890567821 654 98 654 c 3
 206.171374302 654 301 570.774798197 301 444.799804688 c 3
 301 276.805234066 150.929 263.541866834 132 257.799804688 c 0
 132 257.799804688 132 220.862143027 132 179 c 1
 132 179 114.408 178.799804688 108 178.799804688 c 1
 108 202.70115019 107.905273438 227.368598934 107.905273438 245 c 3
 107.905273438 264.126565816 107.891929 276.765012002 108 276.799804688 c 0
 151 288.48116062 277 297.794109772 277 444.799804688 c 3
 277 556.928682081 191.140276032 628.908203125 99.8427734375 628.908203125 c 3
 79.2688070345 628.908203125 58.496856659 626.398633614 38 621.200195312 c 1
EndSplineSet
Refer: 659 46 N 1 0 0 1 18 0 2
Position2: "cpsp-1" dx=0 dy=0 dh=50 dv=100
Substitution2: "smcp-1" question.smcp
Substitution2: "pcap-1" question.pcap
EndChar
StartChar: at
Encoding: 64 64 213
Width: 802
Flags: HW
LayerCount: 2
Fore
SplineSet
532.155273438 350.799804688 m 1
 532.155273438 350.799804688 l 3
 531.75087789 350.799804688 429.38088105 329.526464941 358.555664062 291.599609375 c 0
 295.896578411 258.04571159 231 185.12156023 231 104 c 3
 231 64.8769513315 255.461817505 30 285 30 c 3
 336.673460706 30 406.682665532 79.7719188417 453.35546875 127.700195312 c 1
 461.237706801 165.16307447 472.058764077 209.583905705 486.955078125 248.799804688 c 0
 517.139703507 328.263571095 532.155273438 348.152642001 532.155273438 350.799804688 c 3
 532.155273438 350.799804688 l 1
551.754882812 335 m 1
 519.088216147 278.3 494.171593092 207.931938142 481.754882812 150.5 c 0
 476.087606991 124.286725544 473.639648438 94.2299136959 473.639648438 83.1396484375 c 3
 473.639648438 47.8383267743 480.843330747 33 488 33 c 3
 515.787979032 33 570.176269293 52.6283867661 615.5 82.5 c 0
 666.451848418 116.080949444 736 199.719602978 736 287 c 3
 736 441.641163793 589.278573883 537 443 537 c 3
 238.193753165 537 61 372.677222222 61 157 c 3
 61 -33.3020103806 225.117887789 -160 398 -160 c 3
 522.701101639 -160 636.03917377 -97.4427809917 714 -11 c 1
 720.63 -17.63 724.37 -21.37 731 -28 c 1
 659 -111 535.675 -184 398 -184 c 3
 215.848 -184 37 -52.6006 37 157 c 3
 37 379.824 218.625 561 442 561 c 3
 602.303 561 760 456.039 760 288 c 3
 760 186.984026966 686.037358421 99.6449641599 631.5 64.5 c 0
 596.0641037 41.6643999361 536.356023834 8 489 8 c 3
 452.534573643 8 448.255555556 50.3830780863 451 94 c 1
 400.910252004 44.543464477 331.647604569 6.5 283.955078125 6.5 c 3
 239.206451749 6.5 206.850585938 53.7986757263 206.850585938 103.969726562 c 3
 206.850585938 200.76356766 288.141455759 286.353932142 361.455078125 320.400390625 c 0
 411.197074368 343.500310603 465.011001643 360.027738139 543.754882812 377.299804688 c 0
 553.533365895 379.444664809 563.759603227 389.067959583 567.455078125 395.400390625 c 1
 596.255 398.9 l 1
 581.009118581 377.317 566.733763529 356.207 551.754882812 335 c 1
EndSplineSet
Position2: "'case' vertical ajustments for all-caps-1" dx=0 dy=160 dh=0 dv=0
Position2: "cpsp-1" dx=0 dy=0 dh=50 dv=100
EndChar
StartChar: K
Encoding: 75 75 2611
Width: 725
Flags: HW
AnchorPoint: "Bottom" 381 -15 basechar 0
AnchorPoint: "Top" 357 699 basechar 0
LayerCount: 2
Fore
SplineSet
413 684 m 1
 436 682 462 681 489 681 c 3
 535 681 583 684 626 691 c 1
 631 668 l 1
 579 657 574 663 556 645 c 0
 502 593.174804688 299 448.661132812 173 348 c 1
 332 236.603515625 585 58.3681640625 626 29 c 0
 636 22 642 23 697 19 c 1
 695 -5 l 1
 667 -3 628 0 600 0 c 3
 567 0 525 -3 493 -8 c 1
 489 16 l 1
 580 29 599 19 580 32 c 0
 545 56.3203125 287 236.693359375 146 336 c 1
 145 232.313476562 144 101.446289062 145 34 c 0
 145 18 150 32 298 12 c 1
 294 -12 l 1
 248 -5 200 0 148 0 c 3
 113 0 77 -2 37 -7 c 1
 34 17 l 1
 119 26 121 20 121 33 c 0
 121 140.64453125 122 254.325195312 122 367 c 3
 122 456.6640625 122 551.309570312 122 634 c 0
 122 666 114 651 40 663 c 1
 43 687 l 1
 79 683 116 681 154 681 c 3
 201 681 247 684 291 688 c 1
 294 664 l 1
 154 645 146 669 146 635 c 0
 146 542.3359375 146 454.653320312 146 359 c 1
 269 453.6640625 396 545.338867188 514 641 c 0
 531 655 526 657 519 657 c 0
 517 657 481 655 412 659 c 1
 413 684 l 1
EndSplineSet
Position2: "cpsp-1" dx=0 dy=0 dh=50 dv=100
Substitution2: "c2pc-1" k.pcap
Substitution2: "c2sc-1" k.smcp
EndChar
StartChar: L
Encoding: 76 76 2615
Width: 651
Flags: HW
AnchorPoint: "Bottom" 324 -15 basechar 0
AnchorPoint: "TopRight" 372 581 basechar 0
AnchorPoint: "Top" 181 699 basechar 0
LayerCount: 2
Fore
SplineSet
310 692 m 1
 314 668 l 1
 172 648 144 672 143 632 c 0
 142 578.111328125 142 150 142 150 c 0
 142 18.935546875 143 21.984375 159 23 c 0
 214 25 476 23 523 19 c 0
 556 15.9580078125 568 34.2099609375 597 164 c 1
 621 159 l 1
 608 93 570 0 580 -19 c 1
 562 -15.470703125 542 -5.7646484375 510 -4 c 0
 499 -3 410 0 308 0 c 3
 93 0 58 -9 47 -9 c 1
 44 14 l 1
 123 20 118 14 118 53 c 0
 118 57.0322265625 118 165.9140625 118 300 c 3
 118 468.506835938 118 630.03515625 118 642 c 0
 118 665 123 655 36 671 c 1
 40 695 l 1
 80 685 126 681 170 681 c 3
 220 681 270 686 310 692 c 1
EndSplineSet
Position2: "cpsp-1" dx=0 dy=0 dh=50 dv=100
Substitution2: "c2pc-1" l.pcap
Substitution2: "c2sc-1" l.smcp
EndChar
StartChar: T
Encoding: 84 84 2676
Width: 746
Flags: HMW
AnchorPoint: "Bottom" 366 -15 basechar 0
AnchorPoint: "Top" 366 699 basechar 0
LayerCount: 2
Fore
SplineSet
133 681 m 0
 258 682 383 681 509 681 c 3
 564 681 620 681 675 681 c 0
 690 681 704 686.416992188 711 694 c 1
 729 682 l 1
 714 646 695 606 693 559 c 1
 668 563 l 1
 672 588.662109375 677 613.337890625 685 639 c 0
 692 661 723 655 385 657 c 1
 385 525.3359375 385 396.6640625 385 265 c 3
 385 191.670898438 385 117.337890625 386 42 c 0
 387 13 390 33 525 15 c 1
 521 -8 l 1
 483 -3 433 0 383 0 c 3
 360 0 256 -4 211 -12 c 1
 209 13 l 1
 361 27 361 19 361 35 c 0
 361 114.198242188 361 289.63671875 361 435 c 3
 361 539.529296875 361 628.129882812 361 657 c 1
 271 657 184 657 98 658 c 0
 67 658 73 660.96875 29 563 c 1
 6 573 l 1
 25 610 53 685 64 706 c 1
 97 690.375 76 679.958007812 133 681 c 0
EndSplineSet
Position2: "cpsp-1" dx=0 dy=0 dh=50 dv=100
Substitution2: "c2pc-1" t.pcap
Substitution2: "c2sc-1" t.smcp
EndChar
StartChar: U
Encoding: 85 85 2684
Width: 845
Flags: HW
AnchorPoint: "Horn" 739 544 basechar 0
AnchorPoint: "Bottom" 427 -15 basechar 0
AnchorPoint: "Ogonek" 497 11 basechar 0
AnchorPoint: "Top" 448 699 basechar 0
LayerCount: 2
Fore
SplineSet
65 686 m 1
 82 682 109 681 137 681 c 3
 162 681 189 682 209 686 c 1
 213 662 l 1
 147 654 147 656 146 629 c 0
 146 622.092773438 141 293.521484375 141 258 c 0
 141 182.97265625 169.29296875 124.388671875 221 73 c 0
 260.400390625 36 336.168945312 9 418 9 c 3
 491 9 582 25.7060546875 645 80 c 0
 679 108.3203125 710 166.982421875 712 257 c 0
 714 360.909179688 718 530.1328125 719 638 c 0
 719 664 719 650 653 663 c 1
 657 688 l 1
 673 684 707 681 736 681 c 3
 760 681 781 682 790 686 c 1
 794 661 l 1
 743 648 743 665 743 638 c 0
 743 626.124023438 741 500.436523438 736 255 c 0
 734 181.193359375 713 114.463867188 672 72 c 0
 617 14 526 -15 419 -15 c 3
 334.22265625 -15 247.829101562 11.38671875 201 59 c 0
 153.139648438 109.282226562 117 164.640625 117 259 c 0
 117 290.577148438 122 616.211914062 122 632 c 0
 122 657 122 655 60 662 c 1
 65 686 l 1
EndSplineSet
Position2: "cpsp-1" dx=0 dy=0 dh=50 dv=100
Substitution2: "c2pc-1" u.pcap
Substitution2: "c2sc-1" u.smcp
EndChar
StartChar: V
Encoding: 86 86 2710
Width: 853
Flags: HW
AnchorPoint: "Bottom" 431 -15 basechar 0
AnchorPoint: "Top" 433 704 basechar 0
LayerCount: 2
Fore
SplineSet
271 689 m 1
 271 665 l 1
 245 663 174 657 134 657 c 0
 124 657 122 656 127 646 c 2
 433 13 l 1
 729 650 l 2
 731 654 733 657 725 657 c 0
 659 657 605 664 596 667 c 1
 597 691 l 1
 636 684 685 681 730 681 c 3
 774 681 815 685 838 691 c 1
 843 669 l 1
 777 648 762 664 755 647 c 0
 737 609.448242188 557 221.079101562 482 60 c 0
 470 34 449 -8 445 -27 c 1
 421 -27 l 1
 418 -6 403 20 386 56 c 0
 333 165.07421875 199 439.7421875 100 645 c 0
 92 660 85 651 14 668 c 1
 19 691 l 1
 45 684 101 681 134 681 c 3
 151 681 211 684 271 689 c 1
EndSplineSet
Position2: "cpsp-1" dx=0 dy=0 dh=50 dv=100
Substitution2: "c2pc-1" v.pcap
Substitution2: "c2sc-1" v.smcp
EndChar
StartChar: b
Encoding: 98 98 217
Width: 507
Flags: HMW
AnchorPoint: "Bottom" 248 -15 basechar 0
AnchorPoint: "Top" 104 749 basechar 0
LayerCount: 2
Fore
SplineSet
87 323 m 1
 84 224 84 167 84 68 c 3
 84 64 83 59 90 54 c 0
 130 26 186 9 240 9 c 3
 342 9 436 93 436 210 c 3
 436 299 366 394 266 394 c 3
 192 394 104 339 87 323 c 1
7 680 m 1
 58 705 77 712 91 759 c 1
 113 749 l 1
 99 717 96 689 95 667 c 0
 87 509 87 522 87 354 c 1
 117 376 194 418 266 418 c 3
 379 418 460 311 460 210 c 3
 460 85 361 -15 240 -15 c 3
 142 -15 111 23 79 23 c 3
 74 23 62 -1 56 -10 c 1
 34 1 l 1
 39 13 53 29 57 41 c 0
 60 49 59 76 60 145 c 0
 62 288 64 367 64 510 c 3
 64 541 71 640 71 667 c 0
 71 686 71 683 70 683 c 3
 64 683 39 669 19 658 c 1
 7 680 l 1
EndSplineSet
Substitution2: "case-1" B
Substitution2: "pcap-1" b.pcap
Substitution2: "smcp-1" b.smcp
EndChar
StartChar: h
Encoding: 104 104 424
Width: 531
Flags: HMW
AnchorPoint: "Bottom" 275 -15 basechar 0
AnchorPoint: "Top" 120 733 basechar 0
LayerCount: 2
Fore
SplineSet
116 312 m 1
 116 278 116 236 116 189 c 3
 116 120 115 57 115 32 c 0
 115 29 119 28 122 28 c 0
 148 27 185 20 208 18 c 1
 203 -6 l 1
 169 0 134 5 105 5 c 3
 80 5 51 0 26 -4 c 1
 22 20 l 1
 47 23 62 27 85 28 c 0
 92 28 91 34 91 44 c 0
 92 104 92 198 92 274 c 3
 92 541 93 647 92 671 c 0
 92 678 91 684 88 684 c 3
 85 684 52 660 31 656 c 1
 23 679 l 1
 54 690 89 715 114 750 c 1
 133 738 l 1
 126 722 118 691 117 678 c 0
 116 665 117 456 116 341 c 1
 177 383 263 408 311 408 c 3
 402 408 437 349 443 301 c 0
 445 281 446 235 446 183 c 3
 446 118 445 55 445 36 c 0
 445 31 447 30 455 29 c 0
 469 28 502 22 515 17 c 1
 507 -6 l 1
 482 3 465 5 438 5 c 3
 406 5 376 0 348 -6 c 1
 341 18 l 1
 362 21 379 24 407 26 c 0
 418 28 421 31 421 38 c 0
 421 63 422 120 422 144 c 3
 422 196 422 264 419 296 c 0
 414 349 374 384 313 384 c 3
 253 384 172 352 116 312 c 1
EndSplineSet
Substitution2: "case-1" H
Substitution2: "pcap-1" h.pcap
Substitution2: "smcp-1" h.smcp
EndChar
StartChar: p
Encoding: 112 112 651
Width: 513
Flags: HMW
AnchorPoint: "Bottom" 286 -15 basechar 0
AnchorPoint: "Top" 251 465 basechar 0
LayerCount: 2
Fore
SplineSet
303 392 m 3
 228 392 167 365 108 346 c 1
 108 61 l 1
 144 36 185 16 239 16 c 3
 344 16 452 94 452 216 c 3
 452 293 393 392 303 392 c 3
84 39 m 3
 84 184 84 327 84 351 c 3
 84 374 83 382 81 382 c 3
 76 382 62 367 12 351 c 1
 4 375 l 1
 28 380 64 399 91 429 c 1
 107 419 108 424 108 372 c 1
 163 392 239 416 303 416 c 3
 400 416 476 311 476 216 c 3
 476 79 356 -8 239 -8 c 3
 192 -8 147 6 108 29 c 1
 108 -62 108 -254 108 -295 c 0
 108 -312 111 -313 140 -314 c 0
 151 -314 163 -316 172 -316 c 1
 170 -340 l 1
 150 -339 126 -337 99 -337 c 3
 81 -337 53 -342 35 -346 c 1
 31 -323 l 1
 40 -321 46 -320 56 -318 c 0
 85 -312 84 -312 84 -285 c 0
 84 -228 84 -128 84 39 c 3
EndSplineSet
Substitution2: "case-1" P
Substitution2: "pcap-1" p.pcap
Substitution2: "smcp-1" p.smcp
EndChar
StartChar: r
Encoding: 114 114 696
Width: 358
Flags: HMW
AnchorPoint: "Bottom" 145 -15 basechar 0
AnchorPoint: "Top" 166 465 basechar 0
LayerCount: 2
Fore
SplineSet
121 196 m 0
 120 152 120 42 120 33 c 0
 120 31 119 30 158 27 c 0
 180 26 204 25 223 24 c 1
 223 0 l 1
 199 1 156 4 130 4 c 3
 103 4 75 -1 48 -5 c 1
 44 19 l 1
 53 20 59 21 70 22 c 0
 95 26 95 24 95 57 c 0
 95 85 97 188 97 218 c 3
 97 253 97 325 97 363 c 0
 97 369 97 378 96 378 c 3
 88 378 81 354 49 337 c 1
 39 360 l 1
 56 367 81 396 100 433 c 1
 121 425 121 425 121 406 c 3
 121 397 121 369 121 337 c 1
 158 380 237 424 292 424 c 3
 318 424 344 402 344 388 c 3
 321 381 l 1
 318 391 305 400 292 400 c 3
 240 400 121 338 121 278 c 0
 121 247 121 210 121 196 c 0
EndSplineSet
Substitution2: "case-1" R
Substitution2: "pcap-1" r.pcap
Substitution2: "smcp-1" r.smcp
EndChar
StartChar: u
Encoding: 117 117 814
Width: 506
Flags: HMW
AnchorPoint: "Bottom" 255 -15 basechar 0
AnchorPoint: "Ogonek" 392 -3 basechar 0
AnchorPoint: "Horn" 434 333 basechar 0
AnchorPoint: "Top" 264 465 basechar 0
LayerCount: 2
Fore
SplineSet
321 369 m 1
 353 378 387 389 412 399 c 1
 429 385 l 1
 426 341 425 175 425 137 c 3
 425 107 425 81 427 54 c 0
 430 22 435 -3 436 -3 c 3
 440 -3 467 13 487 24 c 1
 501 4 l 1
 484 -5 467 -14 447 -24 c 0
 442 -26 438 -28 434 -28 c 3
 411 -28 409 -6 404 46 c 1
 351 25 252 -12 178 -12 c 3
 141 -12 107 4 89 41 c 0
 76 68 70 96 70 148 c 3
 70 201 71 261 76 312 c 0
 81 368 l 3
 80 368 45 338 38 333 c 1
 25 353 l 1
 62 388 68 395 87 420 c 1
 111 411 l 1
 99 331 94 236 94 148 c 3
 94 75 109 12 178 12 c 3
 247 12 345 51 403 72 c 1
 398 110 402 324 402 333 c 3
 402 369 400 365 333 347 c 1
 321 369 l 1
EndSplineSet
Substitution2: "case-1" U
Substitution2: "pcap-1" u.pcap
Substitution2: "smcp-1" u.smcp
EndChar
StartChar: v
Encoding: 118 118 2462
Width: 418
Flags: HMW
DStem2: 224 95 55 339 0.322551 -0.946552<-271.079 -13.8948> 224 95 273 128 0.393919 0.919145<1.32074 223.239>
AnchorPoint: "Bottom" 193 -15 basechar 0
AnchorPoint: "Top" 210 465 basechar 0
LayerCount: 2
Fore
SplineSet
419 392 m 1
 377 382 375 379 360 345 c 0
 329 275 299 202 270 133 c 0
 251 88 228 38 205 -20 c 1
 188 -20 l 1
 153 113 104 252 64 354 c 0
 60 364 58 376 42 377 c 0
 31 378 16 381 3 382 c 1
 6 405 l 1
 23 401 48 400 65 400 c 3
 100 400 150 405 183 411 c 1
 188 387 l 1
 162 381 99 377 99 377 c 0
 92 376 88 375 88 367 c 3
 88 366 89 356 91 351 c 0
 126 258 174 122 199 29 c 1
 240 123 291 246 331 340 c 0
 334 347 336 353 336 362 c 3
 336 387 332 375 269 389 c 1
 277 412 l 1
 310 405 326 404 345 404 c 3
 367 404 393 409 411 415 c 1
 419 392 l 1
EndSplineSet
Substitution2: "case-1" V
Substitution2: "pcap-1" v.pcap
Substitution2: "smcp-1" v.smcp
EndChar
StartChar: w
Encoding: 119 119 2465
Width: 657
Flags: HMW
DStem2: 208 109 254 128 0.453531 0.891241<1.73782 195.326> 447 95 321 271 0.269208 -0.963082<-202.488 0> 447 95 497 128 0.445318 0.895373<0.637142 266.408>
AnchorPoint: "Bottom" 294 -15 basechar 0
AnchorPoint: "Top" 323 465 basechar 0
LayerCount: 2
Fore
SplineSet
659 391 m 1
 634 381 634 378 620 353 c 0
 580 280 533 205 493 133 c 0
 469 89 442 38 416 -20 c 1
 395 -20 l 1
 371 84 347 193 327 285 c 1
 306 236 283 187 263 140 c 0
 242 92 219 40 191 -20 c 1
 169 -20 l 1
 144 98 93 240 51 345 c 0
 45 359 39 377 32 377 c 0
 23 377 12 378 2 381 c 1
 5 405 l 1
 17 401 37 400 49 400 c 3
 81 400 117 402 147 409 c 1
 151 385 l 1
 122 378 74 377 74 377 c 0
 70 377 68 376 68 372 c 3
 68 365 73 353 77 344 c 0
 119 245 158 125 184 24 c 1
 230 125 267 211 318 325 c 1
 316 336 313 348 312 359 c 0
 310 375 310 374 299 376 c 0
 285 377 265 380 249 381 c 1
 252 405 l 1
 271 401 299 400 318 400 c 3
 345 400 383 406 408 414 c 1
 413 390 l 1
 394 383 349 378 349 378 c 0
 341 377 336 376 336 367 c 3
 336 366 337 356 338 351 c 0
 358 255 387 116 410 23 c 1
 461 133 527 240 592 352 c 0
 597 360 600 365 600 374 c 3
 600 384 596 379 539 391 c 1
 544 415 l 1
 579 405 597 404 617 404 c 3
 628 404 640 409 649 415 c 1
 659 391 l 1
EndSplineSet
Substitution2: "case-1" W
Substitution2: "pcap-1" w.pcap
Substitution2: "smcp-1" w.smcp
EndChar
StartChar: asciitilde
Encoding: 126 126 211
Width: 394
Flags: HW
LayerCount: 2
Fore
SplineSet
20 222 m 1
 49.3548387097 244.488888889 91.1720430108 266 111 266 c 3
 153.022727273 266 241.954545455 231 283 231 c 3
 295.545454545 231 333.181818182 250.608695652 352 272 c 1
 374 258 l 1
 347.823529412 232.865979381 306.611764706 207 285 207 c 3
 246.881081081 207 143.259459459 242 113 242 c 3
 96.75 242 60.5 221.692307692 43 209 c 1
 20 222 l 1
EndSplineSet
Position2: "cpsp-1" dx=0 dy=0 dh=50 dv=100
Position2: "'case' vertical ajustments for all-caps-1" dx=0 dy=90 dh=0 dv=0
EndChar
StartChar: section
Encoding: 167 167 729
Width: 428
Flags: HW
LayerCount: 2
Fore
SplineSet
207 618 m 1
 155 552.25 129 493.240333333 129 411 c 3
 129 132.992805848 278 143 215 -35 c 1
 275.663333333 10.0625919671 315 94.3780843137 315 183 c 3
 315 364.300264218 127 455 207 618 c 1
103 411 m 3
 103 539.875054625 185.869969299 698.224609375 340.592773438 698.224609375 c 3
 371.732414462 698.224609375 392.900465744 684.349609375 408.592773438 661.224609375 c 1
 404.866842691 656.667509094 397.940934211 651.314629657 391 648 c 1
 382.709677419 659.571510638 364.802419355 675 341 675 c 3
 265.961586868 675 209 606.052525 209 538 c 3
 209 458.396820513 339 347.412854701 339 184 c 3
 339 61.8759197101 256.787240149 -93.775390625 118.592773438 -93.775390625 c 3
 74.2947901327 -93.775390625 44.0914965548 -85.2747395835 17 -59 c 1
 16.9154470969 -55.6654284914 26.881339717 -43.2605477479 35 -41 c 1
 55.7838873747 -59.4397539903 75.3614181513 -70 119 -70 c 3
 178.49 -70 209 -15.7191685106 209 35 c 3
 209 129.239420096 103 175.326758138 103 411 c 3
EndSplineSet
Position2: "'case' vertical ajustments for all-caps-1" dx=0 dy=60 dh=0 dv=0
Position2: "cpsp-1" dx=0 dy=0 dh=50 dv=100
EndChar
StartChar: degree
Encoding: 176 176 281
Width: 307
Flags: HW
LayerCount: 2
Fore
SplineSet
147.395507812 475.272460938 m 0
 212.735666661 475.272460938 270.467773438 529.11080233 270.467773438 599.119140625 c 0
 270.467773438 668.254734802 216.103915125 721.391601562 147.28515625 721.391601562 c 0
 79.2936695384 721.391601562 24.53515625 666.868178364 24.53515625 598.814453125 c 0
 24.53515625 530.634360253 80.8816837443 475.272460938 147.395507812 475.272460938 c 0
147.376953125 450.9609375 m 0
 67.7209799365 450.9609375 0.2412109375 517.25500347 0.2412109375 598.8984375 c 0
 0.2412109375 680.403073513 65.820211378 745.703125 147.247070312 745.703125 c 0
 229.660015085 745.703125 294.762695312 682.06127958 294.762695312 599.2578125 c 0
 294.762695312 515.4282111 225.625352612 450.9609375 147.376953125 450.9609375 c 0
EndSplineSet
EndChar
StartChar: germandbls
Encoding: 223 223 410
Width: 579
Flags: HW
LayerCount: 2
Fore
SplineSet
312 756 m 3
 411.877 756 454.845 679.623 454.845 588.779 c 3
 454.845 438.988503784 334 375.077066675 334 333 c 3
 334 305.608695652 354.867620568 281.907401948 408 263 c 0
 488.428073947 234.379299435 539 184.803885135 539 128 c 3
 539 33.1543 458.812 -9 408 -9 c 3
 365.699560976 -9 332.401317073 2 300 16 c 1
 304 30 306 44 306 59 c 0
 306 68.3555 304.571 95.6445 301 105 c 1
 323 112 l 1
 341.765844155 49.956891358 309.674011574 15 408 15 c 3
 455.5 15 515 54.036528 515 128 c 3
 515 185.433216981 451.136344627 221.51073999 403 239 c 0
 362.222015184 253.815765191 310 280.961552675 310 333 c 3
 310 392.736906699 431 442.117753923 431 589 c 3
 431 686.35934042 382.067805903 732 313 732 c 3
 262.518910568 732 124 650.021427478 124 440 c 3
 124 405.893921951 124 292.161341463 124 249 c 0
 124 179.008123077 124 113.473622994 124 45 c 0
 124 29.9818069995 129.134376369 24.2474911069 141 24 c 0
 164.971818182 23.5 187.028181818 21.5 211 17 c 1
 208 -6 l 1
 182.625 -1 146.375 1 121 1 c 0
 97.2266 1 60.7734 -2 37 -6 c 1
 36 18 l 1
 51.8888888889 20 72.8711883716 23.6549511467 88 24 c 0
 99.4289270488 24.260664107 101 32.9416502983 101 39 c 0
 101 110.382978723 100.890565855 157.69286296 100 222 c 0
 99.4053128851 264.941940299 99.1642370319 321.478768657 99.06640625 377 c 1
 40 360 l 1
 40 386 l 1
 59.9402 389.935 79.0951 397.74 99.0097 401.801 c 1
 99 418.369 99 425.297851562 99 440 c 0
 99 570.533203125 150.062 657.199 205 704 c 0
 236.242803105 730.615356003 272.237 756 312 756 c 3
EndSplineSet
Substitution2: "pcap-1" uni1E9E.pcap
Substitution2: "case-1" uni1E9E
Substitution2: "smcp-1" uni1E9E.smcp
MultipleSubs2: "case-2" S S
EndChar
StartChar: thorn
Encoding: 254 254 782
Width: 515
Flags: HW
LayerCount: 2
Fore
SplineSet
95 346 m 1
 95 346 93.0771484375 179 93.0771484375 72 c 27
 93.0771484375 59.5126953125 93.07421875 60.857421875 99 56.4814453125 c 0
 135.208007812 29.73828125 176.50390625 9 230 9 c 3
 335 9 443 89.73046875 443 216 c 3
 443 293 381.624023438 392 288 392 c 3
 213.76953125 392 153.39453125 365 95 346 c 1
69 39 m 3
 69 257.9453125 71 473.76953125 71 510 c 3
 71 541 78 640 78 667 c 0
 78 686 78 683 77 683 c 3
 71 683 46 669 26 658 c 1
 14 680 l 1
 65 705 84 712 98 759 c 1
 120 749 l 1
 106 717 103.090820312 688.99609375 102 667 c 0
 94.4013671875 513.82421875 94.01953125 518.096679688 94 372 c 1
 148.717773438 392 224.328125 416 288 416 c 3
 388.364257812 416 467 311 467 216 c 3
 467 74.71875 347 -15 230 -15 c 3
 180.84765625 -15 133.786132812 1.6484375 93 29 c 1
 93 -62 93 -254 93 -295 c 0
 93 -312 95.982421875 -314 125 -314 c 0
 136 -314 148 -316 157 -316 c 1
 155 -340 l 1
 135 -339 111 -337 84 -337 c 3
 66 -337 38 -342 20 -346 c 1
 16 -323 l 1
 25 -321 31.013671875 -320.06640625 41 -318 c 0
 70 -312 69 -312 69 -285 c 0
 69 -228 69 -128 69 39 c 3
EndSplineSet
Substitution2: "pcap-1" thorn.pcap
Substitution2: "case-1" Thorn
Substitution2: "smcp-1" thorn.smcp
EndChar
StartChar: Iogonek
Encoding: 302 302 2603
Width: 393
UnlinkRmOvrlpSave: 1
Flags: HW
LayerCount: 2
Fore
SplineSet
230.177734375 5.734375 m 1
 161.958984375 -55.015625 125 -136.697265625 125 -237 c 3
 125 -281.924804688 158.33203125 -321 195 -321 c 3
 226.124023438 -321 263.4921875 -297.34765625 301.834960938 -245.168945312 c 1
 301.834960938 -245.168945312 312.944335938 -255.497070312 315.633789062 -263.569335938 c 1
 288.579101562 -311.305664062 236.14453125 -346.888671875 194.564453125 -346.888671875 c 3
 145.384765625 -346.888671875 98.765625 -298.078125 98.765625 -236.513671875 c 3
 98.765625 -155.396484375 121.368164062 -53.4072265625 216 28 c 1
 230.177734375 5.734375 l 1
EndSplineSet
Refer: 2595 73 N 1 0 0 1 0 0 2
Position2: "cpsp-1" dx=0 dy=0 dh=50 dv=100
Substitution2: "c2pc-1" iogonek.pcap
Substitution2: "c2sc-1" iogonek.smcp
EndChar
StartChar: kgreenlandic
Encoding: 312 312 498
Width: 520
Flags: HW
LayerCount: 2
Fore
SplineSet
179 211 m 1
 169 204 l 1
 169 140.25 171.723635175 78.5727361869 175 54 c 0
 177 39 185.619315018 37.1522739927 196 33 c 0
 206 29 216 28 230 27 c 1
 225 -7 l 1
 191 -1 172 4 130 4 c 3
 100 4 64 -3 34 -5 c 1
 32 28 l 1
 43 29 54.2438024311 30.030722479 64 33 c 0
 87 40 93.3132247115 48.0575369992 96 76 c 0
 101 128 105 170 105 235 c 3
 105 253.368013699 103.27297056 281.632471039 101 318 c 0
 100 334 94 348 77 348 c 3
 71 348 51 345 41 344 c 1
 36 373 l 1
 88 381.884615385 124 387.538461538 167 415 c 1
 187 399 l 1
 181 385 174.184346429 357.982026431 173 347 c 0
 171 328.454705882 168 273.908529412 167 227 c 1
 201.5858 255.29682906 250.733796152 297.620653704 285 330 c 0
 291.596571429 336.233333333 301 348.518518519 301 355 c 3
 301 373 277 372 267 374 c 1
 269 401 l 1
 295 399 330 399 357 399 c 3
 388.166666667 399 428.777777778 399 459 403 c 1
 461 371 l 1
 400.820895522 364.000222222 364.689666047 341.369176033 333 319 c 2
 231 247 l 1
 297.824402928 186.179636497 367.532605558 122.858938129 446 52 c 1
 462 37 490 29 504 28 c 1
 501 -6 l 1
 467 0 449 4 407 4 c 3
 377 4 345 -3 315 -5 c 1
 312 28 l 1
 348 33 348 37 359 38 c 1
 296.777686305 99.8038948798 205.773756239 186.901875399 179 211 c 1
EndSplineSet
MultipleSubs2: "case-2" K quoteleft
EndChar
StartChar: uni018B
Encoding: 395 395 859
Width: 647
Flags: HW
LayerCount: 2
Fore
SplineSet
319 399 m 3
 200.189510234 399 152 310.982292386 152 226 c 3
 152 99.3335597826 234.098835271 34 342 34 c 3
 362.221855249 34 397.226329253 38.9928629412 405 41 c 0
 431.251979119 47.7781775005 435.947957703 59.0014431767 437 96 c 0
 438.909918881 163.168632336 439 272.443069307 440 384 c 1
 414.145299145 395.142857143 375.475442051 399 319 399 c 3
607 685 m 1
 612 654 l 1
 539 640 525 640 524 613 c 0
 520.883101455 528.843739297 520 461 520 292 c 3
 520 176 523 78 523 73 c 0
 523 35.9462890625 560 36 607 34 c 1
 604 -2 l 1
 597 -2 552 2 493 2 c 3
 433.150390625 2 380.650390625 -4 325 -4 c 3
 161.126953125 -4 56 81.599609375 56 210 c 3
 56 313.157226562 124.46875 404.865234375 246 421.883789062 c 0
 304.694404737 430.103024336 366.982421875 429 438 429 c 1
 438 429 439 535.88 435 596 c 0
 433.803214481 613.987686349 431.110770276 633 413 633 c 3
 351.03694924 633 290.945353719 633.101732231 231 628 c 0
 184 624 181 628 144 554 c 1
 105 573 l 1
 125 612 154 691 165 713 c 1
 188 695 210.002744447 685.347488314 232 685 c 0
 321.524786441 683.585786438 411.049572883 682.171572875 500.827254201 682.171572875 c 3
 552.81580054 682.171572875 582 683 607 685 c 1
EndSplineSet
EndChar
StartChar: uni0198
Encoding: 408 408 872
Width: 687
Flags: HW
LayerCount: 2
Fore
SplineSet
236 370 m 1
 576 87 l 0
 610 59 649 38 677 23 c 1
 673 -1 l 1
 645 1 606 4 578 4 c 0
 545 4 503 1 471 -4 c 1
 467 21 l 1
 497 30 513.454283452 33.4072133617 491 58 c 0
 470 81 280 232 178 316 c 1
 178 235 180.437873927 134.085710579 183 79 c 0
 185 36 217 34 276 20 c 1
 272 -10 l 1
 195 2 115 7 15 -5 c 1
 12 28 l 1
 67 29 88.8448476065 35.0089550282 91 71 c 0
 101 238 101.21927907 417.969825563 95 589 c 0
 93 644 78 645 15 657 c 1
 21 688 l 1
 101 678 190 681 269 689 c 1
 272 657 l 1
 214 652 189.572216385 651.213235274 187 608 c 0
 182 524 178 444 178 357 c 1
 220.488107554 401.675670719 283.863543539 476.459463654 347 543.189453125 c 0
 420.965761113 621.365117979 478.688704962 696.489257812 548.770507812 696.489257812 c 3
 619.689656377 696.489257812 662 654.763980872 662 594 c 3
 662 554.444658561 634.129127673 535.030273438 604.740234375 535.030273438 c 3
 582.598681853 535.030273438 559.595489704 547.806929751 547 573 c 1
 556.570921215 587.361991845 565 594.861661579 565 622 c 3
 565 633.888349158 550.656639289 643.274414062 533.823242188 643.274414062 c 3
 504.593942763 643.274414062 464.167926381 606.405004804 418.000002622 560.375045523 c 0
 355.786719522 498.34767555 274.781381017 411.818567198 236 370 c 1
EndSplineSet
EndChar
StartChar: uni019D
Encoding: 413 413 877
Width: 791
Flags: HW
AnchorPoint: "Top" 403 699 basechar 0
AnchorPoint: "Bottom" 407 -15 basechar 0
LayerCount: 2
Fore
SplineSet
184.073537644 64 m 3
 184.073537644 -66.6258218239 161.813821883 -119.205815619 61 -189 c 0
 22 -216 -15 -241 -74 -241 c 3
 -106 -241 -156 -230 -181 -208 c 1
 -179.775510204 -178.046875 -181 -178.046875 -121 -137 c 1
 -82 -155 -58.650848842 -179 -13 -179 c 3
 124.758644643 -179 106.748046875 -4.25197176855 106.748046875 129 c 3
 106.748046875 269.772856568 106.63207391 315.787844193 106.63207391 430.331351559 c 3
 106.63207391 477.147555243 106.090288521 524.117593594 105 571 c 0
 104 614 69 649 12 648 c 1
 14 692 l 1
 53 688 104.98828125 684 146 684 c 0
 161 684 162.447304818 680.419833099 169 673 c 0
 323.650943396 498.232468194 483.79245283 331.233112803 654 172 c 1
 661.597845583 274.809392514 664.256835938 377.619470097 664.256835938 484.467773438 c 3
 664.256835938 504.496930692 664.166674152 524.665753423 664 545 c 0
 663 667 611 656 552 663 c 1
 556 701 l 1
 611.519527593 693.825467429 658.298730193 691.263671875 702.271484375 691.263671875 c 3
 731.164871444 691.263671875 758.846585715 692.369725676 787 694 c 1
 792 655 l 1
 743 649 721.77858161 651.020484316 718 609 c 0
 703 442.189453125 700 264.596679688 700 86 c 0
 700 63 706 23 712 0 c 1
 675 -11 l 1
 659 32 624.352238752 71.3837846991 593 105 c 0
 452.622641509 255.514148086 309.528301887 401.20457558 161 544 c 1
 151.715649199 248.254430835 184.073537644 212.936315807 184.073537644 64 c 3
EndSplineSet
EndChar
StartChar: uni01A2
Encoding: 418 418 881
Width: 827
UnlinkRmOvrlpSave: 1
Flags: HW
LayerCount: 2
Fore
SplineSet
426 665 m 3
 262.329101562 665 130 563 130 384 c 3
 130 206.6015625 273 43 443 43 c 3
 479.974609375 43 508.85546875 48.2373046875 526 57 c 1
 538.351711978 73 546.000976562 263.72265625 546.000976562 360.349609375 c 3
 546.000976562 454.005859375 541.2890625 600.963867188 531 638 c 1
 500.9609375 654.033203125 468.143554688 665 426 665 c 3
422 706 m 3
 494.547626023 706 560.837368642 685.89827073 612 652.66796875 c 1
 608.607306469 554.847330717 606.963867188 457.026692701 606.963867188 359.206054688 c 3
 606.963867188 257.264648444 609.369119683 155.323242202 614 53.3818359375 c 1
 563.844532022 15.6906138771 498.210996857 -7 424 -7 c 3
 210 -7 37 148.774414062 37 343 c 3
 37 536.796875 212 706 422 706 c 3
544 655 m 1
 779 695 l 1
 789 669 l 1
 774.512695312 634.34765625 762.517578125 477.96484375 762.517578125 327.6484375 c 3
 762.517578125 203.588867188 762.138522029 65.2988204406 770 -88 c 0
 772 -127 824 -122 878 -124 c 1
 877 -163 l 1
 825.492812273 -157.390306287 768.264049355 -154.121256971 713.006209155 -154.121256971 c 0
 659.909427281 -154.121256971 608.632422453 -157.13961018 566 -164 c 1
 561 -124 l 1
 621 -124 677.939769904 -126.997083367 680 -77 c 0
 684.643554688 35.6884765625 686.915039062 184.162109375 686.915039062 329.857421875 c 3
 686.915039062 439.138671875 682.915868772 582.798664848 678 612 c 0
 676.200101007 622.691793489 664.270507812 636.02734375 647.625 636.02734375 c 3
 629.220703125 636.02734375 611.552789652 620.189514532 600 603 c 1
 544 655 l 1
EndSplineSet
Substitution2: "c2sc-1" gha.smcp
Substitution2: "c2pc-1" gha.pcap
EndChar
StartChar: uni01A4
Encoding: 420 420 883
Width: 722
Flags: HW
LayerCount: 2
Fore
SplineSet
392 278 m 3
 499 278 601 335.9609375 601 459 c 3
 601 540 542.336254197 613.739442579 499 633 c 0
 463 649 411 655 345 655 c 3
 330 655 318.598349595 641.994621601 319 627 c 0
 321 552.334960938 320 421.16796875 321 290 c 1
 343 281 365 278 392 278 c 3
264 684 m 3
 325.585635359 684 359.414364641 694 421 694 c 3
 586 694 690 576 690 467 c 3
 690 347.405273438 588 242 384 242 c 3
 361 242 344 246 324 250 c 1
 326 181 326.453213516 105.069707637 331 74 c 0
 337 33 357 42 428 37 c 1
 424 -10 l 1
 365.657226562 -3.2685546875 325.251953125 2.833984375 281.423828125 2.833984375 c 3
 247.125 2.833984375 210.73046875 -0.90234375 162 -11 c 1
 148 27 l 1
 222 52.103515625 237.224468716 42.235790168 238 79 c 0
 239.333333333 142.206923339 240 214.884459434 240 292 c 3
 240 461 232.901044498 604.989555016 232 614 c 0
 231 624 220 653 196 653 c 3
 155 653 96 634 96 592 c 3
 96 571 111 554 135 537 c 1
 123 506 98 487 71 487 c 3
 32 487 7 515 7 544 c 3
 7 621 108 686 189 686 c 3
 205.176470588 686 239 684 264 684 c 3
EndSplineSet
EndChar
StartChar: uni01B4
Encoding: 436 436 891
Width: 540
Flags: HW
LayerCount: 2
Fore
SplineSet
348.607721582 244.000003017 m 0
 317.480216416 177.891097822 270.643813919 81.1219999326 223 -12 c 0
 179 -98 113 -281 113 -346 c 1
 109 -346 90 -343 52 -343 c 3
 22 -343 15 -345 -6 -346 c 1
 -6 -346 -5 -330 -7 -319 c 1
 85 -283 73 -255 176 -32 c 1
 148 100.845703125 84.3007692526 310.427472496 58 348 c 0
 51 358 47.9141031266 367.57464375 37 370 c 0
 28 372 16 375 6 376 c 1
 10 406 l 1
 33 402 68 400 91 400 c 3
 125 400 153 401 185 407 c 1
 189 379 l 1
 156 370 l 0
 149 369 145 368 145 359 c 3
 145 358 147.182637941 351.033082481 148 346 c 0
 160 272.107421875 192 153.462890625 226 65 c 1
 253.787010354 108.25843066 277.318015944 161.613683748 301.833476298 212.999996349 c 0
 340 293 365.956234083 419 468.797851562 419 c 3
 513.394001396 419 540 389.1786974 540 355.576171875 c 3
 540 317.727644957 518.04296875 299.151367188 494.890625 299.151367188 c 3
 477.447265625 299.151367188 459.326171875 306.061106972 449.40234375 319.6875 c 1
 455.037981899 328.571965144 460 333.211388221 460 350 c 3
 460 358.212890625 451.46067245 364.697265625 441.439453125 364.697265625 c 3
 400.623221682 364.697265625 372.050906445 293.788872291 348.607721582 244.000003017 c 0
EndSplineSet
EndChar
StartChar: uni01BF
Encoding: 447 447 896
Width: 466
UnlinkRmOvrlpSave: 1
Flags: HW
AnchorPoint: "Top" 251 465 basechar 0
AnchorPoint: "Bottom" 286 -15 basechar 0
LayerCount: 2
Fore
SplineSet
162 -284 m 0
 164 -299 182.976148957 -303.31100931 194 -304 c 0
 210 -305 229 -307 243 -308 c 1
 242 -342 l 1
 203 -341 172 -339 130 -339 c 3
 100 -339 52 -344 22 -348 c 1
 19 -316 l 1
 30 -315 38.1817100136 -313.822162605 49 -311 c 0
 72 -305 77.3132247115 -293.942463001 80 -266 c 0
 85 -214 89 -122 89 31 c 3
 89 153 84.7139067635 272.944903477 81 293 c 0
 76 320 62 331 48 331 c 3
 38 331 15 322 6 322 c 1
 0 353 l 1
 37 360 94 385 136 424 c 1
 148 417.260869565 155 419.913043478 155 331 c 1
 157.859375 337.344827586 322.2734375 421.942528736 338 423 c 1
 376.945454545 423 440 346.127272727 440 272 c 3
 440 169.288917498 211.635087719 -29.5308641975 133 -72 c 1
 118.432617188 -51 l 1
 192.625923036 -13.4080638015 369 163.154235646 369 233 c 3
 369 297.296167411 325.411764706 348 291 348 c 3
 261.365853659 348 156 316.93994097 156 287 c 0
 156 216.48698455 156 151 156 64 c 3
 156 -27.9228366662 154.64577167 -228.843287522 162 -284 c 0
EndSplineSet
Substitution2: "smcp-1" uni01BF.smcp
Substitution2: "pcap-1" uni01BF.pcap
EndChar
StartChar: uni021C
Encoding: 540 540 1038
Width: 485
UnlinkRmOvrlpSave: 1
Flags: HW
LayerCount: 2
Fore
SplineSet
281 353 m 1
 345.905273438 337.3984375 449 244.3984375 449 151 c 3
 449 -2.5634765625 193.696289062 -161.83984375 57 -175 c 1
 52 -140 l 1
 184.403320312 -128.6640625 356 13.625 356 135 c 3
 356 218.091796875 273.137695312 292.672851562 201 313 c 1
 281 353 l 1
95 294 m 1
 217.060546875 330.731445312 334 406.58984375 334 535 c 3
 334 589.651367188 274.817382812 644 226 644 c 3
 161.032226562 644 84.4619140625 595.852539062 56 515 c 1
 29 523 l 1
 38 570 46 596 58 643 c 1
 111.806640625 673.446289062 177.571289062 698 257 698 c 3
 342.772460938 698 422 615.584960938 422 555 c 3
 422 410.931640625 241.125 285.915039062 109 261 c 1
 95 294 l 1
EndSplineSet
EndChar
StartChar: uni0241
Encoding: 577 577 1091
Width: 514
Flags: HW
LayerCount: 2
Fore
SplineSet
389 37 m 1
 382 -7 l 1
 296 5 153 3.2001953125 72 -11 c 1
 64 37 l 1
 168.625976562 50.2705078125 171 49.6865234375 171 123 c 3
 171 231.00390625 224.916015625 232.244140625 297 282.352539062 c 0
 332.760742188 307.211914062 389 369.955078125 389 433 c 3
 389 554.989257812 314.428710938 639 215 639 c 3
 145.62109375 639 86.916015625 596 46 553 c 1
 14 587 l 1
 66.666015625 641 158.059570312 701 251 701 c 3
 307.176757812 701 478 679.456054688 478 470 c 3
 478 332.310546875 352.649414062 278.134765625 312.365234375 244 c 0
 285.4453125 221.189453125 270 188.342773438 270 119 c 3
 270 40.8564453125 265.366210938 47.77734375 389 37 c 1
EndSplineSet
EndChar
StartChar: uni0242
Encoding: 578 578 1092
Width: 348
Flags: HW
LayerCount: 2
Fore
SplineSet
172 66 m 3
 172 45.517578125 178.987154447 39.5341796875 219 34 c 0
 235 30 253 29 267 28 c 1
 262 -6 l 1
 220.192166759 -0.5458984375 173.023731333 4 128 4 c 3
 103.943359375 4 67.056640625 -1 43 -5 c 1
 41 28 l 1
 52 29 67.154296875 30.287109375 78 33 c 0
 93.5615234375 36.892578125 103 51.724609375 103 70 c 3
 103 128.288085938 137.194335938 144.490234375 176 156 c 0
 215.970703125 166.338867188 251 193.333984375 251 252 c 3
 251 320.69280599 192.285714286 368 114 368 c 3
 76.6421052632 368 45.0315789474 352 23 336 c 1
 7 362 l 1
 40.1111111111 389 97.568627451 419 156 419 c 3
 197.328778039 419 323 400.015140086 323 278 c 3
 323 202.75 250 149.125976562 214 138 c 0
 183.868164062 126.14453125 172 105.94140625 172 66 c 3
EndSplineSet
EndChar
StartChar: uni024A
Encoding: 586 586 1100
Width: 717
Flags: HW
LayerCount: 2
Fore
SplineSet
426 665 m 0
 262.329101562 665 130 563 130 384 c 0
 130 206.6015625 273 43 443 43 c 0
 504.78099045 43 554.14106919 47.4178673777 585.946128444 54.9273099482 c 1
 587.322463816 140.092841211 588.000976562 234.291462012 588.000976562 327.349609375 c 0
 588.000976562 432.137326696 583.2890625 596.561955921 573 638 c 1
 530.9453125 654.033203125 485.000976563 665 426 665 c 0
585.13671875 9.9453125 m 1
 537.3943428 -0.903991217266 482.910485664 -7 424 -7 c 0
 210 -7 37 148.774414062 37 343 c 0
 37 536.796875 212 706 422 706 c 0
 528.166325518 706 583.782965456 663.562606089 670 705 c 1
 688 682 l 1
 675.153856165 646.027959731 664.517578125 483.689479275 664.517578125 327.6484375 c 3
 664.517578125 167.363185227 661.319382952 -9.36498807149 665.547851562 -207.0078125 c 1
 699.704212887 -187.746508669 747.827659854 -137.514013906 804.559570312 -101.375976562 c 1
 826 -126 l 1
 732.048405308 -202.522383456 640.48425521 -290.483436485 619.721679688 -320.849609375 c 1
 579.16796875 -303.8984375 l 1
 588.129862726 -280.364045803 585.13671875 -103.843354299 585.13671875 9.9453125 c 1
EndSplineSet
EndChar
StartChar: uni025B
Encoding: 603 603 1117
Width: 358
Flags: HW
LayerCount: 2
Back
SplineSet
339.494668828 377.919362034 m 2
 339.511021995 377.9081816 l 1
 325.963668364 358.093017815 l 1
 298.568574354 376.822664985 256.060689945 393.004706147 217 393.004706147 c 0
 170.380513557 393.004706147 126.404765098 374.925993436 99.677237442 348.19846578 c 0
 81.194890925 329.716119263 70.995293853 307.798944502 70.995293853 284 c 0
 70.995293853 279.892606885 73.7839183737 269.886837045 85.4534933345 258.217262084 c 0
 97.5968574184 246.073898 118.958107283 232.395206593 151.857706668 222.004092866 c 1
 192.363030651 212.098481308 l 1
 212.395121756 214.467861682 235.990867828 215.697508217 264.045655197 215.947362819 c 1
 264.260985428 191.953027806 l 1
 235.776413248 191.699345561 212.313712013 190.401169303 193.120391821 188.01820328 c 2
 190.918452218 187.744819248 l 1
 188.766773019 188.271014233 l 1
 146.372070312 198.638674971 l 1
 146.372070312 178.082431199 l 1
 148.295314408 178.237910557 l 1
 148.295314408 178.237910557 147.979554882 178.159578325 147.340349307 178.11211831 c 0
 119.776049017 174.731849945 99.3876630426 162.848569601 84.283706934 147.744613316 c 0
 83.1737473779 146.63465376 82.0919511614 145.505992093 81.0381737757 144.36083799 c 2
 80.8670674006 144.174894383 l 1
 80.6878916888 143.995718671 l 2
 60.5631799348 123.871006917 51.995293853 97.6281886141 51.995293853 86 c 0
 51.995293853 71.219085688 57.7790702986 57.616973622 70.1965622276 45.199481693 c 0
 90.4592985916 24.936745329 129.56905145 8.99529385297 182 8.99529385297 c 0
 229.787889589 8.99529385297 280.305348267 32.0105066674 312.075542352 54.7711882128 c 1
 326.054578039 35.2587374973 l 1
 326.036352489 35.2456804179 l 2
 291.247067949 10.3220735778 237.136460947 -15 182 -15 c 0
 125.019883755 -15 79.616606362 1.83831206164 53.2259994792 28.2289189445 c 0
 37.0233996689 44.4315187548 28 64.3240119589 28 86 c 0
 28 105.867524397 39.0502951343 136.205256328 63.5380833806 160.786691965 c 0
 64.7618742458 162.111749588 66.0199764924 163.422009843 67.3131441855 164.715176065 c 0
 84.6506717927 182.052703672 108.229231987 196.102883814 138.591137036 201.0949632 c 1
 106.057975371 212.150599177 83.2355411316 226.494089414 68.482930586 241.246699335 c 0
 53.5783259065 256.151304015 47 271.280863922 47 284 c 0
 47 315.092724006 60.5802494775 343.042603313 82.7066746935 365.169028529 c 0
 114.667544192 397.129898027 164.405612411 417 217 417 c 0
 262.337555412 417 308.389153496 399.185772982 339.494668828 377.919362034 c 2
EndSplineSet
Fore
SplineSet
326 358 m 1
 291.943089431 378 259.577235772 392 219 392 c 3
 116.538461538 392 71 327.8 71 284 c 3
 71 253.431192661 101.146341463 219.743119266 277 216 c 1
 277 207.724137931 276 199.448275862 275 192 c 1
 72.7469879518 192 52 118.102564103 52 85 c 3
 52 44.4666666667 104.956521739 9 183 9 c 3
 233.089919145 9 288.347368421 35.5 322 62 c 1
 335 42 l 1
 301 15 242 -15 182 -15 c 3
 90 -15 28 29 28 86 c 3
 28 122.238938053 51.2887073595 183.681415929 152 203 c 1
 65 212.964705882 47 259.223529412 47 284 c 3
 47 360 128 417 217 417 c 3
 265 417 314 397 345 374 c 1
 344.666666667 366.421052632 344.333333333 366.98245614 326 358 c 1
EndSplineSet
Substitution2: "case-1" uni0190
EndChar
StartChar: uni0260
Encoding: 608 608 1121
Width: 463
Flags: HW
AnchorPoint: "Top" 252 465 basechar 0
AnchorPoint: "Bottom" 198 -15 basechar 0
LayerCount: 2
Fore
SplineSet
404 183 m 3
 404 75.7718062383 403 -43.371196161 403 -95 c 3
 403 -145 390.818956684 -175.880611215 377 -197 c 0
 354.752929688 -231 326.441437189 -252.377000749 287 -278 c 0
 249.55308107 -302.327267059 221.696296296 -319 171 -319 c 3
 132.719626168 -319 72.906542056 -304 43 -274 c 1
 44 -247 43 -247 92 -210 c 1
 129.556099398 -231.00036951 159.406908886 -259 196 -259 c 3
 219.176667204 -259 258.80566161 -259.641451465 274 -248 c 0
 302.595703125 -226.090820312 318.329158638 -185.990912222 325 -157 c 0
 332.3125 -125.220493621 338 -48.9492728157 338 143 c 3
 338 197.415039062 338 260.661132812 338 303 c 3
 338 309 333.484375679 324.52903977 328 332 c 0
 304.508713108 364.000446429 262.043565538 375 225 375 c 3
 158.117142229 375 106 299.475352894 106 216 c 3
 106 125.503180427 152.11702474 34 240 34 c 3
 302.38256392 34 331.098162287 62.9410351562 341 75 c 1
 344 32 l 1
 310.083053234 15.6001291583 257.666946766 -9 196 -9 c 3
 102.91900059 -9 32 89.5152715203 32 182 c 3
 32 310.45761565 143.218817718 419 275 419 c 3
 310.547277426 419 327.822997855 412.659118041 340 406.49609375 c 1
 340 435.7571875 341 487.389780267 341 511 c 3
 341 605.576271186 361.666449212 648.938384759 410 696 c 0
 448 733 536.484375 766.183908046 544 767 c 1
 565 767 599 739 599 712 c 3
 599 681 570 660 531 660 c 1
 522.882352941 693.75 505.294117647 700 485 700 c 3
 471.829268293 700 441.484739915 686.682705237 425 668 c 0
 410 651 411.110619241 589.997665195 410 540 c 0
 408.794013494 485.709107735 404 370.393588188 404 183 c 3
EndSplineSet
EndChar
StartChar: uni027E
Encoding: 638 638 1136
Width: 358
Flags: HW
AnchorPoint: "Top" 165.5 465 basechar 0
AnchorPoint: "Bottom" 145 -15 basechar 0
LayerCount: 2
Fore
SplineSet
160 352 m 0
 198 389 286.484375 422.183908046 294 423 c 1
 315 423 349 395 349 368 c 3
 349 337 320 316 281 316 c 1
 272.882352941 349.75 255.294117647 356 235 356 c 3
 221.829268293 356 188.816323543 344.734013813 175 324 c 0
 160 307 160 218.432989691 160 196 c 0
 160 157 161.185553521 61.3773357746 169 52 c 0
 179 40 189.018145158 36.3113659276 226 34 c 0
 242 33 260 33 274 32 c 1
 273 0 l 1
 234 1 162 4 120 4 c 3
 90 4 60 -1 30 -5 c 1
 28 28 l 1
 39 29 50 29 60 33 c 0
 70 37 84.7614449357 48.0180616964 87 76 c 0
 89 101 91 192 91 218 c 3
 91 261.152542373 119.735258602 312.794857059 160 352 c 0
EndSplineSet
EndChar
StartChar: uni028A
Encoding: 650 650 1140
Width: 475
Flags: HW
AnchorPoint: "Top" 244 465 basechar 0
AnchorPoint: "Horn" 438 333 basechar 0
AnchorPoint: "Ogonek" 395 -3 basechar 0
AnchorPoint: "Bottom" 237 -15 basechar 0
LayerCount: 2
Fore
SplineSet
306 404 m 1
 366 404 421 407 429 411 c 1
 427 389 429 367 435 350 c 1
 401 353 l 1
 395 354 389 354 382 355 c 1
 375 356 360 358 347 359 c 1
 349 289 435 273 435 165 c 3
 435 74 345 -6 237 -6 c 3
 128 -6 40 71 40 165 c 3
 40 272 130 295 135 359 c 1
 120 358 105.948869282 356.42126704 96 355 c 0
 89 354 82 354 80 354 c 1
 45 353 l 1
 50 376 52 392 50 411 c 1
 58 407 115 404 175 404 c 1
 168.254545455 266 122 297 122 177 c 3
 122 101 184.09352518 33 259 33 c 3
 312.9 33 357 78 357 140 c 3
 357 263 312.735849057 260 306 404 c 1
EndSplineSet
EndChar
StartChar: uni02B8
Encoding: 696 696 2955
Width: 278
Flags: HW
LayerCount: 2
Fore
SplineSet
97.08984375 204.469726562 m 1
 83.1961799888 204.461724638 84.2903264644 205.689453125 53.8896484375 205.689453125 c 0
 33.735249074 205.689453125 26.2076792924 204.609375 9.796875 204.069335938 c 1
 10.1968847578 211.267774113 11.5367285078 218.456645387 8.45703125 227.748046875 c 1
 54.0011095507 237.34415907 54.3863799587 248.058446977 109 346 c 1
 88.5575339564 412.787650323 50.2610908918 513.51077803 25.275390625 548.028320312 c 0
 22.1184966371 552.108272516 17.8625245262 553.810759895 12.4599609375 555.428710938 c 0
 8.90414073459 556.493602245 6.59689133583 557.230648842 2.158203125 558.184570312 c 1
 6.734375 583.040039062 l 1
 19.8170573756 580.880167872 38.7307736383 579 53 579 c 0
 72.7314893463 579 87.5816051359 580.339412733 104.981445312 583.552734375 c 1
 109.942382812 558.180664062 l 2
 109.945733664 558.160824777 95.7625368439 554.409896181 95.4716796875 554.34765625 c 0
 92.2560436591 553.659548843 90.692296697 551.463868054 91.345703125 547.442382812 c 0
 91.7331732601 545.057641306 92.2506498106 542.110968299 93.048828125 539.642578125 c 0
 99.6070647018 517.165781319 123.282647741 445.097278677 146.2734375 405.659179688 c 1
 165.71793654 440.472247737 189.850920845 498.901144093 202.345703125 534.758789062 c 0
 203.862326778 538.976355379 204.921875 544.799304348 204.921875 547.67578125 c 1
 202.817181781 550.988702699 194.90055859 553.131920996 176.006835938 556.842773438 c 1
 183.157226562 583.624023438 l 1
 194.67534713 581.430011384 214.512000089 579.086914062 223.05078125 579.086914062 c 0
 239.275900614 579.086914062 255.004998499 582.142673172 267.412109375 585.692382812 c 1
 272.869140625 559.720703125 l 1
 251.300219078 553.93622977 249.738017222 555.633433154 241.115234375 537.85546875 c 0
 219.732777049 492.868266227 174.068358347 410.990992925 138.658203125 338.370117188 c 0
 123.790695986 308.490500887 96.5652885 233.532303702 97.08984375 204.469726562 c 1
EndSplineSet
EndChar
StartChar: uni037F
Encoding: 895 895 1214
Width: 369
Flags: HW
AnchorPoint: "Top" 230 699 basechar 0
LayerCount: 2
Fore
SplineSet
276 225 m 3
 276 145.419921875 237.09375 92.5693359375 193 52 c 0
 160.90625 22.4716796875 129.948242188 0 81 0 c 3
 57.9716796875 0 21.990234375 11 4 33 c 1
 5.224609375 62.953125 4 62.953125 64 104 c 1
 92.1669921875 90.7138671875 109.030273438 73 142 73 c 3
 204.142578125 73 194.265625 168.251953125 194.265625 227.524414062 c 3
 194.265625 254.978515625 183.017289626 588.221679688 174 614 c 0
 166.305880248 650 110.252489862 647 52 652 c 1
 56 692 l 1
 172 677 238 680 361 692 c 1
 363 649 l 1
 311.37956543 647 277.402685547 657.016601562 274 616 c 0
 267.63170856 547.684343929 266.291015625 478.698329057 266.291015625 403.026367188 c 3
 266.291015625 347.991977069 276 289.421203124 276 225 c 3
EndSplineSet
EndChar
StartChar: Sigma
Encoding: 931 931 2674
Width: 626
Flags: HW
AnchorPoint: "Top" 310 699 basechar 0
AnchorPoint: "Bottom" 307 -15 basechar 0
LayerCount: 2
Fore
SplineSet
18 1 m 1
 11 21 l 1
 26 29 27 32 106 116 c 0
 177.104070391 191.60432801 248.117348418 268.93260601 319.001953125 346.299804688 c 1
 249.598562511 423.707625158 169 514 100.971679688 589.299804688 c 0
 73.8602464247 619.309154031 35 666 25 669 c 1
 28 690 l 1
 100.521055818 686.355725838 186.588460485 684.969176485 267.955928091 684.969176485 c 0
 409.86328558 684.969176485 537.47511282 689.186564497 554 693 c 1
 565.145145837 683.247997393 569.133414459 677.741599913 569.133414459 669.087387512 c 0
 569.133414459 652.893580795 555.168856119 625.677987617 548 539 c 1
 524 537 l 1
 529 609 545 664 542 665 c 1
 534 667 436 661 279.205078125 661.077148438 c 0
 204.585946533 661.11386359 131.34558838 662.311904535 66 664 c 1
 153 567 228 484 312 391 c 0
 325.025246584 376.579191282 338 361 345.703125 357.299804688 c 1
 345.703125 336.299804688 l 1
 339 333 332.097206533 324.911640362 313 304 c 0
 215.464970031 197.198124771 150 128 55 26 c 1
 164.444335938 26 275.373737098 25.7612934924 385 25 c 0
 529 24 537 24 543 27 c 0
 549 30 550 37 583 176 c 1
 606 170 l 1
 590 104 579 62 567 0 c 1
 418.446420524 -0.773710049693 287.995461185 2.4830933189 163.612260931 2.4830933189 c 0
 119.627247387 2.4830933189 72.4064380862 2.08995072445 18 1 c 1
EndSplineSet
Position2: "cpsp-1" dx=0 dy=0 dh=50 dv=100
Substitution2: "c2pc-1" sigma.pcap
Substitution2: "c2sc-1" sigma.smcp
EndChar
StartChar: Omega
Encoding: 937 937 2647
AltUni2: 002126.ffffffff.0
Width: 745
Flags: HW
AnchorPoint: "Top" 371 699 basechar 0
AnchorPoint: "Bottom" 367 -7 basechar 0
AnchorPoint: "Middle" 368.697 364.853 basechar 0
LayerCount: 2
Fore
SplineSet
292.000976562 0.7548828125 m 1
 192.34765625 0.5126953125 98.193359375 -2.896484375 85.6142578125 -10 c 1
 88.619140625 47.5083718902 86.46875 106.16796875 79 152 c 1
 103 155 l 1
 114 86.9326171875 107.936523438 24.2685546875 114 22 c 1
 120 20 212.001761887 25 266 24 c 1
 245 196 43 200.612560523 43 421 c 3
 43 573.154296875 193 706 373 706 c 3
 555.09375 706 702 577.790039062 702 421 c 3
 702 202.184801626 494.395438717 177.026566862 470 24 c 1
 529.061516391 24 611.922394467 19 620 24 c 0
 629.351011638 29.788232416 620 68 639 151 c 1
 663 147 l 1
 650.759367552 85.358369286 648.129806308 41.972534787 651.811523438 -10 c 1
 637.915039062 -3.697265625 542.920898438 0.025390625 442.990234375 0.6552734375 c 1
 453 197 678 206.997663564 678 421 c 3
 678 559.176353455 540.257701946 682 373 682 c 3
 203.800527344 682 67 557.549399038 67 421 c 3
 67 208.997641523 286 210 292.000976562 0.7548828125 c 1
EndSplineSet
Position2: "cpsp-1" dx=0 dy=0 dh=50 dv=100
Substitution2: "c2pc-1" omega.pcap
Substitution2: "c2sc-1" omega.smcp
EndChar
StartChar: uni03DA
Encoding: 986 986 1222
Width: 713
Flags: HMW
LayerCount: 2
Fore
SplineSet
23 185 m 3
 23 341.626953125 109.18359375 544.809570312 229.381835938 642 c 0
 274.8359375 678.75390625 313.884765625 689 421 689 c 3
 520.662109375 689 536.25 681 656 681 c 3
 684.099609375 681 697 686 697 713 c 1
 706 714 712 715 721 716 c 1
 725 698 730 689.384765625 730 671 c 3
 730 645.861328125 681 578 573 578 c 3
 504.970703125 578 413.025390625 594 334 594 c 3
 130.842773438 594 76 358.318359375 76 239 c 3
 76 129.291992188 130.985351562 107 165 107 c 3
 194.391601562 107 211.196289062 112 241 112 c 3
 365.547851562 112 383 -4.0146484375 383 -23 c 3
 383 -119.784179688 304.325195312 -195 255 -195 c 3
 222.63671875 -195 201.72265625 -166.583007812 193 -133 c 1
 212.384765625 -105.038085938 237.889648438 -94.6259765625 264.19140625 -94.6259765625 c 3
 277.934570312 -94.6259765625 291.958984375 -97.1376953125 305 -101 c 1
 341.95703125 -85.76953125 348 -69.708984375 348 -47 c 3
 348 -30.720703125 334.19140625 19 261 19 c 3
 219.373046875 19 187.1953125 10.6728515625 162 10.6728515625 c 3
 122.963867188 10.6728515625 86.95703125 26.2529296875 71 43.5361328125 c 0
 41.31640625 75.6875 23 117.723632812 23 185 c 3
EndSplineSet
Position2: "cpsp-1" dx=0 dy=0 dh=50 dv=100
EndChar
StartChar: uni03E2
Encoding: 994 994 1228
Width: 745
UnlinkRmOvrlpSave: 1
Flags: HW
LayerCount: 2
Fore
SplineSet
627 199 m 1
 663.470588235 216.083333333 683.529411765 222.916666667 720 240 c 1
 720 58.0729927007 657.726682562 -162 464 -162 c 3
 348.059561651 -162 286.476709355 -132 170 -132 c 3
 153.636083055 -132 132 -135.155495574 132 -165 c 3
 132 -177.281768469 141.747222222 -186.214285714 154 -192 c 1
 152 -206 150 -214 148 -228 c 1
 121.818181818 -220.210758377 84 -192.158853169 84 -155 c 3
 84 -90.1330250093 139.362038139 -51 195 -51 c 3
 335.185591271 -51 411.32967443 -78 552 -78 c 3
 668.610599394 -78 627.192086903 152.857942431 627 199 c 1
519 39 m 3
 578.717460938 39 627 106.096153846 627 199 c 0
 627 430.557239601 525.870850412 424.315235343 510.999023438 695.245117188 c 1
 591.33844198 695.487304688 667.244607882 698.896484375 677.385742188 706 c 1
 674.380859375 653.461487409 676.53125 599.871264411 686 558 c 1
 646 553 l 1
 646 585.268907563 643 611.183629007 599 617 c 1
 588.761597929 618.398830456 576.527951903 619.359507712 563.619140625 619.892578125 c 1
 567.228994471 483.613363015 720 450.890560628 720 240 c 0
 720 109.019586348 617.10591468 -9.86328125 492 -9.86328125 c 3
 393.219453367 -9.86328125 328 117.628256089 328 216 c 3
 328 278.337960811 335.6 320.666666667 344 373 c 1
 370.274509804 373 384.725490196 373 411 373 c 1
 419.666666667 320.666666667 427 279.030113727 427 216 c 3
 427 111.247911715 356.776724423 -10 230 -10 c 3
 118.751234802 -10 29 102.464878015 29 240 c 0
 29 449.414059326 189.905160501 494.546195695 198.216796875 619.943359375 c 1
 178.050518954 619.618191916 160.305545639 618.707412876 147 618 c 0
 117 615.657657658 114 584.036036036 109 553 c 1
 66 557 l 1
 80.4287109375 615.5006559 83.5283203125 656.67574724 79.1884765625 706 c 1
 90.4230705838 699.697265625 167.220955252 695.974609375 248.009765625 695.344726562 c 1
 233.072743833 431.796104637 130 490.656149958 130 260 c 0
 130 148.188718441 182.299527572 39.6884765625 248 39.6884765625 c 3
 325.80462195 39.6884765625 363.884615385 136.989009034 379 200 c 1
 390.313131313 137.133333333 419.994132714 39 519 39 c 3
EndSplineSet
EndChar
StartChar: afii10024
Encoding: 1046 1046 36
Width: 1061
Flags: HW
AnchorPoint: "Top" 533 699 basechar 0
AnchorPoint: "Bottom" 530 -15 basechar 0
LayerCount: 2
Fore
SplineSet
672.613197921 391.104788955 m 1
 778.318230619 322.259660144 832.833705603 127.003988055 939.84765625 49 c 0
 967.971679688 28.5 1006.453125 20.671875 1032 12 c 1
 1028.27636719 -12 l 1
 1018.40039062 -12 1004.75 -14 994.766601562 -14 c 0
 933.685546875 -14 867.783178324 8.30652205831 833.733398438 39 c 0
 724.793871843 137.201309015 698.122291683 278.42125853 610.550394376 326.168096987 c 1
 596.302162634 311.166847285 582.086743898 296.126402293 567.912575173 281.036681595 c 1
 568.360365457 209.853444366 569.882989171 139.340724752 572.46484375 71 c 0
 573.826120535 34.9675128464 596.931274485 29 653 28 c 1
 650.20703125 -5 l 1
 569.125 3.8 482.658203125 0.8 410.985351562 -7 c 1
 407.26171875 23 l 1
 457.739765637 36.2881355932 484.303254866 38.2236649836 486.828125 79 c 0
 489.732019575 125.897532051 492.514478034 206.01131228 493.277525756 278.774435015 c 1
 478.748822429 294.350140528 464.293050705 309.973532369 449.870360619 325.613501956 c 1
 363.81175583 276.349808656 342.709342092 128.755570384 227.266601562 39 c 0
 191.076171875 10.8623046875 127.315429688 -14 66.2333984375 -14 c 0
 56.2490234375 -14 42.599609375 -12 32.7236328125 -12 c 1
 29 12 l 1
 54.546875 20.671875 94.3484749768 26.8017272495 121.15234375 49 c 0
 223.400490261 133.679277595 282.558629669 323.658391878 389.10539251 391.611546402 c 1
 320.368964702 466.151902654 251.109977856 540.073869906 177.001953125 610 c 0
 150.749023438 634.771484375 126.737304688 646 88.5732421875 656 c 1
 96.9501953125 692 l 1
 160.247070312 678 235.643554688 676 295.216796875 683 c 1
 296.147460938 656 l 1
 261.70703125 650 242.158105084 643.999956492 243.08984375 621 c 0
 243.818359375 603.016601562 255.796871019 595.533917357 265.4296875 584 c 0
 339.432617188 495.392096297 417.155273438 415.704845815 493.482421875 331 c 1
 493.482421875 427.011952191 492.043613167 515.371619791 487.10546875 608 c 0
 484.801731018 651.212890625 462.925617901 652 410.985351562 657 c 1
 413.77734375 689 l 1
 487.3125 679 570.15625 676 644.622070312 688 c 1
 650.20703125 657 l 1
 589.202939031 645 574.641001458 644.00127374 572.741210938 589 c 0
 569.817718242 504.361288392 568.178484144 417.754189563 567.830222575 331.325195312 c 1
 644.052610805 415.907433688 717.038629319 499.625631501 795.5703125 584 c 0
 805.80859375 595 817.182480845 603.016567544 817.91015625 621 c 0
 818.840820312 644 799.29296875 650 764.852539062 656 c 1
 765.783203125 683 l 1
 825.356445312 676 900.752929688 678 964.049804688 692 c 1
 972.426757812 656 l 1
 934.262695312 646 909.004222703 636.028496912 883.998046875 610 c 0
 813.70505484 536.833237569 742.91111574 464.265221788 672.613197921 391.104788955 c 1
EndSplineSet
Position2: "cpsp-1" dx=0 dy=0 dh=50 dv=100
EndChar
StartChar: afii10066
Encoding: 1073 1073 76
Width: 444
Flags: HW
LayerCount: 2
Back
SplineSet
391.515103622 727.768889898 m 1
 412.372283954 715.886102888 l 1
 398.538866509 691.605091874 384.959586402 667.788893215 365.099007608 647.928314422 c 0
 343.256610938 626.085917751 314.131531679 610.003446732 271.658364249 604.116682966 c 0
 241.341132271 599.914726919 208.300411635 582.73933773 179.479105857 553.918031953 c 0
 176.920012425 551.358938521 174.393639969 548.708400052 171.905017389 545.96801889 c 0
 123.898627429 493.105118834 84.7124072113 407.035350349 70.6387126712 321.413810211 c 1
 78.6871232512 335.032519529 88.2769054005 347.237338436 99.0013594384 357.961792474 c 0
 136.612892215 395.57332525 187.757315236 414.999600051 235.766601562 414.999600051 c 0
 285.491700614 414.999600051 326.536968162 398.532809795 356.097742818 368.97203514 c 0
 391.471749255 333.598028702 409.413662551 280.910274651 409.413662551 218.844726562 c 0
 409.413662551 150.507235192 385.743988734 85.3907370082 342.434028564 42.0807768383 c 0
 310.972810959 10.6195592334 269.08383436 -8.99960005149 219.692382812 -8.99960005149 c 0
 171.80019134 -8.99960005149 133.979694836 6.75570271377 106.183050967 34.5523465834 c 0
 57.9346791929 82.8007183572 41.044921875 163.860622911 41.044921875 255.677734375 c 0
 41.044921875 366.802885325 88.8908818548 490.255766412 154.126232611 562.09057486 c 0
 156.874135435 565.116466048 159.669599925 568.049651517 162.508543109 570.888594701 c 0
 194.375986104 602.756037697 231.655600311 622.798647412 268.341635751 627.883317034 c 0
 306.333651037 633.148994932 329.812322896 646.582755206 348.12844486 664.89887717 c 0
 364.955814647 681.726246958 377.677378573 703.480317993 391.515103622 727.768889898 c 1
401.942382812 721.825195312 m 1
 372.965182682 670.963163693 346.988211168 626.670534819 270 616 c 1024
66.4815208281 212.882992497 m 1
 71.4145685577 142.683333582 89.2224119403 85.4541111067 123.153613715 51.5229093319 c 0
 146.252658662 28.4238643849 177.192866342 14.9956938015 219.692382812 14.9956938015 c 0
 262.459020296 14.9956938015 298.058114549 31.6459883203 325.463465815 59.0513395868 c 0
 363.323366386 96.9112401572 385.418368699 155.928646725 385.418368699 218.844726562 c 0
 385.418368699 276.428790149 368.741841957 322.386810503 339.127180069 352.001472391 c 0
 314.452452611 376.676199849 280.110769706 391.004306199 235.766601562 391.004306199 c 0
 194.164894478 391.004306199 148.788253467 373.807561005 115.971922187 340.991229725 c 0
 90.9815679584 316.000875497 73.0296226279 281.966277086 68.9437339881 238.859646138 c 2
 66.4815208281 212.882992497 l 1
EndSplineSet
Fore
SplineSet
413 719 m 1
 382 653 337.584031297 612.896830924 273 604 c 0
 149.593301435 587 65 390.062021855 65 256 c 3
 65 86.8107568431 125.655764345 15 220 15 c 3
 298.974344179 15 385 84.3424424575 385 219 c 3
 385 301.068100973 348.235549852 391 232 391 c 3
 167.793487826 391 61 340 67 199 c 1
 64.7777777778 202.8125 48.1111111112 256.611111111 47 260 c 1
 65.0770058056 355.281553398 152.195918533 415 231.766601562 415 c 3
 352.081485362 415 409.4140625 331.317191389 409.4140625 218.844726562 c 3
 409.4140625 106.980447616 342.715300771 -9 219.692382812 -9 c 3
 93.0252903674 -9 41.044921875 102.15306394 41.044921875 255.677734375 c 3
 41.044921875 419.232471153 139 612 274 629 c 0
 332.269938916 636.337696012 369 678 396 739 c 1
 413 719 l 1
EndSplineSet
EndChar
StartChar: afii10073
Encoding: 1079 1079 83
Width: 358
Flags: HW
AnchorPoint: "Bottom" 172 -15 basechar 0
AnchorPoint: "Top" 185 465 basechar 0
LayerCount: 2
Back
SplineSet
35 50 m 5xe8
 70.6483549882 30 104.526631715 16 147 16 c 3
 257.076923077 16 306 84.3611111111 306 131 c 7xe8
 306 166.513761468 274.097560976 205.651376147 88 210 c 1
 88 218.275862069 89 226.551724138 90 234 c 1
 265.95105084 234 284 300.991133477 284 331 c 3
 284 367.266666667 243.170925987 399 183 399 c 3
 135.792953899 399 83.7157894737 372.5 52 346 c 1
 39 366 l 1
 71.2222222222 393 127.137254902 423 184 423 c 3
 258.077922078 423 308 382.485148515 308 330 c 7xf0
 308 296.85840708 290.157845168 240.667423039 213 223 c 1
 309.942857143 211.682062455 330 159.141176471 330 131 c 3
 330 51 243.758823529 -9 149 -9 c 3
 99.125 -9 48.2109375 11 16 34 c 1
 16.3333333333 41.5789473684 16.6666666667 41.0175438596 35 50 c 5xe8
EndSplineSet
Fore
SplineSet
184 423 m 3
 258.077922078 423 308 382.485148515 308 330 c 3
 308 297.168141593 289.5944087 241.502306936 210 224 c 1
 309.428571429 212.559041394 330 159.447058824 330 131 c 3
 330 51 243.758823529 -9 149 -9 c 3
 99.125 -9 48.2109375 11 16 34 c 1
 16.3333333333 41.5789473684 16.6666666667 41.0175438596 35 50 c 1
 70.6483549882 30 104.526631715 16 147 16 c 3
 257.076923077 16 306 84.3611111111 306 131 c 3
 306 166.513761468 274.097560976 205.651376147 88 210 c 1
 88 218.275862069 89 226.551724138 90 234 c 1
 265.95105084 234 284 300.991133477 284 331 c 3
 284 367.266666667 243.170925987 399 183 399 c 3
 138.675826943 399 89.7789473684 374.5 60 350 c 1
 42 355 l 1
 50 374 l 1
 84.9338240043 399.585966186 134.12411428 423 184 423 c 3
EndSplineSet
EndChar
StartChar: afii10077
Encoding: 1083 1083 87
Width: 510
Flags: HW
LayerCount: 2
Fore
SplineSet
478.600585938 409.400390625 m 1
 480 373.299804688 l 1
 451.116210938 371.900390625 433.6875 378.76171875 430.200195312 350.200195312 c 0
 422.5 286.265625 419.5078125 189.5859375 424.600585938 52.2001953125 c 0
 425.626953125 24.900390625 452.30078125 28.400390625 480 27 c 1
 479.30078125 -6.2998046875 l 1
 417.465820312 1.400390625 342.163085938 2.7998046875 288.900390625 -7 c 1
 285.400390625 27 l 1
 317.266601562 27 347.534179688 30.9541015625 348.600585938 59.900390625 c 0
 351.635742188 143.43359375 354.592773438 236.385742188 347.200195312 348.799804688 c 0
 346.5 359.299804688 336.830078125 369.099609375 329.700195312 369.099609375 c 3
 298.989257812 369.099609375 273.579101562 370.952148438 239.5 364.900390625 c 0
 228.904296875 362.171875 215.012695312 351.827148438 212.875 333.400390625 c 0
 208.411132812 294.002929688 196.546875 217.629882812 191.200195312 161 c 0
 185.969726562 106.883789062 173.130859375 56.2734375 145 30.099609375 c 0
 120.99609375 8.8359375 98.0498046875 -6.2998046875 61.6005859375 -6.2998046875 c 3
 45.48046875 -6.2998046875 20.2939453125 1.400390625 7.7001953125 16.7998046875 c 1
 8.5576171875 51.6044921875 7.7001953125 51.6044921875 49.7001953125 99.2998046875 c 1
 69.4169921875 90 81.2216796875 77.599609375 104.30078125 77.599609375 c 3
 137.663085938 77.599609375 149.865234375 123.19921875 156.286132812 157.166992188 c 0
 170.236328125 260.415039062 179.561523438 379.056640625 179.900390625 410.799804688 c 1
 198.883789062 406.75 217.048828125 404.918945312 235.200195312 404.5 c 0
 275.091796875 403.799804688 356.607421875 403.470703125 368.354492188 403.470703125 c 3
 395.3984375 403.470703125 400.440429688 403.299804688 478.600585938 409.400390625 c 1
EndSplineSet
EndChar
StartChar: afii10085
Encoding: 1091 1091 95
Width: 446
Flags: HW
DStem2: 265 97 58 -243 0.447214 0.894427<-14.7689 152.969>
AnchorPoint: "Top" 232.5 465 basechar 0
AnchorPoint: "Bottom" 291 -15 basechar 0
LayerCount: 2
Back
SplineSet
-59.1624447525 -296.597739585 m 1
 -39.874436599 -282.311232042 l 1
 -39.8602876708 -282.330334306 l 2
 -38.4005623315 -284.301088471 -36.7559136163 -286.196890781 -34.9538042629 -287.999000135 c 0
 -22.2328074575 -300.71999694 -0.36813679928 -308.004706147 10.34375 -308.004706147 c 0
 24.9510606234 -308.004706147 39.5741690087 -300.395044852 54.4276141136 -285.541599747 c 0
 87.1831007743 -252.786113086 116.034503028 -188.447811976 140.302890604 -133.196756337 c 0
 142.923779774 -127.229862454 145.498497813 -121.368010673 148.031051434 -115.659447965 c 0
 165.101708108 -77.1809283968 184.104061319 -38.2450468985 203.605246999 -1.11993983036 c 1
 224.856481606 -12.2828509901 l 1
 205.580750374 -48.978752332 186.796007799 -87.4731228318 169.966995441 -125.406958285 c 0
 167.458816131 -131.060579495 164.895160315 -136.89709782 162.274295012 -142.863937363 c 0
 138.007671119 -198.110977682 109.460749727 -264.44958963 71.3981768621 -302.512162495 c 0
 54.1115697892 -319.798769568 33.8305557364 -332 10.34375 -332 c 0
 -7.75656623714 -332 -33.7933824885 -323.100547406 -51.9243670114 -304.969562883 c 0
 -54.5281785906 -302.365751304 -56.9562403179 -299.57630443 -59.1624447525 -296.597739585 c 1
EndSplineSet
Fore
SplineSet
198 -11 m 1
 154 117 81.4863966038 313.218196503 63 354 c 0
 53.0227219246 376.010313996 53.0577818805 376.449292556 47 377 c 0
 36 378 22 379 10 382 c 1
 14 406 l 1
 30 402 56 400 72 400 c 3
 102 400 127 401 155 407 c 1
 159 383 l 1
 140 380 108 376 89 376 c 0
 83 376 83 375 83 373 c 3
 83 368 86.9264461573 359.972030279 90 352 c 0
 122 269 170 144 213 20 c 1
 262 124 310.322588859 242.645177717 361 344 c 0
 365 352 369 368 369 372 c 3
 369 380 359 372 283 388 c 1
 289 411 l 1
 321 404 365 400 383 400 c 3
 399 400 416 402 429 408 c 1
 434 384 l 1
 394 373 398.814508766 373.07578829 385 339 c 0
 370 302 291.769850707 139.114854112 225 -11 c 0
 154.347254618 -169.844545155 101.876864958 -332 10.34375 -332 c 3
 -11.189453125 -332 -44.833984375 -319 -61.65625 -293 c 1
 -61.316293335 -285.40625 -61.65625 -285.40625 -45 -275 c 1
 -37.77765625 -289.144068669 -12.6709375 -308 11 -308 c 3
 76 -308 129 -176 198 -11 c 1
EndSplineSet
EndChar
StartChar: afii10101
Encoding: 1108 1108 111
Width: 421
UnlinkRmOvrlpSave: 1
Flags: HW
LayerCount: 2
Fore
SplineSet
55 210.046875 m 1
 138.296231571 212.963138013 266.985631881 216.652379865 319 218 c 1
 320 194 l 1
 296.780754555 193.406956577 257.995151706 191.962195737 218 190.745117188 c 0
 154.013207092 188.79795735 103.196867159 187.468231753 54 186.49609375 c 1
 55 210.046875 l 1
EndSplineSet
Refer: 231 99 N 1 0 0 1 0 0 2
EndChar
StartChar: afii57683
Encoding: 1507 1507 149
Width: 482
Flags: HW
AnchorPoint: "HbMiddle" 285 284 basechar 0
AnchorPoint: "HbTopLeft" 128.68 619.44 basechar 0
AnchorPoint: "HbBottom" 241 0 basechar 0
AnchorPoint: "HbTop" 254 619.44 basechar 0
LayerCount: 2
Fore
SplineSet
122 286 m 1
 72.7197265625 250.400390625 l 1
 62.16015625 268.080078125 l 1
 106.240234375 306.879882812 l 1
 122 286 l 1
173.48046875 554 m 1
 93 431 94 448 120 299 c 1
 114.83984375 305.200195312 l 1
 139.670841237 300.741964767 173.08739276 294.516223902 212.48046875 287.959960938 c 1
 207.919921875 264.559570312 l 1
 99 283 l 1
 87.7452410697 334.879527723 77.5137986563 386.760120712 79.5595703125 438.639648438 c 1
 101.565736525 495.378783019 127.972765457 529.116298469 153.280273438 565.919921875 c 1
 173.48046875 554 l 1
381.280273438 519.6796875 m 0
 423.040039062 481.400390625 432.110351562 191.752929688 432.110351562 9.8701171875 c 3
 432.110351562 -82.6509933086 431.071289062 -167.845508151 428.83984375 -227.3203125 c 1
 426.639255672 -233.166723292 424.316395547 -239.013134084 422.360351562 -244.080078125 c 1
 405.360351562 -233.16015625 l 1
 406.430669398 -147.272143789 408 -58.4449677473 408 10 c 3
 408 164.649800927 388.944742616 474.94690579 364.48828125 500.455078125 c 0
 325.989059989 538.632429856 219.172011413 550.358083155 143.599609375 553.280273438 c 1
 125.440429688 596.240234375 l 1
 144.759765625 600.879882812 l 1
 159.83984375 576.51953125 l 1
 239.517153587 572.64453125 340.059516839 557.464899072 381.280273438 519.6796875 c 0
EndSplineSet
EndChar
StartChar: afii57685
Encoding: 1509 1509 151
Width: 471
Flags: HW
AnchorPoint: "HbTopLeft" 45.68 619.44 basechar 0
AnchorPoint: "HbTop" 235 619.44 basechar 0
LayerCount: 2
Fore
SplineSet
163.16015625 506.83984375 m 1
 168.773728464 499.2265625 175.089106317 491.612304688 180 484 c 1
 173.56640625 461.825195312 164.73828125 440.112304688 160.3203125 418.400390625 c 1
 173.568359375 194.1484375 166.96875 -82.1201171875 158 -222 c 1
 157 -229 153 -238 148.759765625 -245.080078125 c 1
 133.759765625 -232 l 1
 146.860351562 4.419921875 148.959960938 232.688476563 134.959960938 414.080078125 c 1
 142.772460938 447.473632812 152.34765625 477.15625 163.16015625 506.83984375 c 1
29.4404296875 590.440429688 m 1
 36.2133304755 588.453497292 42.986864837 586.466564896 49.759765625 584.48046875 c 1
 54.400390625 577.51953125 61.3603515625 570.559570312 66 564.759765625 c 1
 118.490284108 553.993307337 157.073242188 542.329101562 189.879882812 512.719726562 c 1
 180 484 l 1
 174.333624589 484 168.667249178 484 163 504 c 1
 112 532 94 531.315789474 52 541 c 1
 45 548.56 34 558.28 26 568 c 1
 22.559833604 571.610068064 25.6872097292 582.025248876 29.4404296875 590.440429688 c 1
157 158 m 1
 218.159090364 244.540774185 310.01953125 379.879882812 321 540 c 1
 320.83984375 596.240234375 l 1
 337.16015625 598.559570312 l 1
 346.08984375 543.149414062 354 570 449.400390625 533.440429688 c 1
 448.680664062 519.919921875 l 1
 435 513 l 1
 399.333333332 525.64267589 378.666992188 533.274414062 343 539 c 1
 338.217773438 376.29504039 224 196.344660194 159 125 c 1
 157 158 l 1
EndSplineSet
EndChar
StartChar: afii57686
Encoding: 1510 1510 152
Width: 476
Flags: HW
AnchorPoint: "HbTopLeft" 46.68 619.44 basechar 0
AnchorPoint: "HbBottom" 235 0 basechar 0
AnchorPoint: "HbTop" 234 619.44 basechar 0
LayerCount: 2
Fore
SplineSet
202 226 m 1
 267.98019802 310 336.653465347 373 338 556 c 1
 337.83984375 596.240234375 l 1
 361.16015625 598.559570312 l 1
 361.831004072 571 362.629781013 570 460.400390625 539.440429688 c 1
 458 524 l 1
 447 518 l 1
 418.666666667 527.588693566 390.333333333 533.410783873 362 550 c 1
 362 376 283.11360644 284 223.16015625 217.959960938 c 1
 202 226 l 1
39.4404296875 590.440429688 m 1
 47.8799451741 588.453497292 56.3202501384 586.466564896 64.759765625 584.48046875 c 1
 69.400390625 577.51953125 76.3603515625 570.559570312 81 564.759765625 c 1
 121.471141533 553.993307337 188.080078125 531.011653428 188.080078125 512.719726562 c 3
 188.080078125 467.595823242 144 374.160255681 144 346 c 3
 144 291 256.502640753 187.901951684 316 136 c 0
 410 54 440 38 440 28 c 3
 440 16.6609622126 430 0 430 0 c 1
 81.7998046875 1.16015625 l 1
 32.599609375 -23.2001953125 l 1
 17.400390625 -11.080078125 l 1
 76 25 l 1
 131.688304073 25 185.195393141 25 414 24 c 1
 262.500939616 142.986345219 120.3203125 263.583744214 120.3203125 345.83984375 c 3
 120.3203125 387.49597233 158.304031436 466 164 506 c 1
 136.554677755 522 76.174968815 542 56.568359375 545.90625 c 1
 41 564 40 573 39.4404296875 590.440429688 c 1
EndSplineSet
EndChar
StartChar: uni1FBF
Encoding: 8127 8127 2010
Width: 198
Flags: HW
AnchorPoint: "Top" 142.637 465 mark 0
LayerCount: 2
Fore
SplineSet
107.836914062 494 m 1
 106.836914062 516 l 1
 152.775100082 516 202 538.036215023 202 589 c 3
 202 652.083692718 146.221008062 663.332007315 138 665 c 0
 134.566586279 665.696618824 133.399414062 669.800130208 133.399414062 673 c 3
 133.399414062 675.953795298 134.303951683 677.488138779 136 679.400390625 c 0
 136.842142265 680.118278835 138.56399942 683.729555082 139 685.599609375 c 0
 139.435390111 688.069519898 142.543123209 689.799804688 145.200195312 689.799804688 c 3
 148.71436045 689.799804688 151.611963208 687.277355536 153.400390625 686.599609375 c 0
 165.682796254 681.94504348 225.836914062 661.912266853 225.836914062 592 c 3
 225.836914062 513.774130271 160.515485491 494 107.836914062 494 c 1
EndSplineSet
EndChar
StartChar: uni2053
Encoding: 8275 8275 2101
Width: 461
Flags: HW
LayerCount: 2
Fore
SplineSet
18.1337890625 197.353515625 m 1
 59.5590081072 246.757108202 133.882304415 292.837890625 146.349609375 292.837890625 c 3
 189.277483219 292.837890625 291 205 322 205 c 3
 336.240508117 205 390 255 423.108398438 295.82421875 c 1
 443 282.5390625 l 1
 406.907131961 236.137354023 340.203171967 180.052734375 322.063476562 180.052734375 c 3
 283.307059842 180.052734375 180 268 148 268 c 3
 132.739352008 268 63.723638915 215.678818528 37 183 c 1
 18.1337890625 197.353515625 l 1
EndSplineSet
EndChar
StartChar: uni207F
Encoding: 8319 8319 2120
Width: 318
Flags: HW
LayerCount: 2
Fore
SplineSet
62 582 m 0
 57 596 54 593 46 593 c 1
 42 593 39 593 34 593 c 1
 31 620 l 1
 58 625 75 625 107 653 c 1
 127 640 l 1
 123 632 122 611 122 598 c 1
 145 619 170 644 200 644 c 3
 240 644 262 623 262 587 c 3
 262 569 262 545 262 526 c 1
 262 502 261 478 263 471 c 0
 264 465 269 463 274 463 c 1
 277 462 287 461 290 460 c 1
 285 429 l 1
 265 433 255 435 234 435 c 1
 218 435 198 432 185 429 c 1
 181 459 l 1
 184 460 190 460 193 461 c 1
 200 463 204 470 207 487 c 1
 208 498 211 521 211 530 c 1
 211 544 209 569 207 575 c 1
 205 588 200 598 182 598 c 3
 159 598 139 587 124 574 c 1
 123 542 119 494 118 480 c 1
 117 464 124 464 134 461 c 1
 137 461 143 460 146 460 c 1
 142 430 l 1
 122 433 109 435 87 435 c 1
 69 435 49 432 31 430 c 1
 28 460 l 1
 33 461 35 461 40 462 c 0
 55 465 60 470 64 485 c 1
 69 497 70 522 70 536 c 1
 70 544 67 575 62 582 c 0
EndSplineSet
EndChar
StartChar: prescription
Encoding: 8478 8478 672
Width: 763
UnlinkRmOvrlpSave: 1
Flags: HW
LayerCount: 2
Fore
SplineSet
367 -22 m 1
 436.543945312 50.3369140625 601.98046875 225.891601562 668 298 c 1
 684 280 l 1
 628 221 501.30859375 84.103515625 384 -41 c 1
 367 -22 l 1
EndSplineSet
Refer: 2662 82 N 1 0 0 1 0 0 2
EndChar
StartChar: uni2123
Encoding: 8483 8483 2135
Width: 853
UnlinkRmOvrlpSave: 1
Flags: HW
LayerCount: 2
Fore
SplineSet
241 -86 m 1
 322 103 491.190429688 513.661132812 505 540 c 1
 410 572 l 1
 409.25 579.228515625 413.3828125 588.841796875 416 596 c 1
 463.190429688 579.23046875 489.809570312 569.76953125 537 553 c 1
 497 475 296.146484375 -19.3583984375 261 -97 c 1
 241 -86 l 1
EndSplineSet
Refer: 2710 86 N 1 0 0 1 0 0 2
EndChar
StartChar: infinity
Encoding: 8734 8734 468
Width: 710
UnlinkRmOvrlpSave: 1
Flags: HW
LayerCount: 2
Fore
SplineSet
173 93 m 3
 310 93 385.999586154 362.348632812 532.84765625 362.348632812 c 3
 613.139538337 362.348632812 666.904296875 296.315429688 666.904296875 219.224609375 c 3
 666.904296875 134.610016724 611.80859375 65.2119140625 528.635742188 65.2119140625 c 3
 379.999848934 65.2119140625 322 342 182 342 c 3
 108.564162613 342 67 287.131029318 67 218 c 3
 67 149.229926513 107.943170236 93 173 93 c 3
42.8671875 217.883789062 m 3
 42.8671875 301.290177841 97.205078125 365.767578125 180.959960938 365.767578125 c 3
 342.000167722 365.767578125 393.996296347 89 529 89 c 3
 599.433960411 89 643 150.280152738 643 219 c 3
 643 286.941148442 598.290352032 338 533 338 c 3
 401 338 329.001245446 69.3759765625 172.668945312 69.3759765625 c 3
 93.013671875 69.3759765625 42.8671875 137.7734375 42.8671875 217.883789062 c 3
EndSplineSet
EndChar
StartChar: intersection
Encoding: 8745 8745 470
Width: 580
Flags: HW
LayerCount: 2
Fore
SplineSet
50 0 m 1
 50 388 l 2
 50 548.942913546 102.67506885 697.323242188 290.278320312 697.323242188 c 3
 477.053145259 697.323242188 530 549.959043632 530 390 c 2
 530 0 l 1
 506 0 l 1
 506 390 l 2
 506 537.60630019 458.392499367 673.079101562 290.559570312 673.079101562 c 3
 119.772165663 673.079101562 72 536.073893226 72 388 c 2
 72 0 l 1
 50 0 l 1
EndSplineSet
EndChar
StartChar: uni2649
Encoding: 9801 9801 2190
Width: 557
Flags: HW
LayerCount: 2
Fore
SplineSet
282.765625 -4.705078125 m 0
 347.848632812 5.7958984375 418.40625 40.9765625 438.97265625 108.334960938 c 0
 448.54296875 136.208984375 453.629882812 165.708984375 453.629882812 195.135742188 c 0
 453.629882812 226.907226562 447.702148438 258.590820312 435.088867188 288.057617188 c 0
 422.27734375 323.671875 395.140625 353.321289062 359.475585938 366.875 c 0
 336.848632812 377.495117188 311.498046875 383.202148438 286.336914062 383.202148438 c 0
 251.370117188 383.202148438 216.770507812 372.181640625 190.362304688 348.015625 c 0
 148.728515625 313.5234375 111.9765625 265.485351562 111.298828125 209.163085938 c 0
 111.206054688 205.90234375 111.159179688 202.650390625 111.159179688 199.411132812 c 0
 111.159179688 140.150390625 126.883789062 84.501953125 168.959960938 38.720703125 c 0
 193.520507812 13.3994140625 223.39453125 -3.95703125 256.959960938 -7.919921875 c 0
 257.971679688 -7.953125 258.984375 -7.970703125 259.997070312 -7.970703125 c 0
 267.694335938 -7.970703125 275.404296875 -6.9775390625 282.765625 -4.705078125 c 0
250.977539062 -46.73046875 m 1
 195.047851562 -36.9453125 138.294921875 -15.4833984375 100.46484375 28.7314453125 c 1
 66.470703125 61.6533203125 40.2470703125 103.131835938 31.373046875 150.063476562 c 0
 28.376953125 163.099609375 26.982421875 176.2578125 26.982421875 189.3828125 c 0
 26.982421875 241.536132812 49.00390625 293.157226562 80.1240234375 334.444335938 c 0
 105.48828125 363.751953125 138.658203125 385.236328125 172.442382812 403.631835938 c 1
 135.317382812 419.102539062 98.623046875 441.471679688 79.6865234375 478.444335938 c 0
 70.2607421875 494.1953125 55.7001953125 520.217773438 55.7001953125 541.3984375 c 0
 55.7001953125 551.549804688 59.0458984375 560.58984375 67.9033203125 566.853515625 c 1
 78.728515625 561.185546875 89.65625 558.514648438 100.42578125 558.514648438 c 0
 106.005859375 558.514648438 111.543945312 559.23046875 117.002929688 560.620117188 c 1
 134.801757812 539.815429688 126.375976562 506.181640625 147.448242188 485.620117188 c 1
 170.502929688 455.426757812 205.548828125 433.702148438 242.662109375 426.080078125 c 1
 257.139648438 424.548828125 272.301757812 422.930664062 287.3203125 422.930664062 c 0
 308.965820312 422.930664062 330.3203125 426.291992188 348.923828125 438.114257812 c 0
 385.596679688 459.33203125 415.413085938 497.952148438 415.333984375 541.719726562 c 0
 415.692382812 557.8828125 423.254882812 561.494140625 433.348632812 561.494140625 c 0
 441.506835938 561.494140625 451.318359375 559.134765625 460.315429688 559.134765625 c 0
 465.092773438 559.134765625 469.640625 559.799804688 473.58984375 561.8359375 c 1
 483.369140625 559.263671875 486.809570312 552.3125 486.809570312 543.595703125 c 0
 486.809570312 527.408203125 474.948242188 505.135742188 469.791015625 493.500976562 c 0
 450.287109375 460.915039062 422.786132812 433.353515625 391.84375 411.641601562 c 1
 391.157226562 409.990234375 390.83984375 408.467773438 390.83984375 407.046875 c 0
 390.83984375 391.84375 427.27734375 388.813476562 436.114257812 374.043945312 c 1
 489.999023438 334.008789062 528.053710938 270.518554688 528.301757812 202.329101562 c 1
 529.09765625 193.456054688 529.526367188 184.4765625 529.526367188 175.4765625 c 0
 529.526367188 130.784179688 518.935546875 85.6025390625 490.061523438 50.46875 c 1
 461.174804688 10.55078125 420.119140625 -21.7451171875 371.3359375 -32.6044921875 c 0
 340.24609375 -41.8583984375 307.83984375 -47.9111328125 275.34765625 -47.9111328125 c 0
 267.224609375 -47.9111328125 259.09375 -47.533203125 250.977539062 -46.73046875 c 1
EndSplineSet
EndChar
StartChar: uni264D
Encoding: 9805 9805 2194
Width: 708
Flags: HW
LayerCount: 2
Fore
SplineSet
571.615234375 50.5029296875 m 0
 597.2734375 80.58984375 606.284179688 119.994140625 606.284179688 159.21875 c 0
 606.284179688 175.540039062 604.724609375 191.829101562 602.153320312 207.40234375 c 0
 595.46484375 241.970703125 589.280273438 278.559570312 569.490234375 308.318359375 c 1
 549.7890625 304.908203125 516.840820312 291.380859375 516.840820312 266.28515625 c 0
 516.840820312 263.583984375 517.221679688 260.751953125 518.041992188 257.783203125 c 1
 521.944335938 186.9765625 522.711914062 113.771484375 548.897460938 46.8427734375 c 1
 550.165039062 40.1796875 552.348632812 37.80859375 554.970703125 37.80859375 c 0
 560.01953125 37.80859375 566.698242188 46.59765625 571.615234375 50.5029296875 c 0
387.3671875 -186.30078125 m 1
 386.159179688 -181.196289062 385.624023438 -176.081054688 385.624023438 -170.96484375 c 0
 385.624023438 -143.909179688 400.602539062 -116.91015625 410.171875 -92.0888671875 c 1
 428.388671875 -57.02734375 463.606445312 -35.46484375 492.529296875 -10.4482421875 c 1
 470.014648438 29.1083984375 442.122070312 68.15234375 438.15234375 115.030273438 c 1
 427.182617188 177.661132812 428.471679688 241.388671875 424.651367188 304.5859375 c 1
 422.256835938 320.452148438 413.811523438 326.563476562 403.522460938 326.563476562 c 0
 384.358398438 326.563476562 358.799804688 305.372070312 354.015625 286.549804688 c 1
 333.692382812 244.5 340.918945312 196.192382812 337.848632812 150.989257812 c 0
 337.454101562 137.967773438 337.287109375 124.943359375 337.287109375 111.919921875 c 0
 337.287109375 76.9326171875 338.487304688 41.9482421875 339.6796875 7.0400390625 c 1
 337.145507812 1.9140625 333.118164062 0.1845703125 328.204101562 0.1845703125 c 0
 318.024414062 0.1845703125 304.034179688 7.5986328125 291.59765625 7.5986328125 c 0
 286.229492188 7.5986328125 281.149414062 6.216796875 276.79296875 2.259765625 c 1
 272.317382812 0.494140625 268.670898438 -0.306640625 265.717773438 -0.306640625 c 0
 256.940429688 -0.306640625 254.301757812 6.7607421875 254.301757812 16.51171875 c 0
 254.301757812 32.4912109375 261.388671875 55.6787109375 260.165039062 66.79296875 c 1
 261.94921875 100.370117188 263.225585938 134.115234375 263.225585938 167.84375 c 0
 263.225585938 213.630859375 260.874023438 259.385742188 254.255859375 304.645507812 c 0
 251.67578125 316.791992188 245.21484375 321.307617188 237.307617188 321.307617188 c 0
 221.823242188 321.307617188 200.79296875 303.99609375 192.501953125 292.795898438 c 1
 156.859375 259.291015625 153.94921875 206.634765625 149.3984375 160.924804688 c 0
 148.336914062 141.2421875 147.397460938 121.383789062 147.397460938 101.549804688 c 0
 147.397460938 70.5546875 149.690429688 39.626953125 157.384765625 9.5458984375 c 1
 148.864257812 -3.0830078125 128.944335938 -5.7607421875 109.830078125 -5.7607421875 c 0
 99.1953125 -5.7607421875 88.8095703125 -4.931640625 80.77734375 -4.5263671875 c 1
 78.3125 4.5693359375 77.4521484375 13.8505859375 77.4521484375 23.224609375 c 0
 77.4521484375 44.0205078125 81.6904296875 65.2705078125 82.072265625 85.955078125 c 0
 84.65625 120.836914062 86.150390625 155.84765625 86.150390625 190.841796875 c 0
 86.150390625 234.969726562 83.7744140625 279.071289062 78.203125 322.862304688 c 1
 76.41796875 323.774414062 74.6298828125 324.188476562 72.8388671875 324.188476562 c 0
 55.30078125 324.188476562 37.4130859375 284.522460938 18.615234375 284.522460938 c 0
 16.2177734375 284.522460938 13.8046875 285.169921875 11.3759765625 286.624023438 c 1
 12.115234375 323.168945312 55.0625 341.171875 79.1826171875 363.3671875 c 0
 86.84765625 370.43359375 95.91015625 373.50390625 105.04296875 373.50390625 c 0
 123.0703125 373.50390625 141.3671875 361.54296875 149.723632812 344.763671875 c 1
 157.426757812 335.15625 159.842773438 312.477539062 168.040039062 312.477539062 c 0
 170.879882812 312.477539062 174.4140625 315.201171875 179.103515625 322.135742188 c 1
 206.768554688 349.598632812 237.112304688 381.671875 278.978515625 381.671875 c 0
 279.86328125 381.671875 280.752929688 381.658203125 281.647460938 381.62890625 c 0
 314.752929688 381.270507812 327.395507812 341.057617188 344.592773438 323.857421875 c 1
 375.87109375 347.05078125 400.71875 376.100585938 441.759765625 381.040039062 c 0
 445.389648438 381.670898438 448.831054688 381.969726562 452.096679688 381.969726562 c 0
 486.090820312 381.969726562 500.765625 349.498046875 505.153320312 319.952148438 c 1
 507.4921875 313.223632812 511.22265625 310.600585938 515.782226562 310.600585938 c 0
 529.98046875 310.600585938 552.219726562 336.033203125 565.508789062 342.133789062 c 1
 577.7265625 352.025390625 594.311523438 365.319335938 608.586914062 365.319335938 c 0
 617.411132812 365.319335938 625.352539062 360.23828125 630.833007812 346.135742188 c 1
 657.633789062 306.12890625 668.927734375 257.3203125 668.927734375 209.3046875 c 0
 668.927734375 199.8671875 668.490234375 190.459960938 667.649414062 181.15625 c 0
 659.64453125 115.098632812 619.463867188 57.6875 574.090820312 11.1689453125 c 0
 567.602539062 5.91796875 560.998046875 0.2724609375 560.998046875 -6.0927734375 c 0
 560.998046875 -9.3603515625 562.737304688 -12.8173828125 567.123046875 -16.509765625 c 1
 589.905273438 -47.064453125 621.825195312 -68.5751953125 656.555664062 -83.34375 c 1
 667.500976562 -85.9306640625 671.849609375 -91.8037109375 671.849609375 -97.564453125 c 0
 671.849609375 -104.875 664.845703125 -112.001953125 655.434570312 -112.001953125 c 0
 651.71875 -112.001953125 647.625976562 -110.892578125 643.444335938 -108.241210938 c 1
 597.177734375 -94.591796875 557.014648438 -66.515625 518.366210938 -38.802734375 c 1
 491.879882812 -49.177734375 466.168945312 -71.111328125 452.701171875 -96.6240234375 c 0
 451.125 -100.40234375 450.692382812 -104.756835938 450.692382812 -109.294921875 c 0
 450.692382812 -114.765625 451.319335938 -120.501953125 451.319335938 -125.811523438 c 0
 451.319335938 -131.6171875 450.571289062 -136.915039062 447.438476562 -140.80078125 c 1
 418.27734375 -145.110351562 416.349609375 -187.729492188 392.653320312 -191.823242188 c 1
 389.961914062 -189.65625 l 1
 387.3671875 -186.30078125 l 1
EndSplineSet
EndChar
StartChar: uni2652
Encoding: 9810 9810 2199
Width: 711
Flags: HW
LayerCount: 2
Fore
SplineSet
269.563476562 207.186523438 m 0
 235.653320312 223.168945312 229.926757812 263.827148438 218.565429688 295.491210938 c 1
 218.90234375 314.255859375 206.106445312 324.23046875 192.581054688 324.23046875 c 0
 182.041015625 324.23046875 171.057617188 318.174804688 165.49609375 305.5 c 1
 140.329101562 281.853515625 123.901367188 250.985351562 108.78125 220.561523438 c 1
 106.400390625 219.7734375 104.061523438 219.428710938 101.752929688 219.428710938 c 0
 85.0458984375 219.428710938 69.9296875 237.541992188 51.7578125 237.541992188 c 0
 48.1552734375 237.541992188 44.4326171875 236.829101562 40.5546875 235.125 c 1
 28.7978515625 236.99609375 24.625 242.12109375 24.625 248.827148438 c 0
 24.625 263.071289062 43.458984375 284.451171875 48.388671875 296.936523438 c 0
 70.0029296875 334.469726562 104.201171875 370.09375 149.935546875 373.294921875 c 1
 155.809570312 374.750976562 161.647460938 375.450195312 167.356445312 375.450195312 c 0
 195.576171875 375.450195312 220.647460938 358.325195312 231.391601562 330.479492188 c 0
 241.2734375 309.909179688 258.31640625 276.291992188 281.52734375 276.291992188 c 0
 288.217773438 276.291992188 295.421875 279.0859375 303.114257812 285.791992188 c 0
 326.954101562 308.0234375 340.264648438 341.055664062 369.665039062 357.821289062 c 0
 379.541992188 364.637695312 390.836914062 367.750976562 402.165039062 367.750976562 c 0
 422.338867188 367.750976562 442.62109375 357.8828125 455.198242188 341.491210938 c 0
 471.909179688 323.873046875 479.508789062 300.2734375 492.400390625 280.397460938 c 0
 499.60546875 269.904296875 508.990234375 265.489257812 518.418945312 265.489257812 c 0
 534.661132812 265.489257812 551.033203125 278.592773438 556.602539062 296.295898438 c 1
 569.306640625 320.153320312 575.82421875 346.96484375 590.561523438 369.791992188 c 1
 609.655273438 346.58984375 646.502929688 350.043945312 665.123046875 334.952148438 c 1
 667.567382812 305.443359375 642.553710938 281.760742188 629.474609375 257.022460938 c 1
 610.526367188 231.137695312 578.28515625 210.439453125 545.9296875 210.439453125 c 0
 534.51171875 210.439453125 523.081054688 213.017578125 512.213867188 218.853515625 c 0
 481.874023438 233.825195312 464.36328125 264.311523438 449.86328125 293.317382812 c 1
 444.344726562 297.831054688 438.994140625 299.73828125 433.8359375 299.73828125 c 0
 412.09375 299.73828125 393.755859375 265.890625 380.665039062 250.826171875 c 1
 363.075195312 223.212890625 332.262695312 200.640625 299.200195312 200.640625 c 0
 292.817382812 200.640625 286.350585938 201.481445312 279.87890625 203.290039062 c 0
 276.336914062 204.286132812 272.880859375 205.586914062 269.563476562 207.186523438 c 0
290.704101562 18.0400390625 m 0
 256.508789062 25.2373046875 245.48828125 62.62890625 239.533203125 92.4267578125 c 1
 238.583007812 114.62109375 224.34765625 148.083007812 202.146484375 148.083007812 c 0
 196.323242188 148.083007812 189.952148438 145.78125 183.12890625 140.370117188 c 1
 159.932617188 117.83984375 140.188476562 91.0166015625 126.041015625 61.822265625 c 0
 120.282226562 45.99609375 110.448242188 31.998046875 96.4931640625 31.998046875 c 0
 91.5322265625 31.998046875 86.05078125 33.7666015625 80.0439453125 37.853515625 c 1
 60.5126953125 45.3896484375 21.7939453125 45.0263671875 21.7939453125 66.6357421875 c 0
 21.7939453125 71.2744140625 23.5771484375 76.9248046875 27.716796875 83.8828125 c 0
 52.5615234375 129.469726562 84.1103515625 178.2265625 136.50390625 194.533203125 c 1
 150.161132812 200.408203125 166.219726562 204.848632812 181.66796875 204.848632812 c 0
 198.051757812 204.848632812 213.748046875 199.857421875 225.166992188 186.291992188 c 1
 249.794921875 161.784179688 255.62109375 122.71484375 284.779296875 102.361328125 c 1
 289.862304688 99.8740234375 294.741210938 98.787109375 299.416992188 98.787109375 c 0
 320.770507812 98.787109375 337.883789062 121.473632812 350.580078125 137.377929688 c 0
 374.236328125 163.390625 402.40625 194.956054688 440.1328125 194.956054688 c 0
 441.486328125 194.956054688 442.852539062 194.915039062 444.231445312 194.83203125 c 1
 480.22265625 189.536132812 501.619140625 153.299804688 507.124023438 120.055664062 c 1
 508.137695312 99.3154296875 522.626953125 87.646484375 537.9375 87.646484375 c 0
 548.561523438 87.646484375 559.58203125 93.2646484375 566.770507812 105.370117188 c 1
 586.48828125 128.686523438 587.821289062 161.26953125 604.759765625 185.633789062 c 1
 608.13671875 187.314453125 611.576171875 188.016601562 615.073242188 188.016601562 c 0
 632.678710938 188.016601562 651.736328125 170.23046875 671.666992188 170.23046875 c 0
 672.048828125 170.23046875 672.431640625 170.235351562 672.814453125 170.25 c 1
 681.569335938 166.676757812 684.745117188 160.62109375 684.745117188 153.270507812 c 0
 684.745117188 135.396484375 665.983398438 109.848632812 662.99609375 93.59375 c 1
 646.711914062 58.220703125 614.815429688 30.625 578.26171875 18.02734375 c 0
 571.78125 16 565.159179688 15.0458984375 558.584960938 15.0458984375 c 0
 527.717773438 15.0458984375 497.869140625 36.09375 488.192382812 66.1083984375 c 1
 486.474609375 87.53515625 472.194335938 113.372070312 453.403320312 113.372070312 c 0
 446.5078125 113.372070312 439.00390625 109.892578125 431.291015625 101.438476562 c 1
 398.40625 70.7666015625 369.850585938 29.2724609375 323.944335938 17.744140625 c 0
 318.948242188 16.6171875 313.86328125 16.115234375 308.772460938 16.115234375 c 0
 302.712890625 16.115234375 296.64453125 16.8251953125 290.704101562 18.0400390625 c 0
EndSplineSet
EndChar
StartChar: heart
Encoding: 9829 9829 434
Width: 674
Flags: HW
LayerCount: 2
Fore
SplineSet
36.44921875 498.337890625 m 0
 36.44921875 584.0859375 94.44921875 657.125976562 176.466796875 657.125976562 c 0
 251.11328125 657.125976562 315.935546875 595.841796875 337.200195312 516.120117188 c 1
 359.133789062 600.44140625 428.15625 657.125976562 498.14453125 657.125976562 c 0
 580.454101562 657.125976562 638.162109375 583.744140625 638.162109375 498.337890625 c 0
 638.162109375 345.458007812 481.436523438 245.357421875 398.87890625 112.727539062 c 0
 367.44921875 62.2373046875 356.447265625 24.4111328125 347.203125 7.9384765625 c 1
 346.208007812 3.2568359375 343.897460938 -0.5849609375 338.453125 -0.990234375 c 0
 337.995117188 -1.0927734375 337.528320312 -1.1435546875 337.051757812 -1.1435546875 c 0
 335.759765625 -1.1435546875 334.392578125 -0.765625 332.912109375 0.0068359375 c 0
 330.334960938 1.353515625 328.86328125 3.490234375 328.010742188 5.7109375 c 0
 319.765625 19.384765625 312.186523438 54.1669921875 275.733398438 112.727539062 c 0
 191.850585938 247.487304688 36.44921875 344.40625 36.44921875 498.337890625 c 0
EndSplineSet
EndChar
StartChar: uni26BC
Encoding: 9916 9916 2920
Width: 571
Flags: HW
LayerCount: 2
Fore
SplineSet
478.648 -9.58789 m 1
 478.464 -51.0635 l 2
 478.458 -52.4824 478.039 -53.8232 478.039 -55.6641 c 0
 478.039 -63.5732 490.279 -58.3877 317.573 -58.3877 c 0
 213.561 -58.3877 129.766 -60.6699 123.239 -60.6699 c 0
 117.995 -60.6699 116.685 -57.4912 116.685 -55.3721 c 0
 116.685 -53.4229 117.661 -51.7988 118.417 -50.499 c 2
 200.82 96.2441 l 1
 295.134 274.812 l 2
 295.738 276.035 296.773 278.111 299.234 278.111 c 0
 302.191 278.111 305.171 275.719 306.203 275.043 c 2
 346 249 l 1
 318.899 205.117 242.335 80.6943 197 -12 c 1
 237.931 -14.3516 269.516 -13.1406 310.514 -13.1592 c 2
 311.543 -13.1602 l 2
 352.875 -13.1602 437.384 -11.958 478.648 -9.58789 c 1
58.2002 470.185 m 2
 58.2002 483.451 67.8838 493.135 81.1504 493.135 c 2
 456.85 493.135 l 2
 470.116 493.135 479.8 483.451 479.8 470.185 c 2
 479.8 99.585 l 2
 479.8 86.3184 470.116 76.6348 456.85 76.6348 c 2
 81.1504 76.6348 l 2
 67.8838 76.6348 58.2002 86.3184 58.2002 99.585 c 2
 58.2002 470.185 l 2
126.029 124.405 m 1
 231.657 118.461 312.291 119.32 413.67 124.405 c 1
 419.252 229.391 418.768 337.379 413.67 442.364 c 1
 308.396 452.358 227.103 454.05 126.029 442.364 c 1
 120.701 337.405 120.701 229.419 126.029 124.405 c 1
EndSplineSet
EndChar
StartChar: uni2720
Encoding: 10016 10016 2930
Width: 826
Flags: HW
LayerCount: 2
Fore
SplineSet
400.446105271 371.394689648 m 1
 228.11043084 745.329470273 l 1
 237.055696621 752.716997179 l 1
 412.700185783 626.783230563 l 1
 588.343704854 752.716988153 l 1
 597.288988426 745.329481565 l 1
 424.954248257 371.394689648 l 1
 798.888070111 543.729415715 l 1
 806.275594491 534.784152098 l 1
 680.342781817 359.140615471 l 1
 806.275603516 183.496108752 l 1
 798.888058819 174.550862927 l 1
 424.954269964 346.886513252 l 1
 597.288988426 -27.0482315654 l 1
 588.343704854 -34.4357381539 l 1
 412.700185783 91.498019437 l 1
 237.055696621 -34.4357471792 l 1
 228.11043084 -27.0482202735 l 1
 400.446083564 346.886513252 l 1
 26.511350039 174.550860528 l 1
 19.1238105456 183.496108752 l 1
 145.056632246 359.140615471 l 1
 19.1238195707 534.784152098 l 1
 26.5113387471 543.729418114 l 1
 400.446105271 371.394689648 l 1
EndSplineSet
EndChar
StartChar: uni2B24
Encoding: 11044 11044 2226
Width: 1070
Flags: HW
LayerCount: 2
Fore
SplineSet
35 260.54296875 m 3
 35 536.330078125 258.684570312 760 535 760 c 3
 811.315429688 760 1035 536.330078125 1035 260.54296875 c 3
 1035 -15.244140625 811.315429688 -240 535 -240 c 3
 258.684570312 -240 35 -15.244140625 35 260.54296875 c 3
EndSplineSet
EndChar
StartChar: uni2C62
Encoding: 11362 11362 2964
Width: 691
Flags: HW
AnchorPoint: "Top" 219 699 basechar 0
AnchorPoint: "Bottom" 362 -15 basechar 0
LayerCount: 2
Back
SplineSet
52.6818408894 297.932828982 m 1
 31.6012084435 309.414667038 l 1
 44.8972423462 333.822767343 68.918786205 368.191885031 91.196823962 390.469922788 c 0
 97.889530908 397.162629734 104.430809354 402.817786197 111.074016362 406.891822389 c 0
 116.297451179 410.095164158 121.966742557 412.775223251 128.834802676 412.775223251 c 0
 145.589060448 412.775223251 162.240458955 406.698622174 178.816241731 398.21626662 c 0
 199.608519754 387.576196263 220.767149982 372.701998626 241.680449486 358.067027761 c 0
 262.755679118 343.318739401 283.579854239 328.81413543 302.539146337 319.140953457 c 0
 317.763007621 311.373618065 331.485730321 306.993740676 342.5625 306.993740676 c 0
 342.889882185 306.993740676 348.440133098 308.934736682 355.869759364 316.364362948 c 0
 374.359899115 334.854502699 398.048053369 375.279003671 411.454175771 403.112568218 c 1
 433.080834948 392.696020973 l 1
 418.904411797 363.263171045 395.473256597 322.026734684 372.840322113 299.3938002 c 0
 364.348825259 290.902303346 354.876736188 282.998446824 342.5625 282.998446824 c 0
 325.473391824 282.998446824 308.490286733 289.156127905 291.626002705 297.760420058 c 0
 270.475113163 308.551772518 249.029235517 323.627435907 227.935542063 338.388645112 c 0
 207.040869057 353.010581293 186.490932599 367.323727248 167.877486102 376.848820175 c 0
 152.928689263 384.498595247 139.529327141 388.779929398 128.834802676 388.779929398 c 1
 128.834802676 388.779929398 127.144761008 388.588636904 123.61322958 386.422877681 c 0
 119.50246806 383.901897801 114.018231839 379.350205167 108.16738671 373.499360039 c 0
 88.4765340933 353.808507422 64.7298949925 320.049959187 52.6818408894 297.932828982 c 1
EndSplineSet
Fore
SplineSet
25.7001953125 323 m 1
 57.0229129027 371.555555556 101.926027259 418 129 418 c 3
 194.856932298 418 285.302836193 324 343 324 c 3
 353.273170406 324 392 365.46728972 416 411 c 1
 438.299804688 401 l 1
 413.564022904 355.185480101 372 300 344 300 c 3
 273.67294902 300 184.115558695 394 130 394 c 3
 113.733065943 394 68.7515507835 346.952203137 47 311 c 1
 25.7001953125 323 l 1
EndSplineSet
Refer: 2615 76 N 1 0 0 1 36 0 2
EndChar
StartChar: q.pcap
Encoding: 57363 57363 679
Width: 536
Flags: HW
AnchorPoint: "Top" 272 465 basechar 0
AnchorPoint: "Bottom" 265 -15 basechar 0
AnchorPoint: "Middle" 266.697 213.853 basechar 0
LayerCount: 2
Fore
SplineSet
272 388 m 3
 157.445378151 388 80 322 80 210 c 3
 80 108 160 18 256 18 c 3
 362.018866246 18 453 106.995192419 453 211 c 3
 453 313 370.843971631 388 272 388 c 3
314 2 m 1
 423.137184116 -63.875 492.797833935 -127 594 -127 c 3
 659.655172414 -127 739.379310345 -104.5 764 -82 c 1
 772 -103 l 1
 750.502415459 -117 657.632850242 -151 594 -151 c 3
 476.865203762 -151 405.009404389 -78.5034482759 280 -5 c 1
 146.568421053 -18.0277777778 56 96.5277777778 56 210 c 3
 56 349 162 412 271 412 c 3
 377 412 477 333 477 211 c 3
 477 110.21319797 406.140740741 30.0101522843 314 2 c 1
EndSplineSet
EndChar
StartChar: w.pcap
Encoding: 57369 57369 2466
Width: 682
Flags: HW
AnchorPoint: "Top" 363 465 basechar 0
AnchorPoint: "Bottom" 360 -15 basechar 0
LayerCount: 2
Fore
SplineSet
662 407 m 1
 666 383 l 1
 614 378 616 378 595 320 c 1
 516.375 108.35611413 494.324650575 52.9090216093 484 24 c 0
 479 10 474.833333333 4 474 -9 c 1
 453 -10 l 1
 452 2 451.013560331 9.79704871663 443 34 c 0
 419.481927711 105.030445195 397.662650602 174.969554805 372 246 c 1
 331.285714286 147.345997432 306.172803331 85.3286087439 277 14 c 0
 272.138888103 2.11439735171 269 -4 269 -13 c 1
 246 -13 l 1
 245 8 243.761890985 6.09822155702 231 41 c 0
 172.363636364 201.361295573 109.496340571 329.757928764 102 346 c 0
 90 372 88.0560147984 377.680487835 80 378 c 0
 65.0166655823 378.594258791 41.25 380.5 20 387 c 1
 24 411 l 1
 46.3974609375 404.228515625 79.1044921875 400.984375 112.370117188 400.984375 c 0
 142.970703125 400.984375 174.043945312 403.729492188 198 409 c 1
 203 386 l 1
 123 371 117 381.655172414 117 372 c 3
 117 367.818181818 122 360 131 340 c 1
 165 273 222 136 260 35 c 1
 275 72.4042553191 325.666666667 194.325764974 360 280 c 1
 328 369 327.326530612 371.733602335 322 374 c 1
 314.363636364 379 304.181818182 377.333333333 273 384 c 1
 277 406 l 1
 295.107857455 402.603515625 315.452692617 400.619140625 336.095703125 400.619140625 c 0
 368.372070312 400.619140625 401.143554688 402.852539062 431 408 c 1
 434 384 l 1
 419 378 380.118072232 376 361 376 c 0
 351.875 376 351.541666667 374.692307692 354 368 c 1
 364 343 454 84 465 41 c 1
 513.440860215 167.25 542.749864076 252.4683932 586 366 c 0
 594 387 583 370 505 382 c 1
 505 404 l 1
 521.467773438 402.169921875 543.166015625 400.96875 567.606445312 400.96875 c 0
 596.596679688 400.96875 629.4453125 402.659179688 662 407 c 1
EndSplineSet
EndChar
StartChar: eng.pcap
Encoding: 57439 57439 337
Width: 587
Flags: HW
LayerCount: 2
Fore
SplineSet
424 -132 m 0
 392.47050041 -153.460659519 369.392592593 -169 327 -169 c 3
 305.168224299 -169 271.056074766 -163 254 -151 c 1
 254.857142857 -129.0625 254 -129.0625 296 -99 c 1
 314.416666667 -107.142857143 329.055555555 -118 347 -118 c 3
 416.87424833 -118 437 -94.0050503762 437 5 c 3
 437 26.3808877531 422.601509837 52.3984901635 408 67 c 0
 326.762739859 148.237260141 243.185185185 230.787072243 158 309 c 1
 158 315 152 104 153 110 c 1
 153 48 175 28 224 20 c 1
 219 -10 l 1
 196.614088118 -2.12347544897 173.197046502 0.425545475769 150.529953807 0.425545475769 c 0
 118.518773309 0.425545475769 88.0032891267 -4.65821569495 64 -7 c 1
 60 22 l 1
 96 23 109.317008465 32.0721354314 112 75 c 0
 117 155 126.560443426 229.596120024 116 322 c 0
 112 357 85 369 62 376 c 1
 63 405 l 1
 97 400 136.931116293 400 166 400 c 0
 175 400 177.144565136 397.139519538 181 393 c 0
 267.890032801 299.707543729 341.395240693 223.982670152 426 148.992370545 c 0
 433.896668936 141.993076719 441.890032801 135.000182214 450 128 c 1
 457 190 455 228.933855699 455 297 c 0
 455 379 427 383 392 385 c 1
 394 410 l 1
 426.30942523 405.123105626 456.389091204 403.590850136 484.465545845 403.590850136 c 0
 502.445376185 403.590850136 519.603695466 404.219223594 536 405 c 1
 539 380 l 1
 512 377 502.405663553 374.957353875 498 335 c 0
 488.632580983 250.041792899 484.163085938 144.724456003 484.163085938 50 c 3
 484.163085938 35.7123804725 485 21.6885520755 485 8 c 3
 485 -77.9134875188 466.363166209 -103.165369004 424 -132 c 0
EndSplineSet
EndChar
StartChar: oe.pcap
Encoding: 57443 57443 589
Width: 733
UnlinkRmOvrlpSave: 1
Flags: HW
AnchorPoint: "Top" 386 465 basechar 0
AnchorPoint: "Bottom" 390 -15 basechar 0
LayerCount: 2
Fore
SplineSet
292 389 m 3
 168.903225806 389 80 292.192592593 80 201 c 3
 80 108.706161137 171.329479769 19 287 19 c 3
 367.407689035 19 374.945175594 22.2466486641 375 53 c 0
 375.051858844 82.0898408164 375.133789062 141.573816697 375.133789062 207.544921875 c 3
 375.133789062 267.721648051 376.58464572 325.493706816 376 347 c 0
 375.156317036 378.035022661 377.599534326 389 292 389 c 3
287 -5 m 3
 144 -5 56 109 56 200 c 3
 56 314 165 413 292 413 c 3
 342.944150272 413 408.605658274 401.380859375 472.076171875 401.380859375 c 3
 557.238525151 401.380859375 637.350334669 403.494210008 648 406 c 1
 655.208031845 399.821581069 657.821289062 394.350062662 657.821289062 386.875976562 c 3
 657.821289062 372.575283439 648.254014231 350.943164719 643 303 c 1
 623 301 l 1
 619 346 638.102372937 376.999937868 629 377 c 0
 564.110004511 377.000442934 486.479709992 376.514451555 417 377 c 0
 407.944779783 377.063281037 401 364.263157895 401 355 c 0
 401 306.191131366 401 260.564662905 400 216 c 1
 456.440677966 216 567 217 585 217 c 0
 599.692318873 217 594.97826087 236.14893617 606 267 c 1
 627 263 l 1
 622.431367869 246.552859668 620.576171875 226.348639146 620.576171875 205.8203125 c 3
 620.576171875 181.415615914 623.198104911 156.552858663 627 137 c 1
 604 131 l 1
 593.933333333 194.218181818 599.370565438 192 585 192 c 0
 543.888888889 192 482.222222222 192 400 192 c 1
 399 131.022107713 398.639104792 79.5071769715 399 39 c 0
 399.073465994 30.7541160117 405.782031609 24.1704662486 415 24 c 0
 469.075035187 23 512.713351814 23 555 23 c 3
 579.626487925 23 629.422291236 20.5029416855 633 29 c 0
 641 48 651 95 662 120 c 1
 681 115 l 1
 672 75 663 33 656 -4 c 1
 592.763043384 -2.83972024286 523.690739404 -0.384765625 459.928710938 -0.384765625 c 3
 395.103302025 -0.384765625 335.306059707 -5 287 -5 c 3
EndSplineSet
EndChar
StartChar: gha.pcap
Encoding: 57468 57468 413
Width: 604
UnlinkRmOvrlpSave: 1
Flags: HW
LayerCount: 2
Fore
SplineSet
260 381 m 3
 192.323242188 381 132.180664062 322.274345127 132.180664062 223.540039062 c 3
 132.180664062 116.092080422 202.826171875 17 289 17 c 3
 308.265609759 17 323.313624648 21.87890625 332.247070312 27.3681640625 c 1
 337.659179688 36.9170846911 341.010742188 150.738869924 341.010742188 208.404296875 c 3
 341.010742188 262.021610774 335.073242188 346.153376924 322.110351562 367.356445312 c 1
 304.341510144 375.458007812 284.928741433 381 260 381 c 3
283.436523438 416 m 3
 326.863337068 416 366.5443967 402.477539062 397.170898438 380.124023438 c 1
 395.158203125 322.65625 388.18359375 265.188476562 388.18359375 207.721679688 c 3
 388.18359375 145.791015625 395.610351562 83.8593749996 398.357421875 21.9287109375 c 1
 366.222525086 -0.5986328125 324.170185636 -14.1611328125 276.623046875 -14.1611328125 c 3
 154.625 -14.1611328125 56 68.9960937498 56 192.034179688 c 3
 56 333.604492188 173.380859375 416 283.436523438 416 c 3
389 382 m 1
 436.557324932 386.541015625 479.528149236 391.837890625 528 410 c 1
 548 394 l 1
 531.261151596 347.84135743 526 214.200613147 526 175 c 3
 526 104.559570312 526.117400223 11.6194983259 535 -55 c 0
 537.538697464 -73.4802241831 570.842267676 -77.4520248548 588 -79 c 1
 584 -109 l 1
 558.416015625 -104.63671875 520.551757812 -101 493 -101 c 3
 463 -101 427 -108 397 -112 c 1
 394 -83 l 1
 437.916525384 -79.0075886014 459.433171982 -77.5248154491 462 -33 c 0
 464 20.373046875 465 99.4921875 465 155 c 3
 465 182.84035773 465.390361926 241.192761474 461 329 c 0
 459.826086957 345 453.956521739 358 434 358 c 3
 425.999511719 358 405.999511719 354 394 353 c 1
 389 382 l 1
EndSplineSet
EndChar
StartChar: uhorn.pcap
Encoding: 57469 57469 835
Width: 579
Flags: HW
AnchorPoint: "Bottom" 280 -15 basechar 0
AnchorPoint: "Top" 295 465 basechar 0
AnchorPoint: "Ogonek" 292 27 basechar 0
LayerCount: 2
Fore
SplineSet
500 378 m 0
 484 376 477 370 474 348 c 0
 473 344 465 279 465 147 c 0
 465 102 451 67 427 43 c 0
 394 10 341 -6 272 -6 c 1
 207 -6 162 8 134 36 c 0
 110 60 95 94 99 136 c 0
 100 147 102 327 101 333 c 0
 97 373 96 372 48 379 c 1
 51 404 l 1
 71.5 402 103 401 136 401 c 0
 169 401 203.5 402 230 404 c 1
 233 381 l 1
 195 378 177 374 174 325 c 0
 174 323 171 159 171 147 c 1
 171 114 178 85 195 65 c 0
 214 43 245 32 297 32 c 1
 315 32 365 31 397 60 c 0
 419 80 425 105 427 148 c 0
 429 201 429 290 426 345 c 0
 424 380 407 378 367 379 c 1
 368 404 l 1
 391 401 445 401 484 401 c 3
 500 401 530 416 530 442 c 3
 530 450 526 459 516 471 c 1
 532 490 552 500 570 500 c 3
 600 500 616 475 616 446 c 3
 616 406 554 385 500 378 c 0
EndSplineSet
EndChar
StartChar: exclam.pcap
Encoding: 57473 57473 353
Width: 258
Flags: HW
LayerCount: 2
Fore
SplineSet
115 144 m 1
 116 215 115.624207124 268.025372043 116 320 c 0
 116.231476941 352.014784373 115 368 115 402 c 1
 117.115702479 405 135 415 139 406 c 1
 139 382 139 366.270941205 139 320 c 0
 139 252 139 216 139 143 c 1
 115 144 l 1
EndSplineSet
Refer: 659 46 N 0.836878 0 0 0.88855 42.8914 -4 2
EndChar
StartChar: delta.pcap
Encoding: 57529 57529 283
Width: 485
Flags: HW
AnchorPoint: "Top" 254 465 basechar 0
AnchorPoint: "Bottom" 243 -15 basechar 0
LayerCount: 2
Fore
SplineSet
285.659179688 45.7548828125 m 1
 324.258789062 45.88671875 337.6640625 45.7548828125 338.96484375 49.2783203125 c 1
 308.944335938 117.141601562 253.139648438 232.26953125 228 292 c 1
 216.70703125 273.500976562 133.256835938 116.30078125 107.731445312 55.1494140625 c 1
 113.859375 48.103515625 117.209960938 44.8681640625 173.290039062 45.7548828125 c 1
 285.659179688 45.7548828125 l 1
30 -5 m 1
 35.5263671875 13.9658203125 52.3955078125 32.375 59.2529296875 44.9091796875 c 0
 126.391601562 167.627929688 180.909179688 273.905273438 229.573242188 373.723632812 c 0
 240.276367188 395.677734375 237.375 396.623046875 239.973632812 416 c 1
 267.927734375 416 l 1
 271.177734375 400.146484375 267.797851562 397.754882812 277.028320312 374.8984375 c 0
 330.381835938 242.78515625 362.102539062 162.928710938 435.646484375 34.33984375 c 0
 449.204101562 10.634765625 450.923828125 16.607421875 461 -4.4130859375 c 1
 441.037593984 -1.91692038309 351.647565449 -0.730825054086 259.152985931 -0.730825054086 c 0
 155.807868773 -0.730825054086 48.5870872891 -2.21152463898 30 -5 c 1
EndSplineSet
EndChar
StartChar: theta.pcap
Encoding: 57530 57530 777
Width: 568
Flags: HW
LayerCount: 2
Fore
SplineSet
378.25 253.5 m 1
 377.221679688 227.764765872 377.459472656 183.744544344 380.75 156.299804688 c 1
 356.25 154.700195312 l 1
 350.827148438 178.330390294 347.051134833 179.113879431 332.75 180.299804688 c 0
 329.454573702 181.099888393 304.190764624 185.900390625 286.25 185.900390625 c 3
 264.947294347 185.900390625 235.118048234 181.947211144 231.25 180.299804688 c 0
 217.314453125 178.24266183 216.282714844 168.64266183 215.25 156.299804688 c 1
 190.25 157.099609375 l 1
 193.48828125 191.133143538 193.89453125 222.559301291 190.25 256.700195312 c 1
 214.75 258.299804688 l 1
 216.805664062 248.535464016 218.403931366 241.148045853 233.25 236.700195312 c 0
 236.706402403 233.500195313 245.539735736 228.700195312 286.25 228.700195312 c 3
 321.921961167 228.700195312 329.570791212 231.845274942 331.75 232.700195312 c 0
 347.75 234.634488689 351.75 233.344959771 353.75 254.299804688 c 1
 378.25 253.5 l 1
EndSplineSet
Refer: 570 57361 N 1 0 0 1 0 0 2
EndChar
StartChar: omega.pcap
Encoding: 57538 57538 608
Width: 520
Flags: HW
AnchorPoint: "Top" 265 465 basechar 0
AnchorPoint: "Bottom" 258 -15 basechar 0
AnchorPoint: "Middle" 261.697 229.853 basechar 0
LayerCount: 2
Fore
SplineSet
220.741210938 1.2939453125 m 1
 149.014309507 1.15234375 81.2469157655 -0.8427734375 72.1943359375 -5 c 1
 74.181640625 36.7289846826 72.759765625 79.2940536296 66.4951171875 112.55078125 c 1
 100.958984375 115.4765625 l 1
 101.958984375 93.9778463695 104.974609375 77.2918785548 132.055664062 72.837890625 c 1
 143.592735268 71.169921875 157.379914021 70.0244140625 171.926757812 69.3896484375 c 1
 166.297909329 133.183351672 58 148.500001181 58 247.219726562 c 3
 58 336.259765625 151.786650844 414 264.330078125 414 c 3
 374.843949839 414 464 338.97265625 464 247.219726562 c 3
 464 149.189012428 357.101853577 128.061414057 351.580078125 69.3603515625 c 1
 368.255491884 70.1376953125 383.130676002 73.3396914896 393.931640625 74.0087890625 c 0
 417.747070312 75.484106014 415.763671875 95.408889501 419.071289062 114.96484375 c 1
 455.520507812 112.625 l 1
 445.974609375 66.4423828125 443.922851562 33.9375 446.794921875 -5 c 1
 436.80304971 -1.3115234375 368.494476433 0.8662109375 296.637695312 1.2353515625 c 1
 307.717461005 143.063476562 384.176757812 106.388671875 384.176757812 235.515625 c 3
 384.176757812 311.649717392 318.094680382 379.325195312 237.850585938 379.325195312 c 3
 183.486054054 379.325195312 139.529296875 333.987807063 139.529296875 271.212890625 c 3
 139.529296875 145.263671875 210.330096975 156.658203125 220.741210938 1.2939453125 c 1
EndSplineSet
EndChar
StartChar: b.smcp
Encoding: 57672 57672 219
Width: 485
Flags: HW
AnchorPoint: "Top" 219 539 basechar 0
AnchorPoint: "Bottom" 228 -15 basechar 0
LayerCount: 2
Fore
SplineSet
242.8 272.5 m 0
 281.7 278.3 306.8 311.2 306.8 352.7 c 3
 306.8 382.3 290.6 461.9 230.4 461.9 c 3
 224.8 461.9 208.9 460.6 204.8 460 c 0
 189.1 456.4 189.2 439.9 187.5 429.9 c 0
 181 351.9 181.6 272.6 180.9 271.2 c 1
 234.2 271.2 239.1 271.5 242.8 272.5 c 0
227.9 248.2 m 1
 225.920101013 248.2 171.2 248.9 179.6 248.9 c 1
 179.9 183.294140625 179.9 119.766894532 181.9 79.9 c 0
 182.9 49.2 186.5 40 204.1 34.7 c 0
 209.2 32.7 241.6 27 255 27 c 3
 316.9 27 356.1 63.8197265625 356.1 125.5 c 3
 356.1 186.7609375 319.8 248.2 227.9 248.2 c 1
46.9 25.6 m 1
 69.4 26.9 103 28.3 105 60.4 c 0
 106.4 62.6 108.7 127 108.7 205.2 c 3
 108.7 317.305175782 103.1 413.869238282 102.8 417.3 c 0
 101.8 437.8 100.2 452.7 86.2 457.7 c 0
 80.6 459 51.2 463.2 45.6 464.2 c 1
 50.5 493.1 l 1
 59.1 493.1 93.8 485.9 132.4 485.9 c 3
 169.3 485.9 214.5 493.1 249.8 493.1 c 3
 351.6 493.1 388.4 412.8 388.4 368.9 c 3
 388.4 319.6 339.8 280.9 296.8 266.1 c 1
 375.7 255.670996093 437.7 199.969140625 437.7 130.6 c 1
 437.7 50.1149414062 365.1 -3.3 253.7 -3.3 c 3
 216.8 -3.3 175.2 1.3 135 1.3 c 3
 92.8 1.3 55.5 -2 49.2 -2 c 1
 46.9 25.6 l 1
EndSplineSet
EndChar
StartChar: d.smcp
Encoding: 57674 57674 274
Width: 629
Flags: HW
AnchorPoint: "Top" 308 539 basechar 0
AnchorPoint: "Bottom" 309 -15 basechar 0
LayerCount: 2
Fore
SplineSet
266.9 27.9 m 3
 410.9 27.9 491.2 106.3625 491.2 244.1 c 3
 491.2 377.055273437 394.5 466.5 264.4 466.5 c 3
 243.7 466.5 226.3 462.2 199.3 455.8 c 0
 181.391845605 451.430615202 180.1 440.8 180.1 427.8 c 0
 178.720769484 345.476462966 176.585152397 274.339062555 176.585152397 200.361707643 c 3
 176.585152397 158.49092282 177.22179445 115.788336125 179 69.9 c 0
 179 57.5 182.683860466 44.7580697669 200.2 39 c 0
 217.9 33.3 239.8 27.9 266.9 27.9 c 3
45.9 489.2 m 1
 76.3 487.9 102 485.3 132.4 485.3 c 3
 193.5 485.3 226.8 495.1 287.9 495.1 c 3
 466.5 495.1 577.5 380.682226563 577.5 248.5 c 3
 577.5 51.5154296875 413.3 -5.6 270.9 -5.6 c 3
 219.3 -5.6 189.6 -0.7 137.3 -0.7 c 3
 84.3 -0.7 70.5 -4.3 48.2 -7.9 c 1
 46.9 21 l 1
 79.5 23.6 96.3711669712 22.9099743898 98.8 57.6 c 0
 101.849048132 102.410041934 103.145170186 157.031522407 103.145170186 211.249008961 c 3
 103.145170186 298.244919589 99.8611448185 384.477194212 95.2 427.4 c 0
 91.8 459.9 88.1 457.3 45.6 458.7 c 1
 45.9 489.2 l 1
EndSplineSet
EndChar
StartChar: h.smcp
Encoding: 57678 57678 426
Width: 671
Flags: HW
AnchorPoint: "Bottom" 342 -15 basechar 0
AnchorPoint: "Top" 345 539 basechar 0
LayerCount: 2
Fore
SplineSet
51.5 493.9 m 1
 91.6880056331 489.809642149 127.188509147 486.53150249 165.462832205 486.53150249 c 3
 190.449656338 486.53150249 216.650977119 487.918199837 246.2 491.3 c 1
 248.2 463.4 l 1
 231 460.1 195.1 459.4 192.4 445.8 c 1
 187.1 420.696972657 185.9 333.404296875 183.9 261.7 c 1
 500.3 262.4 l 1
 500.3 307.152636719 500.3 358.443066406 497.4 423.4 c 0
 495.7 459 467.9 457 439.5 466.9 c 1
 443.1 493.2 l 1
 471.447217518 488.15342562 497.603346364 485.24344048 524.098462559 485.24344048 c 3
 554.805730824 485.24344048 585.979096201 489.144697721 621.2 498.1 c 1
 625.8 470.2 l 1
 592.9 461.7 584 460.2 581.3 433.6 c 0
 574.865994679 362.485510261 568.443408138 245.678209619 568.443408138 159.466470551 c 3
 568.443408138 108.802228337 570.680003556 68.5730454488 576.4 54.4 c 0
 584 26.6 604.3 24.9 624.5 22.2 c 1
 624.5 22.2 620.9 5 621.2 -4.1 c 1
 596.353421062 1.19258408831 567.880514224 4.2039354885 538.251364012 4.2039354885 c 3
 507.397269476 4.2039354885 475.291975989 0.943221215588 444.8 -6.4 c 1
 444.8 -5 439.5 11.7 438.2 20.9 c 1
 469.8 29.5 489 31.5 492.4 59.9 c 0
 498 123.662792968 499.3 162.806640625 500.3 230.1 c 1
 182.9 230.1 l 1
 182.25 171.34375 181.35 107.471875 183.9 60.1 c 0
 185.2 26.9 221.1 28.8 243.3 22.5 c 1
 243.3 22.5 240 3.7 239.7 -5.4 c 1
 204.007612452 0.85494498083 168.766131418 4.24679724664 135.155366416 4.24679724664 c 3
 105.313490724 4.24679724664 76.7563747346 1.58378124999 50.5 -4.1 c 1
 50.5 -4.1 46.9 15.7 45.6 27.4 c 1
 69.7 32.7 97.8 32.7 100.2 60.8 c 0
 106.576276869 135.839454725 110.164897666 247.740423239 110.164897666 330.464099225 c 3
 110.164897666 385.318230182 108.588606191 427.345978052 105.2 437.3 c 0
 99.6 460.7 76 461.4 49.2 465 c 1
 51.5 493.9 l 1
EndSplineSet
EndChar
StartChar: i.smcp
Encoding: 57679 57679 440
Width: 332
Flags: HW
AnchorPoint: "Bottom" 168 -15 basechar 0
AnchorPoint: "Top" 174 539 basechar 0
LayerCount: 2
Fore
SplineSet
52.8 494.8 m 1
 94.1328731916 487.756064107 130.859686497 484.64596039 168.317737066 484.64596039 c 3
 204.238384949 484.64596039 240.833276869 487.506739397 282.9 492.5 c 1
 284.2 460 l 1
 246.5 458.7 222.5 465.9 215.7 429.1 c 0
 209.281554999 376.116318398 202.914141316 308.258764192 202.914141316 217.853865494 c 3
 202.914141316 172.874879986 204.483779719 122.329201739 208.4 65.3 c 0
 211.1 33.3 247.7 24.3 287 23 c 1
 286 -6.9 l 1
 250.248623193 -2.84884949577 207.384771594 -0.644498845075 165.564364341 -0.644498845075 c 3
 122.649368657 -0.644498845075 80.7970689788 -2.94844578585 49.2 -7.9 c 1
 45.6 22.3 l 1
 87.4 23 126.2 30.5 129.6 71.4 c 0
 133.546617768 118.624522773 135.471722711 180.497872423 135.471722711 241.499687688 c 3
 135.471722711 313.173994895 132.79488098 383.657148728 127.6 427.8 c 0
 120.8 460.3 85.7 458 50.2 462.3 c 1
 52.8 494.8 l 1
EndSplineSet
EndChar
StartChar: k.smcp
Encoding: 57681 57681 492
Width: 552
Flags: HW
AnchorPoint: "Top" 266 539 basechar 0
AnchorPoint: "Bottom" 280 -15 basechar 0
LayerCount: 2
Fore
SplineSet
311.9 486.9 m 1
 328.578838705 485.259011605 348.756157312 484.385172964 369.966350317 484.385172964 c 1
 406.067309222 484.385172964 445.139829585 486.915375228 475.2 492.5 c 1
 481.4 464.9 l 1
 451.6 457.7 432.6 448.1 409.5 428 c 0
 344.5 370.44453125 288.3 321.863867187 226.4 266.9 c 1
 447.2 72.3 l 1
 470.7 52 502.7 31 525.8 19.5 c 1
 522.5 1.1 l 1
 502.9 2.4 468.1 4 449.9 4 c 1
 426.7 4 387.5 1.7 364.6 -1.9 c 1
 361.3 17.5 l 1
 373.1 24.4 388.4 28.1 371.3 48.2 c 1
 358 66.6342773438 247.1 160.95546875 176.6 222.2 c 1
 176.6 164.599414062 178.3 105.341699219 180.9 66.4 c 0
 182.9 29 205.1 27.7 246.6 15.1 c 1
 244 -7.9 l 1
 211.157191194 -2.78711863021 172.397694795 0.552910449893 131.368990887 0.552910449893 c 1
 104.20133143 0.552910449893 76.0332686503 -0.912881369789 47.9 -4.3 c 1
 45.6 21.7 l 1
 82.4 23.4 97.4 28.7 100.8 61.9 c 0
 105.989765301 124.000979731 108.381121855 188.697430498 108.381121855 254.020435426 c 1
 108.381121855 305.134732833 106.882771443 356.662462259 104.1 407.7 c 0
 100.7 455 91.3 456 47.2 465.9 c 1
 51.8 489.2 l 1
 77.0903253149 485.689426308 106.2220641 484.193114956 135.697593365 484.193114956 c 1
 172.551728171 484.193114956 209.946125805 486.532648475 241 490.2 c 1
 243.3 465.2 l 1
 203.5 460.9 189.2 462 184.2 421.1 c 1
 179.9 361.938378907 176.6 316.984179687 176.6 256.2 c 1
 234.1 311.558886718 281.4 354.141113282 336.9 410.4 c 0
 343.7 418.6 350.4 423.4 350.4 435.5 c 0
 350.4 455.400502501 335.3 461.497167969 310.9 465.5 c 1
 311.9 486.9 l 1
EndSplineSet
EndChar
StartChar: l.smcp
Encoding: 57682 57682 502
Width: 503
Flags: HW
AnchorPoint: "Top" 191 539 basechar 0
AnchorPoint: "Bottom" 251 -15 basechar 0
LayerCount: 2
Fore
SplineSet
253.8 492.1 m 1
 256.4 461.6 l 1
 196.7 452.7 191.1 464.7 185 399.6 c 0
 182.849309179 372.739645388 181.3 119.999902344 181.3 118.2 c 1
 182 69 185.4 41.5 222.9 40.8 c 0
 236.067937406 40.7008906276 326.686799551 40.758241501 335.8 41.1 c 0
 393.9 43 431.3 82.6 445.1 129.6 c 1
 471.7 124.7 l 1
 471 78.2 461.8 81.4 441.1 -19.6 c 1
 419.8 -9.9 416.6 -4.4 385.2 -2.4 c 0
 377.7 -2.4 316 1.3 244.8 1.3 c 1
 92.8 1.3 63.4 -5.6 53.8 -5.6 c 1
 50.2 27.2 l 1
 89.6 33.9 99.4 37.3 101.8 69.7 c 0
 102.123150475 74.4546552253 103.8 131.1 103.8 211.1 c 1
 104.5 318.199121094 100.244703723 420.519908105 99.9 424.6 c 0
 97.9 456.1 88.7 457.6 45.6 459.6 c 1
 48.9 494.4 l 1
 78.0547388264 487.352162084 114.141280226 484.645213241 149.664445136 484.645213241 c 1
 188.114063943 484.645213241 225.901237365 487.835195043 253.8 492.1 c 1
EndSplineSet
EndChar
StartChar: w.smcp
Encoding: 57693 57693 2467
Width: 799
Flags: HW
AnchorPoint: "Top" 416 539 basechar 0
AnchorPoint: "Bottom" 418 -15 basechar 0
LayerCount: 2
Fore
SplineSet
791.3 492.8 m 1
 795.9 465.2 l 1
 738.1 446.096972656 736.6 414.012402344 699 323.6 c 1
 612.7 108.955859375 588.5 56.1267578125 576 29.4 c 0
 568.8 12.7 562.6 4.9 561.3 -10.8 c 1
 535.8 -11.8 l 1
 534.8 2 535.3 13.4 522.8 41.2 c 0
 485.601953125 123.572363282 455.001855469 205.227636718 419.1 287.6 c 1
 361.596972656 143.211816407 335.026660156 74.3629882812 312.6 16.7 c 0
 307.7 2.3 304.1 -4.9 303.8 -15.4 c 1
 276.6 -15.4 l 1
 274.7 -2.4 273.9 12.1 255.3 55.4 c 0
 178.9 242.634082031 101.9 395.320019531 90.1 408.8 c 0
 85.5 415.952148438 81.2 423.073925781 65.9 443.1 c 0
 49.7 462.9 27.4 463.7 7.1 465 c 1
 11.7 496.2 l 1
 36.6781758163 488.760086381 74.9480691504 485.289049808 113.871683711 485.289049808 c 1
 150.929293681 485.289049808 188.580436996 488.410696139 215.7 494.2 c 1
 221.6 467.9 l 1
 183.2 467.9 170 455.459375 170 429.9 c 1
 170 421.4 173 411.5 176.6 404 c 1
 175.9 409.096875 316.7 92.5782226563 316 103.5 c 1
 324.4 119.372363282 385.2 286.176367187 398.5 327.3 c 1
 361.028613281 415.872363282 340.21640625 435.521972656 336.6 442 c 1
 321.4 462.8 298 463.5 282.8 468.5 c 1
 287.4 491.2 l 1
 316.256353254 487.309873222 349.877910474 485.164878502 384.330093589 485.164878502 c 1
 422.470679846 485.164878502 461.687836158 487.784109682 496.4 493.5 c 1
 499.7 466.2 l 1
 497.2 466.2 470.1 465.2 462.2 465.6 c 0
 436.4 464.1 431.1 447.1 436.7 433.3 c 1
 436.7 430.432324218 575.3 95.562109375 571.8 105.6 c 1
 616.1 200.219335938 641.8 274.54375 668.7 365.2 c 0
 688.2 432.154394531 686 467.836523437 604.6 464.5 c 1
 604.6 489.2 l 1
 624.054575338 486.945662246 650.136696829 485.453102987 679.520234003 485.453102987 c 1
 714.016427647 485.453102987 753.063369637 487.508675507 791.3 492.8 c 1
EndSplineSet
EndChar
StartChar: ae.smcp
Encoding: 57703 57703 22
Width: 815
Flags: HW
AnchorPoint: "Bottom" 430 -15 basechar 0
AnchorPoint: "Top" 445 539 basechar 0
LayerCount: 2
Fore
SplineSet
377.792138672 456.14296875 m 1
 333.259416929 382.561741063 279.526864433 291.452482196 230.00625 211.65 c 1
 270.965158911 208.670467747 350.53515384 207.947577288 392.769335937 209.296923828 c 1
 393.490378955 300.625055535 392.330829034 401.856065313 389.8 441.85 c 1
 389.664547505 448.108488383 384.483637988 453.055548854 377.792138672 456.14296875 c 1
301.1 504.15 m 1
 350.673701562 501.022186284 420.261002505 499.847944212 488.440346142 499.847944212 c 0
 598.833813458 499.847944212 705.354404331 502.891417253 718.1 505.8 c 1
 726.686073561 498.370851215 729.780603557 492.887146769 729.780603557 485.000046021 c 0
 729.780603557 470.036750245 718.67423392 446.450395961 712.75 384.95 c 1
 689.25 382.6 l 1
 682.15 402.35 695.3 438.95 667.1 453.2 c 0
 643.024954717 464.077544929 600.751163709 469.163984306 558.467873378 469.163984306 c 0
 535.834773736 469.163984306 513.198952376 467.706632534 493.35 464.9 c 0
 481.2 463.55 472.75 452.15 471.75 440.65 c 0
 467.1 381.126825675 462.75 323.967133706 461.75 269.25 c 1
 505.765254237 269.95 599.193644068 271.25 613.1 272.9 c 0
 645.55 277.9 650.55 295.45 663.3 329.7 c 1
 688.85 324.65 l 1
 683.010680545 303.155796443 680.64481452 279.300893073 680.64481452 255.238201825 c 0
 680.64481452 227.869207842 683.685599272 200.205796443 688.15 175.9 c 1
 660.6 168.85 l 1
 645.8 230.75 647.6 228.15 612.45 235.4 c 0
 581.45 241.7 525.5 240.7 461.75 241.05 c 1
 461.4 170.561513322 464.1 109.842071557 474.8 61.5 c 0
 477.5 50.35 483.9 42.2 495.7 40.55 c 0
 528.48365784 35.6462704343 555.485861533 31.3987698327 581.320766339 31.3987698327 c 0
 609.274768822 31.3987698327 635.897975975 36.524692172 667.25 51.5 c 0
 713.25 74.75 718.7 90.6 746 139.95 c 1
 768.15 134.25 l 1
 756.7 85.15 747 43.15 738.25 -2.6 c 1
 659.959118915 -1.34483933986 575.023759249 0.824420058004 497.922717424 0.824420058004 c 0
 437.521286121 0.824420058004 382.051843902 -0.938673326307 338.55 -7.05 c 1
 331.15 20.15 l 1
 368.55 28.2 385.3 35.35 388.55 61.4 c 1
 390.333324165 79.4787470207 391.949707254 121.466615533 392.720800781 172.780761719 c 1
 352.697301083 179.031017224 260.81208501 182.32294205 208.620947266 177.45 c 1
 181.225348982 133.0021875 160.254929026 107.473635285 137.99265 63.6 c 0
 126.85495 41.9 144.3958 21.2 194.27795 26.2 c 1
 190.45965 -8.05 l 1
 167.628753053 -3.09323991962 126.913790162 -0.465109605422 88.839067851 -0.465109605422 c 0
 62.3547436013 -0.465109605422 37.1556693463 -1.7297733991 20.241415 -4.35 c 1
 20.241415 -3.05 18.09912 15.45 17.377775 26.2 c 1
 55.606115 34.35 81.3029 47.25 88.6282 58.55 c 0
 186.812883709 208.584651976 275.389968781 348.972949748 348.91640625 472.173339844 c 1
 335.842768959 475.389307862 318.210483971 477.252775132 297.4 480.95 c 1
 301.1 504.15 l 1
EndSplineSet
EndChar
StartChar: eng.smcp
Encoding: 57763 57763 338
Width: 674
Flags: HW
LayerCount: 2
Fore
SplineSet
495.4 -151.95 m 0
 461.255825266 -175.349428687 433.305185185 -194.2 385.1 -194.2 c 3
 359.709345794 -194.2 320.036448598 -186.45 300.2 -170.95 c 1
 301.185714286 -146.20703125 300.2 -146.20703125 348.5 -112.3 c 1
 374.120833334 -123.892857143 391.808314016 -139.35 419.45 -139.35 c 3
 495.184037604 -139.35 520.74296875 -88.0420303313 520.74296875 -1.46645507812 c 3
 520.74296875 34.0395162441 498.702896244 70.1429761321 476.6 92.2317871094 c 0
 373.359380908 194.219143217 267.62947037 295.634490744 159.05 393.35 c 1
 159.05 397.25 152 121.5 152.65 125.4 c 1
 151.835401141 49.5475797064 178.85 33.8361788618 242.55 25.25 c 1
 236.5 -10.35 l 1
 208.027909593 -2.27286244289 179.68318207 0.3442803405 152.649206303 0.3442803405 c 0
 114.763680726 0.3442803405 79.4374521622 -5.33724288921 50 -8.05 c 1
 45.65 26.2 l 1
 89.35 26.85 104.043742402 36.6098706212 106.75 81.3 c 0
 113.15 187.12397541 120.357047085 292.532015778 112.15 409.15 c 0
 109.2 446.95 79.4 467 44.5 471.2 c 1
 45.85 505.45 l 1
 81.6 500.8 125.750957932 499.4 159 499.4 c 0
 170.1 499.4 171.922368719 496.216656819 176.8 491 c 0
 285.705721321 375.734655938 387.561963112 274.040246467 499.5 174.974679526 c 0
 512.737084808 163.104237284 526.229521321 149.682214959 537.15 137.1 c 1
 544.85 222.193632793 544.297304388 292.294627353 543.9 383.8 c 0
 543.55 479.8 507.15 478.55 463.75 482.3 c 1
 466.8 511.85 l 1
 507.659171994 506.162390441 543.852789004 504.323505714 577.774479799 504.323505714 c 0
 599.215564459 504.323505714 619.754032085 505.111760832 639.95 506.15 c 1
 643.3 476.25 l 1
 608.6 472.2 594.911566681 471.581647563 590.75 430.9 c 0
 579.411177639 317.293488086 575.45600586 186.67954833 575.45600586 62.6 c 1
 575.45600586 45.2630473071 576.7 29.1475588491 576.7 5.2 c 3
 576.7 -81.0727668872 545.472178289 -117.605560447 495.4 -151.95 c 0
EndSplineSet
EndChar
StartChar: uhorn.smcp
Encoding: 57793 57793 836
Width: 653
Flags: HW
AnchorPoint: "Bottom" 321 -15 basechar 0
AnchorPoint: "Top" 337 539 basechar 0
LayerCount: 2
Fore
SplineSet
585.2 457.2 m 0
 567.243563941 454.200386179 555.913370004 449.722467804 552.6 420.6 c 0
 551.627511559 414.718323478 545.036331779 336.197546999 544.2 179.4 c 0
 543.9 124.8 526.701735221 82.1907205111 497.5 52.3 c 0
 458.2 12.1 395.6 -7.2 314 -7.2 c 1
 234.6 -7.2 179.427271473 10.4285135938 145.4 43.8 c 0
 115.4 73.2 99.2 114.7 102 166 c 0
 102.7 182.750561798 105.6 402.574719101 104.9 411.3 c 0
 102.1 452.5 97.8 452.7 39.6 460.3 c 1
 43.2 489.8 l 1
 66.55 487.35 103.075 486.125 141.4375 486.125 c 0
 179.8 486.125 220 487.35 250.7 489.8 c 1
 254 462.9 l 1
 207 459 185.1 455.602727047 183 404.8 c 0
 183 401.28742515 178.5 197.45748503 178.5 179.4 c 1
 178.5 138.6 186.905360506 102.915127862 208.5 78.2 c 0
 233.2 50.2 275 35.6 343.8 35.6 c 1
 364.2 35.6 424.168745869 35.1290500351 463.6 72 c 0
 490.1 96.8 498.194961677 127.800332028 501.1 180.7 c 0
 504.3 245.068011527 503.97658455 352.130484749 500.7 418.2 c 0
 498.7 456.759090909 478.4 459.770454545 430.6 460.9 c 1
 431.9 490.4 l 1
 460.106666344 486.376880504 523.036810558 484.9390625 571.5390625 484.9390625 c 3
 591.146849774 484.9390625 621.77421875 497.501722164 621.77421875 525.23359375 c 3
 621.77421875 535.49749818 615.502989206 545.473146507 602.837695313 557.724023438 c 1
 617.732266433 580.216503906 639.130467166 593 659.7 593 c 3
 691.948749622 593 710.53046875 567.052539063 710.53046875 538.083007812 c 3
 710.53046875 485.643356121 642.740204938 466.773574111 585.2 457.2 c 0
EndSplineSet
EndChar
StartChar: uni0195.smcp
Encoding: 57822 57822 869
Width: 916
Flags: HW
LayerCount: 2
Fore
SplineSet
536.808203125 162.402832031 m 1
 536.808203125 83.7452577078 566.43646334 28.1 648.4 28.1 c 1
 732.510946398 28.1 770.47268638 63.160551407 773.2 149.2 c 1
 774.769452798 208.228588745 772.9 290.091644905 772.2 344.1 c 1
 770.8 381.558230162 748.461322933 379.313867707 709.6 381.1 c 1
 711.5 408.8 l 1
 735.872285095 405.463965443 771.448190063 402.8492527 808.117462934 402.8492527 c 1
 836.923481626 402.8492527 865.832198703 405.104051835 882.1 408.2 c 1
 884.4 380.1 l 1
 850.463799246 378.129781681 831.841274494 378.70678698 828 344.7 c 0
 823.8 328.482606399 820 273.74605327 819.3 158.1 c 1
 819.3 42.1978570808 723.771487653 -16.5 621.6 -16.5 c 1
 519.375245792 -16.5 464.334850297 44.6979665722 465.9 145 c 1
 466.10234375 153.498054369 465.5 155.923773951 466.5 230.1 c 1
 182.2 230.1 l 1
 181.2 171.098888715 180.649699956 106.997879123 183.9 59.4 c 0
 185.2 26.2 221.1 28.1 243.3 21.8 c 1
 243.3 21.8 240 3 239.7 -6.1 c 1
 204.007612452 0.154944980827 168.766131418 3.54679724664 135.155366416 3.54679724664 c 0
 105.313490725 3.54679724664 76.7563747346 0.88378124999 50.5 -4.8 c 1
 50.5 -4.8 46.9 15 45.6 26.7 c 1
 69.7 32 97.6010082901 32.0101985087 100.2 60.1 c 0
 106.592035428 135.524459054 110.295958228 248.146482965 110.295958228 331.112817812 c 0
 110.295958228 385.681513369 108.692653328 427.419804968 105.2 437.3 c 0
 99.6 460.7 76 461.4 49.2 465 c 1
 51.5 493.9 l 1
 91.6880056332 489.809642149 127.188509147 486.53150249 165.462832206 486.53150249 c 0
 190.449656339 486.53150249 216.650977119 487.918199837 246.2 491.3 c 1
 248.2 463.4 l 1
 231 460.1 195.245319488 459.378224968 192.4 445.8 c 1
 187.1 420.696972657 185.9 333.404296875 183.9 261.7 c 1
 466.5 262.4 l 1
 466.5 307.152636719 465.806491709 358.416252067 463.6 423.4 c 0
 461.9 459 434.1 457 405.7 466.9 c 1
 409.3 493.2 l 1
 437.647217518 488.153425621 463.803346364 485.24344048 490.298462559 485.24344048 c 0
 521.005730824 485.24344048 552.179096202 489.144697722 587.4 498.1 c 1
 592 470.2 l 1
 559.1 461.7 550.141842851 460.203951828 547.5 433.6 c 0
 538.339736862 337.250300852 536.808203125 209.72456416 536.808203125 162.402832031 c 1
EndSplineSet
EndChar
StartChar: uni01BF.smcp
Encoding: 57823 57823 898
Width: 507
Flags: HW
LayerCount: 2
Fore
SplineSet
194.277246094 -89.371484375 m 0
 197.16953125 -106.597167969 216.490750264 -110.049833967 228.086230469 -111.261425781 c 0
 238.495703125 -112.175878906 250.857128907 -114.005078125 259.966015625 -114.919824219 c 1
 258.1 -145 l 1
 222.26875 -142.700390625 193.787792969 -139 155.2 -139 c 3
 128.96353362 -139 86.3864663799 -144.700488281 60.75 -149.8 c 1
 54.9 -122 l 1
 65.8555664063 -119.441992188 73.6052550847 -117.167132323 84.7797851562 -113.713183594 c 0
 106.125585938 -106.986621094 107.584788783 -98.2720303268 111.272753906 -70.2104492186 c 0
 115.191699219 -31.7749023438 118.315722656 35.3700195313 118.315722656 147.548535156 c 3
 118.315722656 252.925292968 112.860620193 356.311824374 109.988769531 373.849316406 c 0
 106.787985322 405.57551912 97.8257309422 418.500878906 88.8634765625 418.500878906 c 3
 78.8234700521 418.500878906 55.73125 407.520507812 46.6952148438 407.520507812 c 1
 40 436.420019531 l 1
 73.7529729959 443.2109375 125.74995839 467.464257813 164.063769531 505.3 c 1
 177.454492187 498.408691407 185.265722656 501.120800782 185.265722656 410.200878906 c 1
 187.870507812 416.148242187 337.650488281 495.444140625 351.977539062 496.435546875 c 1
 395.436621094 496.435546875 465.8 414.603417969 465.8 335.694921875 c 3
 465.8 252.8421875 238.860557725 92.4620117188 160.716015625 58.204296875 c 1
 147.259960938 80.5586914064 l 1
 220.222363282 110.105761719 393.670507812 248.881347656 393.670507812 303.779199219 c 3
 393.670507812 372.22265625 345.030371094 426.197460938 306.629492187 426.197460938 c 3
 280.23390101 426.197460938 186.381738281 394.203125 186.381738281 363.362304688 c 0
 186.381738281 306.229882813 186.381738281 253.168945312 186.381738281 182.677246094 c 3
 186.381738281 110.816210938 189.068093429 -56.7013684823 194.277246094 -89.371484375 c 0
EndSplineSet
EndChar
StartChar: uni021D.smcp
Encoding: 57842 57842 1041
Width: 412
Flags: HW
LayerCount: 2
Fore
SplineSet
236.9 251.940234375 m 1
 286.294641507 241.951064487 372 171.577535861 372 114.301953125 c 3
 372 -1.59053173046 166.23734421 -124.360009251 56.0662109375 -134.4 c 1
 51.98359375 -104.598046875 l 1
 156.041091079 -96.1933117136 290.9 10.5369833128 290.9 99.3 c 3
 290.9 146.038032281 224.111692206 203.453661925 165.966503906 216.88125 c 1
 236.9 251.940234375 l 1
86.400390625 206.422753906 m 1
 181.435333011 231.026223695 272.483398438 281.837614456 272.483398438 367.849023438 c 3
 272.483398438 412.467911391 208.68761784 456.840234375 176.583007812 456.840234375 c 3
 136.099767903 456.840234375 88.3858417309 421.785364554 70.6500976562 362.91953125 c 1
 43 369.091601562 l 1
 49.2636693711 403.980139 54.8312590532 423.28001725 63.1836914062 458.168554687 c 1
 106.368322423 481.882206791 176.651087147 504.8 222.900292969 504.8 c 3
 267.438792164 504.8 349.949902344 440.708365204 349.949902344 392.378515625 c 3
 349.949902344 287.547778415 204.257918013 198.880473714 97.8334960938 180.964160156 c 1
 86.400390625 206.422753906 l 1
EndSplineSet
EndChar
StartChar: lambda.smcp
Encoding: 57855 57855 508
Width: 541
Flags: HW
LayerCount: 2
Fore
SplineSet
258 360.2 m 1
 215.688150781 254.003270313 157.825252344 130.50320625 134.4 61.8 c 0
 127.436891406 41.1450346875 150.5507 20.6 202.3 25.6 c 1
 201 -7.9 l 1
 177.386139731 -3.0680151692 135.783785628 -0.523665376076 97.3587253357 -0.523665376076 c 0
 70.5644478448 -0.523665376076 45.3213879617 -1.75647243732 28.9 -4.3 c 1
 28.9 -2.9 25.6 15.1 24.6 25.6 c 1
 60.3 33.3 81.294921875 46.5888671875 86.2 56.9 c 0
 153 202.9 210.290527344 333.666113281 258.4 452.4 c 0
 269.2 479.2 265.5 476.7 268.8 504.1 c 1
 303.4 504.1 l 1
 307.7 482 303.818359375 480.945605469 313.2 453.7 c 0
 365.5 295.9 399 197 473 44.5 c 0
 480.522460938 28.855078125 501.6 24.9 517 24.3 c 1
 517 22.9 516.7 5.9 515.7 -3.3 c 1
 494.182565243 -0.254256599327 466.75884155 1.50729709018 439.086507906 1.50729709018 c 0
 404.063276593 1.50729709018 368.619835808 -1.31095882042 344.5 -7.9 c 1
 344.5 -7.9 339.9 11.3 337.3 20.7 c 1
 364.377375 27.2 384.937650781 39.8950734375 380.1 53.6 c 0
 341.984583594 163.796005469 301.761133594 262.634222656 258 360.2 c 1
EndSplineSet
EndChar
StartChar: pi.smcp
Encoding: 57857 57857 669
Width: 639
Flags: HW
LayerCount: 2
Fore
SplineSet
184.5 55 m 0
 185.676367188 21.7938476563 221.7 23.7 243.9 17.4 c 1
 243.9 17.4 240.6 -1.4 240.3 -10.5 c 1
 204.607612452 -4.24505501917 169.366131418 -0.853202753358 135.755366416 -0.853202753358 c 0
 105.913490724 -0.853202753358 77.3563747346 -3.51621875001 51.1 -9.2 c 1
 51.1 -9.2 47.5 10.6 46.2 22.3 c 1
 70.3 27.6 98.4690429688 27.5931640625 100.8 55.7 c 0
 106.982943405 129.821125275 109.868481496 239.184656673 109.868481496 322.231325499 c 0
 109.868481496 380.968035736 108.433148464 426.602676564 105.8 437.3 c 0
 100.2 460.7 76.6 461.4 49.8 465 c 1
 52.1 493.9 l 1
 88.0541992188 490.35078125 120.157324219 487.116015625 154.010742188 486.60625 c 1
 210.549316406 486.844726562 439.125585937 486.693164062 499.219140625 486.570703125 c 1
 527.707617187 487.200292969 557.075292969 490.870507813 589.2 498.1 c 1
 593.8 470.2 l 1
 560.9 461.7 551.928222656 460.208203125 549.3 433.6 c 0
 543.099340554 363.644778273 538.141273709 250.476352616 538.141273709 164.387685542 c 0
 538.141273709 109.414426925 540.044610257 64.9030295813 544.4 49.3 c 0
 552 21.5 572.3 19.8 592.5 17.1 c 1
 592.5 17.1 588.9 -0.1 589.2 -9.2 c 1
 564.353421062 -3.90741591169 535.880514224 -0.896064511495 506.251364012 -0.896064511495 c 0
 475.397269476 -0.896064511495 443.291975989 -4.15677878441 412.8 -11.5 c 1
 412.8 -10.1 407.5 6.6 406.2 15.8 c 1
 437.8 24.4 458.20703125 26.2713867188 460.4 54.8 c 0
 465.929580232 130.083867528 469.029325669 196.811054053 469.029325669 268.509582646 c 0
 469.029325669 314.613091539 467.838142601 362.692600831 465.4 416.4 c 0
 463.893066406 444.74609375 442.086425781 453.823925781 413.65 454.159375 c 0
 392.315136719 455.166894531 265.214746094 455.075488281 239.65 455.030078125 c 1
 221.74609375 455.083105469 195.958300781 449.941992187 193 438.8 c 0
 184.881926349 394.660183091 181.770885951 295.665945235 181.770885951 205.793667539 c 0
 181.770885951 148.459460772 183.186675217 92.0295312525 184.5 55 c 0
EndSplineSet
EndChar
StartChar: phi.smcp
Encoding: 57860 57860 665
Width: 576
Flags: HW
LayerCount: 2
Fore
SplineSet
269.99609375 382.28828125 m 3
 192.74161567 382.28828125 134.213085938 336.636159211 134.213085938 269.286816406 c 3
 134.213085938 180.926533235 206.692091686 107.349609375 306.534960937 107.349609375 c 3
 390.393000324 107.349609375 440.44765625 159.508936145 440.44765625 224.333007812 c 3
 440.44765625 320.943476133 364.983528666 382.28828125 269.99609375 382.28828125 c 3
294.886132813 415 m 3
 423.767773438 415 525.3 334.979199219 525.3 240.724902344 c 3
 525.3 149.210576156 428.984960937 74.6 292.0703125 74.6 c 3
 149.54609375 74.6 51.5 156.316548239 51.5 240.724902344 c 3
 51.5 336.579199219 163.2328125 415 294.886132813 415 c 3
EndSplineSet
Refer: 440 57679 N 0.932061 0 0 1 133.498 0 2
EndChar
StartChar: omega.smcp
Encoding: 57862 57862 609
Width: 587
Flags: HW
LayerCount: 2
Fore
SplineSet
242.119140625 1.1322265625 m 1
 162.01431353 0.96044921875 86.3308488484 -1.45888671875 76.2203125 -6.5 c 1
 78.512890625 44.6486681841 76.8724609375 96.8217555093 69.6465820313 137.585546875 c 1
 105.771289063 141.13359375 l 1
 106.471289063 108.084492459 107.682226563 79.3043149884 141.638964844 75.5865234375 c 1
 156.258957656 73.5640625 173.729318721 72.1750976563 192.162988281 71.4049804687 c 1
 186.862833405 153.177662577 53.5 172.811719577 53.5 299.353808594 c 1
 53.5 407.328125 164.150655591 501.6 296.931054688 501.6 c 1
 428.918889887 501.6 535.4 410.617871094 535.4 299.353808594 c 1
 535.4 173.695394637 400.889168597 146.613692965 393.941015625 71.3692382813 c 1
 416.388609944 72.312109375 436.463055233 75.7678621677 450.952148438 77.0061523438 c 0
 478.422949219 79.2388742098 476.134570312 109.386222651 479.949902344 138.975390625 c 1
 518.364355469 136.1375 l 1
 507.353613281 80.1345703124 504.9875 40.7176757813 508.299902344 -6.5 c 1
 497.136646515 -2.02724609375 420.822403035 0.61396484375 340.543457031 1.061328125 c 1
 354.299293016 173.049121094 449.223730469 131.138378906 449.223730469 285.1609375 c 1
 449.223730469 379.113591237 367.062955955 462.627636719 267.295410156 462.627636719 c 1
 196.063870651 462.627636719 138.470507812 406.359433694 138.470507812 328.449023437 c 1
 138.470507812 175.716894531 228.831360851 185.43359375 242.119140625 1.1322265625 c 1
EndSplineSet
EndChar
StartChar: uni1E9E.smcp
Encoding: 57944 57944 1647
Width: 687
Flags: HW
LayerCount: 2
Fore
SplineSet
423.6 466.7858 m 1
 394.98432196 478.648570486 362.770646373 482.410253907 340.075585938 482.410253907 c 3
 220.597629026 482.410253907 160.511230468 406.926828042 160.511230468 295.763378907 c 0
 160.511230468 274.53437177 164.56481936 78.8255002296 164.702246093 74.1885742188 c 0
 166.818215617 24.1654001577 186.889706378 22.3464866418 235.558691407 16.8897460937 c 1
 232.4125 -10.0526367187 l 1
 171.195413678 -5.08564453125 70.6781689851 -5.08564453125 25.3322265625 -10.0526367187 c 1
 21.4 19.7276367187 l 1
 78.5593655042 28.138768722 86.92421875 28.8421263276 86.92421875 72.06015625 c 0
 86.92421875 81.5387125486 84.3919921875 278.07230364 84.3919921875 297.030078125 c 3
 84.3919921875 411.753306923 184.356761376 515 328.27890625 515 c 3
 412.350099218 515 483.12979375 487.122953907 530.390429688 461.822324218 c 1
 520.1671875 438.292167188 l 1
 437.172814843 462.62155 383.328710937 409.7314875 383.328710937 361.037597657 c 3
 383.328710937 306.771232767 429.343214611 300.627854071 512.6 269.7 c 0
 611.8388 235.5794 636.8 178.058745098 636.8 124.639648438 c 3
 636.8 68.7903344329 596.583209391 -8.7 456.190136718 -8.7 c 3
 420.573461885 -8.7 383.014378501 -3.75544298195 350.636035157 9.06591796875 c 0
 335.52626375 15.048974003 333.593847657 12.9415420603 327.829394532 -5.1431640625 c 1
 302.663964843 -1.6052734375 l 1
 303.275578193 48.8449046724 301.441175804 62.0057894083 285.544042968 140.239257812 c 1
 312.282226562 144.49609375 l 1
 323.452050125 104.287158587 331.559992338 92.16963319 347.758300782 76.3454101562 c 0
 374.801429098 49.9472620824 434.16405055 26.0086914063 476.377832032 26.0086914063 c 3
 540.487804973 26.0086914063 566.885742188 72.1421764998 566.885742188 107.677929687 c 3
 566.885742188 184.09244982 464.722462825 205.984599048 425 222.3 c 0
 405.511154589 229.572747686 312.360644532 256.990364059 312.360644532 346.800097657 c 3
 312.360644532 393.593876474 349.4227 447.799569095 423.6 466.7858 c 1
EndSplineSet
Substitution2: "salt-1" germandbls.smcp
EndChar
StartChar: Tilde
Encoding: 58022 58022 2683
Width: 329
Flags: HW
AnchorPoint: "Top" 165 699 mark 0
LayerCount: 2
Fore
SplineSet
21.068359375 762.5 m 1
 53.9169921875 803.602539062 76.4521484375 834.836914062 108.780273438 834.836914062 c 3
 149.24609375 834.836914062 201.004882812 794.051757812 234.8671875 794.051757812 c 3
 241.6171875 794.051757812 271.202148438 823.845703125 287.891601562 859 c 1
 312.198242188 848 l 1
 290.797851562 808.625976562 262.001953125 770.051757812 237.077148438 770.051757812 c 3
 194.181640625 770.051757812 136.3046875 810.836914062 105.466796875 810.836914062 c 3
 98.115234375 810.836914062 73.548828125 788 42.61328125 749 c 1
 21.068359375 762.5 l 1
EndSplineSet
EndChar
StartChar: Ring
Encoding: 58026 58026 2667
Width: 281
Flags: HW
AnchorPoint: "Top" 132 699 mark 0
LayerCount: 2
Fore
SplineSet
139.5 868.246 m 3
 114.908 868.246 92.1377 848.208 92.1377 820.884 c 3
 92.1377 793.56 113.998 775.344 139.5 775.344 c 3
 164.092 775.344 186.862 795.382 186.862 822.706 c 3
 186.862 848.208 165.002 868.246 139.5 868.246 c 3
139.5 892.24609375 m 3
 177.926364143 892.24609375 210.862304688 861.647974831 210.862304688 822.706054688 c 3
 210.862304688 781.534478745 176.553345678 751.34375 139.5 751.34375 c 3
 101.073851661 751.34375 68.1376953125 779.159765625 68.1376953125 820.883789062 c 3
 68.1376953125 862.053714743 102.446617826 892.24609375 139.5 892.24609375 c 3
EndSplineSet
EndChar
StartChar: Uni0327
Encoding: 58030 58030 2699
Width: 0
Flags: HW
AnchorPoint: "Bottom" -191 -15 mark 0
LayerCount: 2
Fore
SplineSet
-302.112 -226.844 m 1
 -297.392578125 -202.880859375 l 1
 -222 -235 -148 -179.459508074 -148 -126 c 3
 -148 -77.9895844634 -203 -72 -240.667 -104.142 c 1
 -245.892 -77.6221 l 1
 -240.418661468 -73.5834587345 -234.393750699 -70.6276605553 -228.581054688 -67.529296875 c 0
 -196.696542671 -50.5337729728 -200.35818991 -45.0223492888 -180.571289062 -3.556640625 c 1
 -153.571289062 2.443359375 l 1
 -153.571289062 2.443359375 -165.513492286 -35.880350386 -182.390625 -59.6669921875 c 1
 -149.886111011 -65.4550178082 -124.031 -90.6444225187 -124.031 -124.709 c 3
 -124.031 -204.066 -223.518 -260.771 -302.112 -226.844 c 1
EndSplineSet
EndChar
StartChar: Uni030F
Encoding: 58034 58034 2695
Width: 300
Flags: HW
AnchorPoint: "Top" 87 699 mark 0
LayerCount: 2
Back
SplineSet
184 751.700195312 m 1
 146.534482759 817.684313322 129.916318696 845.950947209 90.5 891 c 1
 90.5 891 78.8423549107 882.143028847 71.5 875 c 1
 107.382591808 834.864771528 122.813426907 810.973299651 163.5 740 c 1
 184 751.700195312 l 1
23.5 754 m 1
 -25.7091306482 833.30420322 -39.7937986329 847.939245323 -78.5 887 c 1
 -78.5 887 -89.0124544504 877.393990217 -95.5 870 c 1
 -57.0323763498 833.708298965 -41.7479164617 812.869294591 1.5 742 c 1
 23.5 754 l 1
EndSplineSet
Fore
SplineSet
184 752 m 1
 163.5 740.299804688 l 1
 121.56910204 813.111103611 107.045913654 834.95413944 71 875 c 1
 78.3423549107 882.143028847 90 891 90 891 c 1
 129.997382813 844.603820134 146.963098318 816.625691515 184 752 c 1
24 754 m 1
 1 742 l 1
 -41.8020616531 812.869294591 -56.9289497896 833.708298965 -95 870 c 1
 -88.8940747766 876.959049616 -79 886 -79 886 c 1
 -37.8947182268 847.232935208 -25.691573105 833.700412218 24 754 c 1
EndSplineSet
EndChar
StartChar: Cedillafloating
Encoding: 58085 58085 2553
Width: 0
Flags: HW
AnchorPoint: "Bottom" -193 -15 mark 0
LayerCount: 2
Fore
SplineSet
-302.112 -226.844 m 1
 -297.393 -200.881 l 1
 -243.408 -212.801 -194.928 -182.057 -194.928 -139.091 c 3
 -194.928 -120.892 -206.798 -92.29 -240.642 -104.142 c 1
 -245.892 -77.6221 l 1
 -199.032 -34.292 -124.031 -58.5156 -124.031 -124.709 c 3
 -124.031 -204.066 -223.518 -260.771 -302.112 -226.844 c 1
EndSplineSet
EndChar
StartChar: breve.cyrillic
Encoding: 58086 58086 227
Width: 0
Flags: HW
AnchorPoint: "TopMark" -200.5 396 mark 0
AnchorPoint: "TopMark" -202 541 basemark 0
AnchorPoint: "Top" -198.5 393 mark 0
LayerCount: 2
Fore
SplineSet
-197 461 m 3
 -161.03125 461 -123.94140625 479.78515625 -110.703125 504 c 0
 -104.095703125 516.083984375 -103.305664062 525.9140625 -103.432617188 539 c 0
 -103.559570312 552.119140625 -96.00390625 557 -93.2431640625 557 c 3
 -86.7919921875 557 -79.3779296875 551.619140625 -79.3779296875 538 c 3
 -79.3779296875 466.219726562 -142.217773438 437 -197 437 c 3
 -251.783203125 437 -314.622070312 466.522460938 -314.622070312 536 c 3
 -314.622070312 552.841796875 -307.208007812 557 -300.756835938 557 c 3
 -297.99609375 557 -290.440429688 552.119140625 -290.567382812 539 c 0
 -290.694335938 525.9140625 -289.987304688 515.030273438 -283.296875 503 c 0
 -269.612304688 478.388671875 -232.96875 461 -197 461 c 3
EndSplineSet
EndChar
StartChar: mediumrule
Encoding: 58114 58114 534
Width: 1000
Flags: HW
LayerCount: 2
Fore
SplineSet
0 -12 m 1
 0 12 l 1
 1000 12 l 1
 1000 -12 l 1
 0 -12 l 1
EndSplineSet
EndChar
StartChar: thickrule
Encoding: 58115 58115 780
Width: 1000
Flags: HW
LayerCount: 2
Fore
SplineSet
0 -12 m 1
 0 12 l 1
 1000 12 l 1
 1000 -12 l 1
 0 -12 l 1
EndSplineSet
EndChar
StartChar: R.alt
Encoding: 58117 58117 2661
Width: 738
Flags: HW
AnchorPoint: "Top" 284 699 basechar 0
AnchorPoint: "Bottom" 357 -15 basechar 0
LayerCount: 2
Fore
SplineSet
120 372 m 1
 184 371 217 369 281 369 c 3
 507 369 509 495.487012987 509 520 c 3
 509 601.403846154 419 673 300 673 c 3
 230 673 119 656 119 655 c 0
 119 565.889273356 120 461.110726644 120 372 c 1
12 683 m 1
 64 682 87 681 104 681 c 0
 156 681 205 697 300 697 c 0
 428 697 533 619.316666667 533 520 c 0
 533 434.505813954 467.199507389 359.173750334 338 347 c 1
 449.481182796 127.923076924 562.935483871 -7.04395604396 705 -9 c 1
 701 -33 l 1
 549.557251908 -37.9348958334 413.951653944 132.8125 312 346 c 1
 300.620689655 346 290.849783514 345 282 345 c 0
 219 345 183 347 120 348 c 1
 119 226 119 134 119 35 c 0
 119 10 120 39 268 9 c 1
 264 -14 l 1
 221 -5 158 0 135 0 c 3
 98 0 60 -4 23 -11 c 1
 18 12 l 1
 94 30 95 16 95 32 c 1
 95 171 96 265 96 357 c 3
 96 445.205980066 95 532.431893688 95 652 c 1
 96 656 94 657 12 659 c 1
 12 683 l 1
EndSplineSet
Position2: "cpsp-1" dx=0 dy=0 dh=50 dv=100
EndChar
StartChar: Eng.alt
Encoding: 58128 58128 2573
Width: 644
Flags: HW
AnchorPoint: "Top" 376 699 basechar 0
LayerCount: 2
Fore
SplineSet
472 -189 m 0
 433 -216 396 -241 337 -241 c 3
 305 -241 255 -230 230 -208 c 1
 231.224489796 -178.046875 230 -178.046875 290 -137 c 1
 329 -155 352.349151158 -179 398 -179 c 3
 430.844834062 -179 454.83488091 -169.009507851 472.325428578 -152.000001538 c 0
 501.877861918 -123.260346783 512.875354622 -74.4826263989 516.67882769 -20.0000030978 c 0
 520.065805052 28.5165522951 517.748046875 81.5569989285 517.748046875 129 c 3
 517.748046875 262.322736529 516.444941261 418.337634996 514.400390625 474.25 c 0
 510.45703125 557.28515625 482.892578125 616.5 398.799804688 616.5 c 3
 315.755859375 616.5 243.092773438 591.5 186 554 c 1
 186.35546875 394.240234375 187.599609375 171.71875 187.599609375 103.25 c 3
 187.599609375 31.212890625 219.473632812 38.583984375 277 26 c 1
 277 26 273 3 272 -11 c 1
 220.392393862 -2.39873231031 175.431590595 2.44564680006 132.612272285 2.44564680006 c 3
 95.7794837565 2.44564680006 60.5312407821 -1.1388469203 24 -9 c 1
 24 -9 19 15 17 33 c 1
 74.3115234375 42.5517578125 103.879626051 52.6318416483 105.200195312 112 c 0
 106.524414062 171.532226562 106 286.786132812 106 348.25 c 3
 106 383.25 101.497214487 503.950207231 98.599609375 539 c 0
 94.0888671875 593.5625 73.6376953125 597 64.400390625 597 c 3
 52.6728515625 597 30 588 12.2001953125 586.25 c 1
 4 622 l 1
 50.0712890625 631.827148438 98.142578125 647.166015625 158.400390625 695 c 1
 169.73501623 692.225454124 175.466794585 685.750398119 178.695350016 676.0000023 c 0
 185.180868524 656.413418178 186.200195312 617.967124914 186.200195312 592.5 c 1
 259.465820312 640.010742188 338.837890625 698.25 435 698.25 c 3
 535.096679688 698.25 596.799804688 628.25 596.799804688 504 c 3
 596.799804688 425.760144292 595.857421875 274.53035286 595.857421875 156 c 3
 595.857421875 38.8947195443 595.126004381 -30.1617295323 570.632804953 -84 c 0
 552.977241109 -122.80852823 522.974969982 -153.709636166 472 -189 c 0
EndSplineSet
Substitution2: "c2sc-1" eng.altsmcp
Substitution2: "c2pc-1" eng
EndChar
StartChar: dollar.alt
Encoding: 58288 58288 289
Width: 463
UnlinkRmOvrlpSave: 1
Flags: HW
LayerCount: 2
Fore
SplineSet
412 600 m 1
 389.692382812 566.166992188 376.461914062 542 354 513 c 1
 335 524 l 1
 343 537 347 547.356445312 347 564 c 3
 347 612.899707031 302.518554688 646 255 646 c 3
 190.223632812 646 131 598.356532505 131 532 c 3
 131 450.41796875 204.400490918 421.427893749 275 377 c 0
 363 321.622070312 423 274.197265625 423 176 c 3
 423 71.1904296875 331.307617188 -8 227 -8 c 3
 142.650390625 -8 67.341796875 66.025390625 35 152 c 1
 52.9228515625 174.013671875 78.349609375 198.633789062 99 224 c 1
 121 210 l 1
 109.299804688 196.888671875 108 173.958984375 108 151 c 3
 108 83.4521484375 167.880859375 26 233 26 c 3
 315.29296875 26 368 90.064453125 368 156 c 3
 368 233.665039062 318.283714979 255.120419394 243 307 c 0
 157.59765625 365.852539062 67 403.629882812 67 508 c 3
 67 602.802734375 155.541015625 672 255 672 c 3
 322.590820312 672 379.731445312 633.051757812 412 600 c 1
EndSplineSet
Refer: 781 58113 N 0.023288 0.784654 -0.99956 0.0296662 223.356 -61.8272 2
EndChar
StartChar: f_j
Encoding: 58320 58320 387
Width: 568
Flags: HW
LayerCount: 2
Fore
SplineSet
420 196 m 0
 420 37 418 -47 418 -84 c 3
 418 -144.019607843 403.949746252 -162.665093967 390 -184 c 0
 373 -210 343.665243608 -233.321075033 325 -258 c 0
 315.933916537 -269.987049204 301.705882353 -294.426470588 301 -335 c 1
 276 -332 l 1
 280.357142857 -279.472727273 297 -248 321 -225 c 0
 345.762218808 -201.269540309 375.155271079 -168.303595648 385 -140 c 0
 393 -117 396 -93 396 96 c 3
 396 187.938553976 397.966855123 259.612622014 401 310 c 0
 405.285964446 381.199536882 410 389 402 389 c 3
 302.141843972 389 146 389 146 389 c 1
 146 349 146 317 146 300 c 0
 146 208.99450566 145 124 145 36 c 0
 145 26 145 26.4583333333 156 26 c 0
 180 25 202 23 226 21 c 1
 222 -3 l 1
 196 1 159 2 133 2 c 0
 112 2 80 -1 59 -5 c 1
 55 19 l 1
 70 21 88.1021166551 22.8877645819 105 25 c 0
 121 27 121 26 121 63 c 0
 121 122 122 198.993243552 122 273 c 0
 122 298 122 343 122 389 c 1
 100 389 80 389 58 389 c 1
 58 413 l 1
 80 413 100 413 122 413 c 1
 122 448 122 489 122 500 c 0
 122 608.465116279 162.930010807 664.334921509 215 712 c 0
 239.275862069 734.222222222 286.724137931 769 343 769 c 0
 408.391304348 769 471 741.710526316 503 708 c 1
 488 690 l 1
 443.05 731.25 382.15 745 343 745 c 0
 269.408045977 745 146 666 146 505 c 0
 146 495 146 448 146 413 c 1
 401.346679688 413 l 3
 415.263795946 413 429.082651127 424.733087905 436 439 c 1
 458 429 l 1
 445.706434294 405.723288747 435.540607171 377.994067094 431.998046875 363.400390625 c 0
 425.390935184 336.182208756 420 213.04215023 420 196 c 0
EndSplineSet
LCarets2: 1 0
Ligature2: "liga-1" f j
EndChar
StartChar: one.smaller
Encoding: 58359 58359 620
Width: 261
Flags: HW
LayerCount: 2
Fore
SplineSet
81 273 m 1
 88.7490157328 272.031373033 99.5212434447 271.479740823 111.364440037 271.479740823 c 0
 136.201607507 271.479740823 165.749015733 273.9058809 182 280 c 1
 188 257 l 1
 145 242 144 256 144 241 c 0
 144 232 144 175 144 138 c 3
 144 98 145 46 145 37 c 0
 145 22 145 30 189 24 c 1
 187 0 l 1
 169.064142124 2.11010092661 148.623738417 3.38535324313 128.027608648 3.38535324313 c 0
 109.580810168 3.38535324313 91.0090916605 2.36237384174 74 0 c 1
 71 24 l 1
 121 31 121 23 121 36 c 0
 121 43 120 60 120 138 c 3
 120 217.005859375 120 235 120 242 c 0
 120 249 120 246 78 249 c 1
 81 273 l 1
EndSplineSet
EndChar
StartChar: zero.tabulartext
Encoding: 58368 58368 2518
Width: 463
Flags: HW
LayerCount: 2
Fore
SplineSet
228 376 m 3
 134 376 53 291 53 194 c 3
 53 98 131 19 229 19 c 3
 326 19 397 97 397 194 c 3
 397 294 321 376 228 376 c 3
228 400 m 3
 336 400 421 306 421 194 c 3
 421 85 340 -5 229 -5 c 3
 118 -5 29 85 29 194 c 3
 29 304 119 400 228 400 c 3
EndSplineSet
Substitution2: "pnum-1" zero
Substitution2: "lnum-1" zero.tabularlining
Substitution2: "numr-1" zero.numerator
Substitution2: "dnom-1" zero.denom
Substitution2: "'zero' Slashed Zero lookup 22-1" zero.tabulartextalt
EndChar
StartChar: one.tabulartext
Encoding: 58369 58369 623
Width: 463
Flags: HW
LayerCount: 2
Fore
SplineSet
110 398 m 1
 124.394469778 396.644374625 151.169776751 395.838791924 182.270873094 395.838791924 c 0
 245.560108263 395.838791924 326.762563723 399.174733448 358 408 c 1
 362 384 l 1
 249 365 246.40234375 386.323242188 246 346 c 0
 245.905273438 336.50390625 246 251.701171875 246 200 c 3
 246 140.739257812 246.294921875 53.6474609375 246 37 c 0
 245.561523438 12.244140625 247 29 366 18 c 1
 364 -6 l 1
 332.166051021 -2.66591006792 279.598062601 -0.832670682331 227.613665093 -0.832670682331 c 0
 178.601697069 -0.832670682331 130.108489394 -2.46225723525 100 -6 c 1
 99 18 l 1
 223 30 222 13.58984375 222 41 c 0
 222 50.7099609375 222 85.55078125 222 200 c 3
 222 303.493164062 223.067382812 337.6640625 223 344 c 0
 222.571289062 384.444335938 223 368 110 374 c 1
 110 398 l 1
EndSplineSet
Substitution2: "salt-1" one.tabulartextalt
Substitution2: "dnom-1" one.denom
Substitution2: "numr-1" one.numerator
Substitution2: "lnum-1" one.tabularlining
Substitution2: "pnum-1" one
EndChar
StartChar: five.tabulartext
Encoding: 58373 58373 372
Width: 463
Flags: HW
LayerCount: 2
Fore
SplineSet
137 393.5 m 1
 216.559517045 395.450195312 321.719152377 396.574990853 341 398.5 c 0
 372.999286358 402.759765625 389.595233623 428.610351562 404 448.5 c 1
 404 448.5 420.100260417 436.006975446 424 433.5 c 1
 401.673918547 397.903482198 366.237023847 373.269193807 347 372.5 c 0
 308.055057921 371.372070312 241.115907867 369.5 162 369.5 c 1
 162 369.5 150.213134766 285.167646301 141 218.5 c 1
 227.268437748 223.038461538 350 171.921435836 350 48.5 c 3
 350 -94.5019975984 172.727272727 -204.068311195 50 -213 c 1
 50 -213 50.169921875 -192.570007324 49 -188 c 1
 163.620689656 -178.644549763 326 -79.3305131813 326 48 c 3
 326 117.068446006 270.654960517 206.032258065 112 193 c 1
 121.5 239.492753623 133.359375 320.158621651 137 393.5 c 1
EndSplineSet
Substitution2: "pnum-1" five
Substitution2: "lnum-1" five.tabularlining
Substitution2: "numr-1" five.numerator
Substitution2: "dnom-1" five.denom
EndChar
StartChar: zero.proportionallining
Encoding: 58388 58388 2512
Width: 500
Flags: HW
LayerCount: 2
Fore
SplineSet
258 632 m 3
 166.463867188 632 78 545.3203125 78 331 c 3
 78 160.580078125 133.546875 13 244 13 c 3
 336.1953125 13 422 102.40625 422 331 c 3
 422 497.840820312 369.15625 632 258 632 c 3
258 656 m 3
 362.227539062 656 446 551.959960938 446 333 c 3
 446 101.875 360.78125 -10 244 -10 c 3
 138.549804688 -10 54 101.875 54 333 c 3
 54 548.728515625 147.286132812 656 258 656 c 3
EndSplineSet
Substitution2: "tnum-1" zero.tabularlining
Substitution2: "onum-1" zero
Substitution2: "numr-1" zero.numerator
Substitution2: "dnom-1" zero.denom
Substitution2: "'zero' Slashed Zero lookup 22-1" zero.proportionalliningalt
EndChar
StartChar: zero.pcap
Encoding: 58518 58518 2897
Width: 540
Flags: HW
LayerCount: 2
Fore
SplineSet
273 376 m 3
 179 376 98 291 98 194 c 3
 98 98 176 19 274 19 c 3
 371 19 442 97 442 194 c 3
 442 294 366 376 273 376 c 3
273 400 m 3
 381 400 466 306 466 194 c 3
 466 85 385 -5 274 -5 c 3
 163 -5 74 85 74 194 c 3
 74 304 164 400 273 400 c 3
EndSplineSet
EndChar
StartChar: four.pcap
Encoding: 58522 58522 2901
Width: 477
Flags: HW
LayerCount: 2
Back
SplineSet
45.9566606135 61.6867200119 m 0
 39.5012636055 61.6867200119 33.959013687 67.2257477934 33.959013687 73.6843669384 c 0
 33.959013687 78.1463525352 36.612002194 81.2778172021 39.4116694852 84.0774844933 c 0
 61.0568827193 105.722697727 132.986245169 188.899029531 195.685945643 262.342796662 c 0
 229.442178914 301.883415147 261.702058335 340.630224824 285.106408491 370.723384356 c 0
 298.556153642 388.01697823 308.979205053 402.006632849 315.182468949 412.185951317 c 0
 317.200825953 415.497997857 321.269843038 417.942574242 325.434414693 417.942574242 c 0
 331.889811701 417.942574242 337.43206162 412.40354646 337.43206162 405.944927315 c 0
 337.43206162 403.779291574 336.850161225 401.613655833 335.686360437 399.703903313 c 0
 329.088815147 388.87758418 319.565705709 376.034126293 307.621711486 360.58888604 c 0
 308.539001789 358.845293302 309.027969799 356.922407911 308.999017559 354.999979145 c 2
 305.229787725 104.723118182 l 1
 391.961741849 104.997586392 l 2
 392.096792574 104.997586392 392.231849159 104.992079622 392.36684964 104.992079622 c 0
 400.015468639 121.5163651 407.441716463 138.050103198 412.500677555 149.413161545 c 0
 412.923577361 156.014124821 418.81369068 160.645095432 424.974465476 160.645095432 c 0
 429.104124046 160.645095432 432.130559006 158.152422685 432.152724101 158.106129858 c 0
 435.119082075 155.976571221 437.160433213 152.152254011 437.160433213 148.350211938 c 0
 437.160433213 146.686144993 436.816859903 145.022078049 436.129713284 143.474101946 c 0
 429.078523883 127.58946774 415.601173725 97.5169023353 403.778856658 72.8510700977 c 0
 401.946750397 69.0286023521 397.603588836 66.0450797031 392.957547558 66.0450797031 c 0
 386.50215055 66.0450797031 380.959900632 71.5841074846 380.959900632 78.0427266296 c 0
 380.959900632 79.0259650443 381.079849321 80.009203459 381.3197467 80.9684942684 c 1
 304.86839377 80.7265596072 l 1
 304.120482796 31.0652709321 l 1
 305.801703801 31.9031432213 307.63923618 32.3220793659 309.476768559 32.3220793659 c 0
 315.932165567 32.3220793659 321.474415485 26.7830515843 321.474415485 20.3244324394 c 0
 321.474415485 16.4275373706 319.334313019 12.5410668864 316.276686236 10.4348794902 c 0
 301.502572038 0.258015106234 289.624368846 -10.591268267 279.885641109 -25.1392864358 c 0
 277.79858735 -28.2569930633 273.867760368 -30.468142996 269.907041884 -30.468142996 c 0
 263.451644876 -30.468142996 257.909394958 -24.9291152145 257.909394958 -18.4704960696 c 0
 257.909394958 -16.1414732322 258.582410858 -13.8124503948 259.92844266 -11.8017057033 c 0
 266.5929461 -1.84606059648 274.405925468 6.9828170055 283.153512444 14.891725166 c 1
 281.052739531 17.1807684668 279.957167892 20.0907347856 280.000982438 23.0000206421 c 2
 280.869214248 80.6506128366 l 1
 76.0382581507 80.0024136084 l 2
 73.9853576266 80.0024136084 71.9311030727 80.5166645647 70.0934634406 81.5537990909 c 0
 63.4349882607 74.3218136407 59.2923507926 69.8704923591 54.2808373 65.0409300872 c 0
 51.9604518486 62.804790037 48.958556231 61.6867200119 45.9566606135 61.6867200119 c 0
284.647531117 331.530852943 m 1
 263.909089883 305.824599056 239.348807655 276.522249848 213.954430992 246.776355178 c 0
 170.552408001 195.937068141 123.262952346 140.968999341 90.3940533526 104.043258263 c 1
 281.230608203 104.647171412 l 1
 284.647531117 331.530852943 l 1
EndSplineSet
Fore
SplineSet
282 104.5 m 1
 284 185.840517242 284 275.51543137 284 330.5 c 1
 284 330.5 164.101875952 187.077215786 91 104.5 c 1
 282 104.5 l 1
343 409.5 m 1
 309.739720395 362.370117188 309.377720639 359.677386557 309 342.5 c 0
 307 251.547138047 306.754882812 207.633489846 305 104.5 c 1
 403.243697479 105.43220339 390.6302521 96.8559322034 412 146.5 c 1
 412 146.5 428.3203125 139.83984375 433 137.5 c 1
 433 137.5 415.535574777 96.9347465701 403 71 c 1
 380.038085937 82.9897460938 375.772460938 81.0756835938 305 81 c 1
 304.793945312 22.6006048736 307.56640625 17.6915874955 312 7.5 c 1
 292.24 -6.18150684932 281.093333333 -20.154109589 274 -35 c 1
 274 -35 257.469835069 -23.2338610197 255 -18 c 1
 281.529411766 15.1070663812 280.688591454 10.687562734 281 81 c 1
 52.4621513947 81 80 87 47 57 c 1
 47 57 33.3459821429 69.56796875 29 73 c 1
 41.9940564636 86.3288802249 302.193269409 376.898306422 320.5 422.299804688 c 1
 343 409.5 l 1
EndSplineSet
EndChar
StartChar: uniFB01
Encoding: 64257 64257 2397
Width: 576
Flags: HW
LayerCount: 2
Fore
SplineSet
428 389 m 3
 318 389 146 389 146 389 c 1
 146 349 146 317 146 300 c 0
 146 208.99450566 145 124 145 36 c 0
 145 26 145 26.4583333333 156 26 c 0
 180 25 202 23 226 21 c 1
 222 -3 l 1
 196 1 159 2 133 2 c 0
 112 2 80 -1 59 -5 c 1
 55 19 l 1
 70 21 88.1021166551 22.8877645819 105 25 c 0
 121 27 121 26 121 63 c 0
 121 122 122 198.993243552 122 273 c 0
 122 298 122 343 122 389 c 1
 100 389 80 389 58 389 c 1
 58 413 l 1
 80 413 100 413 122 413 c 1
 122 448 122 489 122 500 c 0
 122 608.465116279 162.930010807 664.334921509 215 712 c 0
 239.275862069 734.222222222 286.724137931 769 343 769 c 0
 408.391304348 769 471 741.710526316 503 708 c 1
 488 690 l 1
 443.05 731.25 382.15 745 343 745 c 0
 269.408045977 745 146 666 146 505 c 0
 146 495 146 448 146 413 c 1
 427.346927618 413 l 3
 441.263944305 413 455.082700618 424.733087905 462 439 c 1
 484 429 l 1
 471.706434294 405.723288747 460.43574326 378.019124151 457.998046875 363.400390625 c 0
 453.987999859 339.352355307 454 221.125039765 454 205 c 0
 454 158.309942197 454 80.5956936218 454 35 c 0
 454 29.307394375 465.649055052 30.3547560119 505 28 c 0
 527.034133333 26.68148 550.333333333 21.333333 569 20 c 1
 566 -4 l 1
 527.936 2 484.992 7 444 7 c 0
 418.375 7 387.625 0 362 -4 c 1
 357.99609375 20.0048828125 l 1
 378.714643973 23.6056410372 393.479773396 25.8383811158 404 27.7341166019 c 0
 431.447214981 32.6800803526 430 35.3321033437 430 54 c 0
 430 86.75 430 150.94 430 185 c 0
 430 205 430 247 430 310 c 0
 430 387.451081968 441.03840481 389 428 389 c 3
EndSplineSet
LCarets2: 1 298
Ligature2: "liga-1" f i
EndChar
StartChar: uniFB02
Encoding: 64258 64258 2398
Width: 592
Flags: HW
LayerCount: 2
Fore
SplineSet
458 413 m 1
 458 699 l 2
 458 713 411 745 338 745 c 0
 266.275862069 745 146 666 146 505 c 0
 146 495 146 448 146 413 c 1
 458 413 l 1
477 749 m 1
 496 734 l 1
 483 719 482 718 482 686 c 0
 482 611 482 424 482 300 c 0
 482 215 482 83 482 45 c 0
 482 27 479.978013455 28.7158561818 504 27 c 0
 518 26 541 24 576 17 c 1
 572 -7 l 1
 540 -1 510 4 469 4 c 0
 449 4 395 -1 366 -5 c 1
 364 19 l 1
 383 21 408.019821839 24.6464401187 429 26 c 0
 460 28 458 27 458 49 c 0
 458 108 458 200 458 274 c 2
 458 389 l 1
 384 389 l 0
 146 389 l 1
 146 349 146 317 146 300 c 0
 146 208.99450566 145 124 145 36 c 0
 145 26 145 26.4583333333 156 26 c 0
 184.114285714 25 209.885714286 23 238 21 c 1
 234 -3 l 1
 204.494382022 1 162.505617978 2 133 2 c 0
 112 2 80 -1 59 -5 c 1
 55 19 l 1
 70 21 88.1021166551 22.8877645819 105 25 c 0
 121 27 121 26 121 63 c 0
 121 122 122 198.993243552 122 273 c 0
 122 298 122 343 122 389 c 1
 100 389 80 389 58 389 c 1
 58 413 l 1
 80 413 100 413 122 413 c 1
 122 448 122 489 122 500 c 0
 122 610 162.695121951 669 215 715 c 0
 239.078228229 736.17581648 283.922413793 769 338 769 c 0
 417.863140095 769 455.973620737 737.399414062 462.756835938 737.399414062 c 0
 468.028952728 737.399414062 471.687195168 744.757959736 477 749 c 1
EndSplineSet
LCarets2: 1 292
Ligature2: "liga-1" f l
EndChar
StartChar: uniFB22
Encoding: 64290 64290 2403
Width: 812
Flags: HW
AnchorPoint: "Top" 220.4 619.44 basechar 0
LayerCount: 2
Fore
SplineSet
121.799804688 567.240234375 m 1
 283.056640625 576.51953125 678.01953125 563.759765625 757.48046875 557.959960938 c 1
 766.759765625 548.6796875 777.200195312 539.400390625 785.3203125 530.120117188 c 1
 775.348632812 491.803710938 766.684570312 454.036132812 759.77734375 416.440429688 c 1
 744.8515625 406.759765625 731.645507812 397.099609375 720.360351562 387.440429688 c 1
 729.639648438 261.584960938 729.639648438 146.944335938 726.16015625 68.4404296875 c 1
 707.599609375 38.2802734375 687.879882812 6.9599609375 672.799804688 -19.7197265625 c 1
 643.799804688 -4.6396484375 l 1
 655.400390625 138.409179688 667 276.526367188 667 386.280273438 c 1
 670.987304688 400.060546875 675.772460938 412.310546875 679.759765625 424.559570312 c 1
 473.325195312 429.973632812 248.364257812 432.29296875 134.559570312 431.51953125 c 1
 98.599609375 436.16015625 42.919921875 438.48046875 24.3603515625 474.440429688 c 1
 58 602.040039062 l 1
 88.16015625 596.240234375 l 1
 121.799804688 567.240234375 l 1
EndSplineSet
EndChar
StartChar: uniFB26
Encoding: 64294 64294 2407
Width: 812
Flags: HW
AnchorPoint: "Top" 263.32 619.44 basechar 0
LayerCount: 2
Fore
SplineSet
702.959960938 0 m 1
 83.51953125 -1.16015625 l 1
 77.7197265625 129.919921875 l 1
 726.16015625 129.919921875 l 1
 702.959960938 0 l 1
110.200195312 598.559570312 m 1
 151.959960938 567.240234375 l 1
 138.040039062 531.280273438 l 1
 110.200195312 394.400390625 l 1
 113.6796875 288.83984375 125.280273438 171.6796875 132.240234375 82.3603515625 c 1
 83.51953125 -1.16015625 l 1
 54.51953125 10.4404296875 l 1
 53.3603515625 511.559570312 l 1
 110.200195312 598.559570312 l 1
129.919921875 567.240234375 m 1
 277.8203125 576.51953125 648.583007812 563.759765625 721.51953125 557.959960938 c 1
 734.280273438 516.200195312 744.719726562 472.120117188 751.6796875 431.51953125 c 1
 757.48046875 345.6796875 759.799804688 263.3203125 759.799804688 192.559570312 c 0
 759.799804688 153.120117188 758.639648438 117.16015625 757.48046875 88.16015625 c 1
 738.919921875 58 718.040039062 26.6796875 702.959960938 0 c 1
 678.599609375 13.919921875 l 1
 692.51953125 168.200195312 706.440429688 314.360351562 700.639648438 421.080078125 c 1
 491.926757812 429.200195312 265.999023438 432.6796875 151.959960938 431.51953125 c 1
 126.440429688 435 84.6796875 433.83984375 73.080078125 458.200195312 c 1
 95.1201171875 538.240234375 l 1
 110.200195312 562.599609375 l 1
 129.919921875 567.240234375 l 1
EndSplineSet
EndChar
StartChar: uniFB27
Encoding: 64295 64295 2408
Width: 812
Flags: HW
AnchorPoint: "Top" 245.92 619.44 basechar 0
LayerCount: 2
Fore
SplineSet
120.639648438 567.240234375 m 1
 190.625459876 572.97753847 326.277408018 570.543823948 432.999996645 566.15060587 c 0
 655.298241455 556.999734621 760.959960938 436.019646968 760.959960938 187.919921875 c 3
 760.959960938 147.3203125 759.799804688 109.040039062 757.48046875 77.7197265625 c 1
 738.919921875 44.080078125 718.040039062 9.2802734375 702.959960938 -19.7197265625 c 1
 680.919921875 -4.6396484375 l 1
 688.734268166 66.321027164 694.373343907 132.453547118 694.373343907 189.66267173 c 3
 694.373343907 334.974392621 614.371637565 417.779511332 465.000005579 424.366754363 c 0
 334.433140236 430.124712968 204.624828436 432.508770125 134.559570312 431.51953125 c 1
 98.599609375 436.16015625 42.919921875 438.48046875 24.3603515625 474.440429688 c 1
 58 602.040039062 l 1
 87 596.240234375 l 1
 120.639648438 567.240234375 l 1
EndSplineSet
EndChar
StartChar: NameMe.question
Encoding: 65536 -1 2630
Width: 333
Flags: HW
LayerCount: 2
Fore
SplineSet
51 389 m 1
 53 402 54 413 54 423 c 3
 54 466 39 483 39 491 c 3
 39 496 45 499 65 502 c 1
 86 470 93 470 123 470 c 3
 198 470 273 418 273 340 c 3
 273 220 195 214 185 210 c 0
 158 200 144 184 141 155 c 9
 141 155 128 154 123 154 c 1
 115 217 109 267 145 283 c 0
 164 290 246 274 246 331 c 3
 246 373 168 396 51 389 c 1
EndSplineSet
Refer: 659 46 N 0.929057 0 0 0.987278 39 -2 2
EndChar
